<svg width="290" height="274" viewBox="0 0 290 274" fill="none" xmlns="http://www.w3.org/2000/svg">
<rect x="25.5" y="31.5" width="249" height="241" rx="32.5" fill="white" stroke="#3164E8" stroke-width="3"/>
<g clip-path="url(#clip0_73_10)">
<path d="M151 47.7246C160.237 47.7246 167.724 40.2368 167.724 31.0002C167.724 21.7636 160.237 14.2759 151 14.2759C141.763 14.2759 134.276 21.7636 134.276 31.0002C134.276 40.2368 141.763 47.7246 151 47.7246Z" fill="#3164E8"/>
<path d="M151 50.689C151.255 51.6336 151.392 52.5721 151.485 53.5168C151.578 54.4614 151.621 55.3999 151.621 56.3445C151.628 57.2892 151.578 58.2277 151.485 59.1723C151.392 60.117 151.261 61.0554 151 62.0001C150.739 61.0554 150.608 60.117 150.515 59.1723C150.422 58.2277 150.378 57.2892 150.378 56.3445C150.378 55.3999 150.428 54.4614 150.515 53.5168C150.608 52.5783 150.739 51.6336 151 50.689Z" fill="#3164E8"/>
<path d="M151 0C151.255 0.944667 151.392 1.88312 151.485 2.82779C151.578 3.77245 151.621 4.71091 151.621 5.65557C151.628 6.60024 151.578 7.53869 151.485 8.48336C151.392 9.42803 151.261 10.3665 151 11.3111C150.739 10.3665 150.608 9.42803 150.515 8.48336C150.422 7.53869 150.378 6.60024 150.378 5.65557C150.378 4.71091 150.428 3.77245 150.515 2.82779C150.608 1.88312 150.739 0.944667 151 0Z" fill="#3164E8"/>
<path d="M170.689 30.9999C171.634 30.7451 172.572 30.6084 173.517 30.5152C174.461 30.422 175.4 30.3784 176.344 30.3784C177.289 30.3722 178.228 30.422 179.172 30.5152C180.117 30.6084 181.055 30.7389 182 30.9999C181.055 31.261 180.117 31.3915 179.172 31.4847C178.228 31.5779 177.289 31.6214 176.344 31.6214C175.4 31.6214 174.461 31.5717 173.517 31.4847C172.578 31.3915 171.634 31.2548 170.689 30.9999Z" fill="#3164E8"/>
<path d="M120 30.9999C120.945 30.7451 121.883 30.6084 122.828 30.5152C123.772 30.422 124.711 30.3784 125.656 30.3784C126.6 30.3722 127.539 30.422 128.483 30.5152C129.428 30.6084 130.366 30.7389 131.311 30.9999C130.366 31.261 129.428 31.3915 128.483 31.4847C127.539 31.5779 126.6 31.6214 125.656 31.6214C124.711 31.6214 123.772 31.5717 122.828 31.4847C121.883 31.3915 120.945 31.2548 120 30.9999Z" fill="#3164E8"/>
<path d="M164.921 44.9214C165.767 45.4062 166.531 45.9779 167.264 46.5808C167.998 47.1836 168.694 47.8175 169.359 48.4825C170.03 49.1475 170.658 49.8498 171.261 50.577C171.863 51.3103 172.435 52.0685 172.914 52.92C172.062 52.4352 171.304 51.8634 170.571 51.2668C169.844 50.664 169.141 50.0363 168.476 49.3651C167.811 48.7001 167.177 47.9978 166.575 47.2706C165.978 46.531 165.406 45.7728 164.921 44.9214Z" fill="#3164E8"/>
<path d="M129.08 9.08008C129.925 9.56484 130.69 10.1366 131.423 10.7395C132.156 11.3423 132.852 11.9762 133.517 12.6412C134.189 13.3062 134.816 14.0085 135.419 14.7357C136.022 15.469 136.594 16.2272 137.072 17.0787C136.221 16.5939 135.463 16.0221 134.729 15.4255C134.002 14.8227 133.3 14.195 132.635 13.5237C131.97 12.8587 131.336 12.1565 130.733 11.4293C130.137 10.6897 129.565 9.92531 129.08 9.08008Z" fill="#3164E8"/>
<path d="M164.921 17.0725C165.406 16.2272 165.978 15.4628 166.581 14.7294C167.184 13.9961 167.818 13.3 168.483 12.635C169.148 11.9638 169.85 11.3361 170.577 10.7332C171.31 10.1304 172.069 9.55863 172.92 9.08008C172.435 9.93152 171.863 10.6897 171.267 11.4231C170.664 12.1502 170.036 12.8525 169.365 13.5175C168.7 14.1825 167.998 14.8164 167.271 15.4193C166.531 16.0159 165.773 16.5877 164.921 17.0725Z" fill="#3164E8"/>
<path d="M129.08 52.9201C129.565 52.0749 130.137 51.3105 130.739 50.5771C131.342 49.8437 131.976 49.1477 132.641 48.4827C133.306 47.8115 134.008 47.1837 134.736 46.5809C135.469 45.9781 136.227 45.4063 137.079 44.9277C136.594 45.7792 136.022 46.5374 135.425 47.2708C134.823 47.9979 134.195 48.7002 133.524 49.3652C132.859 50.0302 132.156 50.6641 131.429 51.2669C130.69 51.8636 129.925 52.4354 129.08 52.9201Z" fill="#3164E8"/>
<path d="M158.93 49.1909C159.527 49.9616 160.012 50.7819 160.459 51.6147C160.907 52.4475 161.311 53.3052 161.671 54.1753C162.038 55.0454 162.348 55.9341 162.628 56.8415C162.902 57.7489 163.138 58.6687 163.262 59.6382C162.665 58.8675 162.174 58.0472 161.733 57.2144C161.292 56.3754 160.882 55.5239 160.527 54.6538C160.167 53.7837 159.85 52.895 159.577 51.9876C159.284 51.0803 159.048 50.1604 158.93 49.1909Z" fill="#3164E8"/>
<path d="M139.527 2.36182C140.124 3.13247 140.609 3.95283 141.056 4.78563C141.504 5.61843 141.908 6.47609 142.268 7.34618C142.635 8.21627 142.945 9.105 143.225 10.0124C143.499 10.9198 143.735 11.8396 143.859 12.8091C143.262 12.0384 142.771 11.2181 142.33 10.3853C141.889 9.54626 141.479 8.69482 141.125 7.82473C140.764 6.95464 140.447 6.06591 140.174 5.15853C139.888 4.25115 139.652 3.33134 139.527 2.36182Z" fill="#3164E8"/>
<path d="M169.583 23.4612C170.353 22.8646 171.174 22.3798 172.006 21.9323C172.839 21.4848 173.697 21.0809 174.567 20.7204C175.437 20.3599 176.326 20.043 177.233 19.7633C178.141 19.4899 179.06 19.2537 180.03 19.1294C179.259 19.726 178.439 20.217 177.606 20.6583C176.767 21.0995 175.916 21.5097 175.045 21.864C174.175 22.2244 173.287 22.5414 172.379 22.8148C171.478 23.1007 170.552 23.3369 169.583 23.4612Z" fill="#3164E8"/>
<path d="M122.753 42.8645C123.524 42.2679 124.344 41.7831 125.177 41.3356C126.01 40.8882 126.868 40.4842 127.738 40.1237C128.608 39.7571 129.496 39.4463 130.404 39.1666C131.311 38.8932 132.231 38.657 133.201 38.5327C132.43 39.1293 131.609 39.6203 130.777 40.0616C129.938 40.5028 129.086 40.913 128.216 41.2673C127.346 41.6277 126.457 41.9447 125.55 42.2182C124.643 42.504 123.723 42.7402 122.753 42.8645Z" fill="#3164E8"/>
<path d="M169.583 38.5327C170.552 38.657 171.472 38.8932 172.379 39.1666C173.287 39.4463 174.175 39.7571 175.045 40.1175C175.916 40.478 176.767 40.882 177.606 41.3232C178.439 41.7707 179.259 42.2554 180.03 42.8521C179.06 42.7278 178.141 42.4978 177.233 42.2182C176.326 41.9385 175.437 41.6277 174.567 41.2611C173.697 40.9006 172.845 40.4966 172.006 40.0492C171.174 39.6203 170.359 39.1356 169.583 38.5327Z" fill="#3164E8"/>
<path d="M122.753 19.1357C123.723 19.26 124.643 19.4962 125.55 19.7697C126.457 20.0431 127.346 20.3601 128.216 20.7205C129.086 21.081 129.938 21.485 130.777 21.9262C131.609 22.3737 132.43 22.8585 133.201 23.4551C132.231 23.3308 131.311 23.1009 130.404 22.8212C129.496 22.5415 128.608 22.2308 127.738 21.8641C126.868 21.5036 126.016 21.0997 125.177 20.6522C124.344 20.2171 123.524 19.7324 122.753 19.1357Z" fill="#3164E8"/>
<path d="M158.93 12.8027C159.055 11.8332 159.291 10.9134 159.564 10.006C159.838 9.09865 160.155 8.20992 160.515 7.33983C160.876 6.46974 161.279 5.6183 161.721 4.77929C162.168 3.94649 162.653 3.12612 163.25 2.35547C163.125 3.325 162.895 4.2448 162.616 5.15218C162.336 6.05956 162.025 6.94829 161.659 7.81838C161.298 8.68847 160.894 9.53991 160.447 10.3789C160.012 11.2117 159.527 12.0321 158.93 12.8027Z" fill="#3164E8"/>
<path d="M139.527 59.6382C139.652 58.6687 139.888 57.7489 140.161 56.8415C140.435 55.9341 140.752 55.0454 141.112 54.1753C141.473 53.3052 141.877 52.4537 142.318 51.6147C142.765 50.7819 143.25 49.9616 143.847 49.1909C143.722 50.1604 143.492 51.0803 143.213 51.9876C142.933 52.895 142.622 53.7837 142.256 54.6538C141.895 55.5239 141.491 56.3754 141.044 57.2144C140.615 58.0472 140.13 58.8675 139.527 59.6382Z" fill="#3164E8"/>
</g>
<g clip-path="url(#clip1_73_10)">
<path d="M153.484 24.013L148.545 24L146 31.5717H149.932L146.298 39L157 28.848L151.237 28.861L153.484 24.013Z" fill="white"/>
</g>
<path d="M91.6014 80V68.8H93.7454L100.353 76.864H99.3134V68.8H101.873V80H99.7454L93.1214 71.936H94.1614V80H91.6014ZM108.443 80.128C107.526 80.128 106.71 79.936 105.995 79.552C105.291 79.168 104.731 78.6453 104.315 77.984C103.91 77.312 103.707 76.5493 103.707 75.696C103.707 74.832 103.91 74.0693 104.315 73.408C104.731 72.736 105.291 72.2133 105.995 71.84C106.71 71.456 107.526 71.264 108.443 71.264C109.35 71.264 110.161 71.456 110.875 71.84C111.59 72.2133 112.15 72.7307 112.555 73.392C112.961 74.0533 113.163 74.8213 113.163 75.696C113.163 76.5493 112.961 77.312 112.555 77.984C112.15 78.6453 111.59 79.168 110.875 79.552C110.161 79.936 109.35 80.128 108.443 80.128ZM108.443 78.08C108.859 78.08 109.233 77.984 109.563 77.792C109.894 77.6 110.155 77.328 110.347 76.976C110.539 76.6133 110.635 76.1867 110.635 75.696C110.635 75.1947 110.539 74.768 110.347 74.416C110.155 74.064 109.894 73.792 109.563 73.6C109.233 73.408 108.859 73.312 108.443 73.312C108.027 73.312 107.654 73.408 107.323 73.6C106.993 73.792 106.726 74.064 106.523 74.416C106.331 74.768 106.235 75.1947 106.235 75.696C106.235 76.1867 106.331 76.6133 106.523 76.976C106.726 77.328 106.993 77.6 107.323 77.792C107.654 77.984 108.027 78.08 108.443 78.08ZM118.464 80.128C117.749 80.128 117.109 79.9893 116.544 79.712C115.989 79.4347 115.557 79.0133 115.248 78.448C114.938 77.872 114.784 77.1413 114.784 76.256V71.392H117.28V75.888C117.28 76.6027 117.429 77.1307 117.728 77.472C118.037 77.8027 118.469 77.968 119.024 77.968C119.408 77.968 119.749 77.888 120.048 77.728C120.346 77.5573 120.581 77.3013 120.752 76.96C120.922 76.608 121.008 76.1707 121.008 75.648V71.392H123.504V80H121.136V77.632L121.568 78.32C121.28 78.9173 120.853 79.3707 120.288 79.68C119.733 79.9787 119.125 80.128 118.464 80.128ZM128.152 80L124.536 71.392H127.112L130.12 78.8H128.84L131.96 71.392H134.36L130.728 80H128.152ZM139.416 80.128C138.435 80.128 137.571 79.936 136.824 79.552C136.088 79.168 135.518 78.6453 135.112 77.984C134.707 77.312 134.504 76.5493 134.504 75.696C134.504 74.832 134.702 74.0693 135.096 73.408C135.502 72.736 136.051 72.2133 136.744 71.84C137.438 71.456 138.222 71.264 139.096 71.264C139.939 71.264 140.696 71.4453 141.368 71.808C142.051 72.16 142.59 72.672 142.984 73.344C143.379 74.0053 143.576 74.8 143.576 75.728C143.576 75.824 143.571 75.936 143.56 76.064C143.55 76.1813 143.539 76.2933 143.528 76.4H136.536V74.944H142.216L141.256 75.376C141.256 74.928 141.166 74.5387 140.984 74.208C140.803 73.8773 140.552 73.6213 140.232 73.44C139.912 73.248 139.539 73.152 139.112 73.152C138.686 73.152 138.307 73.248 137.976 73.44C137.656 73.6213 137.406 73.8827 137.224 74.224C137.043 74.5547 136.952 74.9493 136.952 75.408V75.792C136.952 76.2613 137.054 76.6773 137.256 77.04C137.47 77.392 137.763 77.664 138.136 77.856C138.52 78.0373 138.968 78.128 139.48 78.128C139.939 78.128 140.339 78.0587 140.68 77.92C141.032 77.7813 141.352 77.5733 141.64 77.296L142.968 78.736C142.574 79.184 142.078 79.5307 141.48 79.776C140.883 80.0107 140.195 80.128 139.416 80.128ZM150.284 80V78.32L150.124 77.952V74.944C150.124 74.4107 149.958 73.9947 149.628 73.696C149.308 73.3973 148.812 73.248 148.14 73.248C147.681 73.248 147.228 73.3227 146.78 73.472C146.342 73.6107 145.969 73.8027 145.66 74.048L144.764 72.304C145.233 71.9733 145.798 71.7173 146.46 71.536C147.121 71.3547 147.793 71.264 148.476 71.264C149.788 71.264 150.806 71.5733 151.532 72.192C152.257 72.8107 152.62 73.776 152.62 75.088V80H150.284ZM147.66 80.128C146.988 80.128 146.412 80.016 145.932 79.792C145.452 79.5573 145.084 79.2427 144.828 78.848C144.572 78.4533 144.444 78.0107 144.444 77.52C144.444 77.008 144.566 76.56 144.812 76.176C145.068 75.792 145.468 75.4933 146.012 75.28C146.556 75.056 147.265 74.944 148.14 74.944H150.428V76.4H148.412C147.825 76.4 147.42 76.496 147.196 76.688C146.982 76.88 146.876 77.12 146.876 77.408C146.876 77.728 146.998 77.984 147.244 78.176C147.5 78.3573 147.846 78.448 148.284 78.448C148.7 78.448 149.073 78.352 149.404 78.16C149.734 77.9573 149.974 77.664 150.124 77.28L150.508 78.432C150.326 78.9867 149.996 79.408 149.516 79.696C149.036 79.984 148.417 80.128 147.66 80.128ZM158.511 80.128C157.796 80.128 157.156 79.9893 156.591 79.712C156.036 79.4347 155.604 79.0133 155.295 78.448C154.985 77.872 154.831 77.1413 154.831 76.256V71.392H157.327V75.888C157.327 76.6027 157.476 77.1307 157.775 77.472C158.084 77.8027 158.516 77.968 159.071 77.968C159.455 77.968 159.796 77.888 160.095 77.728C160.393 77.5573 160.628 77.3013 160.799 76.96C160.969 76.608 161.055 76.1707 161.055 75.648V71.392H163.551V80H161.183V77.632L161.615 78.32C161.327 78.9173 160.9 79.3707 160.335 79.68C159.78 79.9787 159.172 80.128 158.511 80.128ZM174.09 80.128C173.28 80.128 172.549 79.9467 171.898 79.584C171.248 79.2107 170.73 78.6933 170.346 78.032C169.973 77.3707 169.786 76.592 169.786 75.696C169.786 74.7893 169.973 74.0053 170.346 73.344C170.73 72.6827 171.248 72.1707 171.898 71.808C172.549 71.4453 173.28 71.264 174.09 71.264C174.816 71.264 175.45 71.424 175.994 71.744C176.538 72.064 176.96 72.5493 177.258 73.2C177.557 73.8507 177.706 74.6827 177.706 75.696C177.706 76.6987 177.562 77.5307 177.274 78.192C176.986 78.8427 176.57 79.328 176.026 79.648C175.493 79.968 174.848 80.128 174.09 80.128ZM174.522 78.08C174.928 78.08 175.296 77.984 175.626 77.792C175.957 77.6 176.218 77.328 176.41 76.976C176.613 76.6133 176.714 76.1867 176.714 75.696C176.714 75.1947 176.613 74.768 176.41 74.416C176.218 74.064 175.957 73.792 175.626 73.6C175.296 73.408 174.928 73.312 174.522 73.312C174.106 73.312 173.733 73.408 173.402 73.6C173.072 73.792 172.805 74.064 172.602 74.416C172.41 74.768 172.314 75.1947 172.314 75.696C172.314 76.1867 172.41 76.6133 172.602 76.976C172.805 77.328 173.072 77.6 173.402 77.792C173.733 77.984 174.106 78.08 174.522 78.08ZM176.778 80V78.24L176.826 75.68L176.666 73.136V68.128H179.162V80H176.778ZM185.744 80.128C184.763 80.128 183.899 79.936 183.152 79.552C182.416 79.168 181.846 78.6453 181.44 77.984C181.035 77.312 180.832 76.5493 180.832 75.696C180.832 74.832 181.03 74.0693 181.424 73.408C181.83 72.736 182.379 72.2133 183.072 71.84C183.766 71.456 184.55 71.264 185.424 71.264C186.267 71.264 187.024 71.4453 187.696 71.808C188.379 72.16 188.918 72.672 189.312 73.344C189.707 74.0053 189.904 74.8 189.904 75.728C189.904 75.824 189.899 75.936 189.888 76.064C189.878 76.1813 189.867 76.2933 189.856 76.4H182.864V74.944H188.544L187.584 75.376C187.584 74.928 187.494 74.5387 187.312 74.208C187.131 73.8773 186.88 73.6213 186.56 73.44C186.24 73.248 185.867 73.152 185.44 73.152C185.014 73.152 184.635 73.248 184.304 73.44C183.984 73.6213 183.734 73.8827 183.552 74.224C183.371 74.5547 183.28 74.9493 183.28 75.408V75.792C183.28 76.2613 183.382 76.6773 183.584 77.04C183.798 77.392 184.091 77.664 184.464 77.856C184.848 78.0373 185.296 78.128 185.808 78.128C186.267 78.128 186.667 78.0587 187.008 77.92C187.36 77.7813 187.68 77.5733 187.968 77.296L189.296 78.736C188.902 79.184 188.406 79.5307 187.808 79.776C187.211 80.0107 186.523 80.128 185.744 80.128ZM183.92 70.288L186.08 67.984H188.768L185.872 70.288H183.92ZM191.87 80V71.2C191.87 70.2293 192.158 69.456 192.734 68.88C193.31 68.2933 194.131 68 195.198 68C195.561 68 195.907 68.0373 196.238 68.112C196.579 68.1867 196.867 68.304 197.102 68.464L196.446 70.272C196.307 70.176 196.153 70.1013 195.982 70.048C195.811 69.9947 195.63 69.968 195.438 69.968C195.075 69.968 194.793 70.0747 194.59 70.288C194.398 70.4907 194.302 70.8 194.302 71.216V72.016L194.366 73.088V80H191.87ZM190.542 73.504V71.584H196.51V73.504H190.542ZM197.918 80V71.392H200.414V80H197.918ZM199.166 70.192C198.707 70.192 198.334 70.0587 198.046 69.792C197.758 69.5253 197.614 69.1947 197.614 68.8C197.614 68.4053 197.758 68.0747 198.046 67.808C198.334 67.5413 198.707 67.408 199.166 67.408C199.625 67.408 199.998 67.536 200.286 67.792C200.574 68.0373 200.718 68.3573 200.718 68.752C200.718 69.168 200.574 69.5147 200.286 69.792C200.009 70.0587 199.635 70.192 199.166 70.192ZM207.43 76.112L206.934 68.8H209.91L209.414 76.112H207.43ZM208.422 80.128C207.974 80.128 207.606 79.984 207.318 79.696C207.03 79.408 206.886 79.0667 206.886 78.672C206.886 78.2667 207.03 77.9307 207.318 77.664C207.606 77.3867 207.974 77.248 208.422 77.248C208.88 77.248 209.248 77.3867 209.526 77.664C209.814 77.9307 209.958 78.2667 209.958 78.672C209.958 79.0667 209.814 79.408 209.526 79.696C209.248 79.984 208.88 80.128 208.422 80.128Z" fill="#3164E8"/>
<path d="M59.684 127.072C59.06 127.072 58.46 126.972 57.884 126.772C57.316 126.564 56.876 126.3 56.564 125.98L56.912 125.296C57.208 125.584 57.604 125.828 58.1 126.028C58.604 126.22 59.132 126.316 59.684 126.316C60.212 126.316 60.64 126.252 60.968 126.124C61.304 125.988 61.548 125.808 61.7 125.584C61.86 125.36 61.94 125.112 61.94 124.84C61.94 124.512 61.844 124.248 61.652 124.048C61.468 123.848 61.224 123.692 60.92 123.58C60.616 123.46 60.28 123.356 59.912 123.268C59.544 123.18 59.176 123.088 58.808 122.992C58.44 122.888 58.1 122.752 57.788 122.584C57.484 122.416 57.236 122.196 57.044 121.924C56.86 121.644 56.768 121.28 56.768 120.832C56.768 120.416 56.876 120.036 57.092 119.692C57.316 119.34 57.656 119.06 58.112 118.852C58.568 118.636 59.152 118.528 59.864 118.528C60.336 118.528 60.804 118.596 61.268 118.732C61.732 118.86 62.132 119.04 62.468 119.272L62.168 119.98C61.808 119.74 61.424 119.564 61.016 119.452C60.616 119.34 60.228 119.284 59.852 119.284C59.348 119.284 58.932 119.352 58.604 119.488C58.276 119.624 58.032 119.808 57.872 120.04C57.72 120.264 57.644 120.52 57.644 120.808C57.644 121.136 57.736 121.4 57.92 121.6C58.112 121.8 58.36 121.956 58.664 122.068C58.976 122.18 59.316 122.28 59.684 122.368C60.052 122.456 60.416 122.552 60.776 122.656C61.144 122.76 61.48 122.896 61.784 123.064C62.096 123.224 62.344 123.44 62.528 123.712C62.72 123.984 62.816 124.34 62.816 124.78C62.816 125.188 62.704 125.568 62.48 125.92C62.256 126.264 61.912 126.544 61.448 126.76C60.992 126.968 60.404 127.072 59.684 127.072ZM64.5708 127V120.7H65.4228V127H64.5708ZM65.0028 119.308C64.8268 119.308 64.6788 119.248 64.5588 119.128C64.4388 119.008 64.3788 118.864 64.3788 118.696C64.3788 118.528 64.4388 118.388 64.5588 118.276C64.6788 118.156 64.8268 118.096 65.0028 118.096C65.1788 118.096 65.3268 118.152 65.4468 118.264C65.5668 118.376 65.6268 118.516 65.6268 118.684C65.6268 118.86 65.5668 119.008 65.4468 119.128C65.3348 119.248 65.1868 119.308 65.0028 119.308ZM72.9261 127.06C72.3341 127.06 71.8781 126.9 71.5581 126.58C71.2381 126.26 71.0781 125.808 71.0781 125.224V119.308H71.9301V125.176C71.9301 125.544 72.0221 125.828 72.2061 126.028C72.3981 126.228 72.6701 126.328 73.0221 126.328C73.3981 126.328 73.7101 126.22 73.9581 126.004L74.2581 126.616C74.0901 126.768 73.8861 126.88 73.6461 126.952C73.4141 127.024 73.1741 127.06 72.9261 127.06ZM69.9501 121.408V120.7H73.8501V121.408H69.9501ZM78.4131 127.06C77.8771 127.06 77.4091 126.96 77.0091 126.76C76.6091 126.56 76.2971 126.26 76.0731 125.86C75.8571 125.46 75.7491 124.96 75.7491 124.36V120.7H76.6011V124.264C76.6011 124.936 76.7651 125.444 77.0931 125.788C77.4291 126.124 77.8971 126.292 78.4971 126.292C78.9371 126.292 79.3171 126.204 79.6371 126.028C79.9651 125.844 80.2131 125.58 80.3811 125.236C80.5571 124.892 80.6451 124.48 80.6451 124V120.7H81.4971V127H80.6811V125.272L80.8131 125.584C80.6131 126.048 80.3011 126.412 79.8771 126.676C79.4611 126.932 78.9731 127.06 78.4131 127.06ZM94.8842 120.64C95.3962 120.64 95.8402 120.74 96.2162 120.94C96.6002 121.132 96.8962 121.428 97.1042 121.828C97.3202 122.228 97.4282 122.732 97.4282 123.34V127H96.5762V123.424C96.5762 122.76 96.4162 122.26 96.0962 121.924C95.7842 121.58 95.3402 121.408 94.7642 121.408C94.3322 121.408 93.9562 121.5 93.6362 121.684C93.3242 121.86 93.0802 122.12 92.9042 122.464C92.7362 122.8 92.6522 123.208 92.6522 123.688V127H91.8002V123.424C91.8002 122.76 91.6402 122.26 91.3202 121.924C91.0002 121.58 90.5522 121.408 89.9762 121.408C89.5522 121.408 89.1802 121.5 88.8602 121.684C88.5402 121.86 88.2922 122.12 88.1162 122.464C87.9482 122.8 87.8642 123.208 87.8642 123.688V127H87.0122V120.7H87.8282V122.404L87.6962 122.104C87.8882 121.648 88.1962 121.292 88.6202 121.036C89.0522 120.772 89.5602 120.64 90.1442 120.64C90.7602 120.64 91.2842 120.796 91.7162 121.108C92.1482 121.412 92.4282 121.872 92.5562 122.488L92.2202 122.356C92.4042 121.844 92.7282 121.432 93.1922 121.12C93.6642 120.8 94.2282 120.64 94.8842 120.64ZM103.687 127V125.608L103.651 125.38V123.052C103.651 122.516 103.499 122.104 103.195 121.816C102.899 121.528 102.455 121.384 101.863 121.384C101.455 121.384 101.067 121.452 100.699 121.588C100.331 121.724 100.019 121.904 99.7628 122.128L99.3788 121.492C99.6988 121.22 100.083 121.012 100.531 120.868C100.979 120.716 101.451 120.64 101.947 120.64C102.763 120.64 103.391 120.844 103.831 121.252C104.279 121.652 104.503 122.264 104.503 123.088V127H103.687ZM101.515 127.06C101.043 127.06 100.631 126.984 100.279 126.832C99.9348 126.672 99.6708 126.456 99.4868 126.184C99.3028 125.904 99.2108 125.584 99.2108 125.224C99.2108 124.896 99.2868 124.6 99.4388 124.336C99.5988 124.064 99.8548 123.848 100.207 123.688C100.567 123.52 101.047 123.436 101.647 123.436H103.819V124.072H101.671C101.063 124.072 100.639 124.18 100.399 124.396C100.167 124.612 100.051 124.88 100.051 125.2C100.051 125.56 100.191 125.848 100.471 126.064C100.751 126.28 101.143 126.388 101.647 126.388C102.127 126.388 102.539 126.28 102.883 126.064C103.235 125.84 103.491 125.52 103.651 125.104L103.843 125.692C103.683 126.108 103.403 126.44 103.003 126.688C102.611 126.936 102.115 127.06 101.515 127.06ZM106.817 127V120.7H107.633V122.416L107.549 122.116C107.725 121.636 108.021 121.272 108.437 121.024C108.853 120.768 109.369 120.64 109.985 120.64V121.468C109.953 121.468 109.921 121.468 109.889 121.468C109.857 121.46 109.825 121.456 109.793 121.456C109.129 121.456 108.609 121.66 108.233 122.068C107.857 122.468 107.669 123.04 107.669 123.784V127H106.817ZM114.097 127.06C113.473 127.06 112.913 126.924 112.417 126.652C111.929 126.372 111.545 125.992 111.265 125.512C110.985 125.024 110.845 124.468 110.845 123.844C110.845 123.212 110.985 122.656 111.265 122.176C111.545 121.696 111.929 121.32 112.417 121.048C112.913 120.776 113.473 120.64 114.097 120.64C114.633 120.64 115.117 120.744 115.549 120.952C115.981 121.16 116.321 121.472 116.569 121.888L115.933 122.32C115.717 122 115.449 121.764 115.129 121.612C114.809 121.46 114.461 121.384 114.085 121.384C113.637 121.384 113.233 121.488 112.873 121.696C112.513 121.896 112.229 122.18 112.021 122.548C111.813 122.916 111.709 123.348 111.709 123.844C111.709 124.34 111.813 124.772 112.021 125.14C112.229 125.508 112.513 125.796 112.873 126.004C113.233 126.204 113.637 126.304 114.085 126.304C114.461 126.304 114.809 126.228 115.129 126.076C115.449 125.924 115.717 125.692 115.933 125.38L116.569 125.812C116.321 126.22 115.981 126.532 115.549 126.748C115.117 126.956 114.633 127.06 114.097 127.06ZM121.365 120.64C121.877 120.64 122.325 120.74 122.709 120.94C123.101 121.132 123.405 121.428 123.621 121.828C123.845 122.228 123.957 122.732 123.957 123.34V127H123.105V123.424C123.105 122.76 122.937 122.26 122.601 121.924C122.273 121.58 121.809 121.408 121.209 121.408C120.761 121.408 120.369 121.5 120.033 121.684C119.705 121.86 119.449 122.12 119.265 122.464C119.089 122.8 119.001 123.208 119.001 123.688V127H118.149V118.096H119.001V122.428L118.833 122.104C119.033 121.648 119.353 121.292 119.793 121.036C120.233 120.772 120.757 120.64 121.365 120.64ZM130.206 127V125.608L130.17 125.38V123.052C130.17 122.516 130.018 122.104 129.714 121.816C129.418 121.528 128.974 121.384 128.382 121.384C127.974 121.384 127.586 121.452 127.218 121.588C126.85 121.724 126.538 121.904 126.282 122.128L125.898 121.492C126.218 121.22 126.602 121.012 127.05 120.868C127.498 120.716 127.97 120.64 128.466 120.64C129.282 120.64 129.91 120.844 130.35 121.252C130.798 121.652 131.022 122.264 131.022 123.088V127H130.206ZM128.034 127.06C127.562 127.06 127.15 126.984 126.798 126.832C126.454 126.672 126.19 126.456 126.006 126.184C125.822 125.904 125.73 125.584 125.73 125.224C125.73 124.896 125.806 124.6 125.958 124.336C126.118 124.064 126.374 123.848 126.726 123.688C127.086 123.52 127.566 123.436 128.166 123.436H130.338V124.072H128.19C127.582 124.072 127.158 124.18 126.918 124.396C126.686 124.612 126.57 124.88 126.57 125.2C126.57 125.56 126.71 125.848 126.99 126.064C127.27 126.28 127.662 126.388 128.166 126.388C128.646 126.388 129.058 126.28 129.402 126.064C129.754 125.84 130.01 125.52 130.17 125.104L130.362 125.692C130.202 126.108 129.922 126.44 129.522 126.688C129.13 126.936 128.634 127.06 128.034 127.06ZM133.336 127V120.7H134.188V127H133.336ZM133.768 119.308C133.592 119.308 133.444 119.248 133.324 119.128C133.204 119.008 133.144 118.864 133.144 118.696C133.144 118.528 133.204 118.388 133.324 118.276C133.444 118.156 133.592 118.096 133.768 118.096C133.944 118.096 134.092 118.152 134.212 118.264C134.332 118.376 134.392 118.516 134.392 118.684C134.392 118.86 134.332 119.008 134.212 119.128C134.1 119.248 133.952 119.308 133.768 119.308ZM138.251 127.06C137.731 127.06 137.239 126.988 136.775 126.844C136.311 126.692 135.947 126.504 135.683 126.28L136.067 125.608C136.323 125.8 136.651 125.968 137.051 126.112C137.451 126.248 137.871 126.316 138.311 126.316C138.911 126.316 139.343 126.224 139.607 126.04C139.871 125.848 140.003 125.596 140.003 125.284C140.003 125.052 139.927 124.872 139.775 124.744C139.631 124.608 139.439 124.508 139.199 124.444C138.959 124.372 138.691 124.312 138.395 124.264C138.099 124.216 137.803 124.16 137.507 124.096C137.219 124.032 136.955 123.94 136.715 123.82C136.475 123.692 136.279 123.52 136.127 123.304C135.983 123.088 135.911 122.8 135.911 122.44C135.911 122.096 136.007 121.788 136.199 121.516C136.391 121.244 136.671 121.032 137.039 120.88C137.415 120.72 137.871 120.64 138.407 120.64C138.815 120.64 139.223 120.696 139.631 120.808C140.039 120.912 140.375 121.052 140.639 121.228L140.267 121.912C139.987 121.72 139.687 121.584 139.367 121.504C139.047 121.416 138.727 121.372 138.407 121.372C137.839 121.372 137.419 121.472 137.147 121.672C136.883 121.864 136.751 122.112 136.751 122.416C136.751 122.656 136.823 122.844 136.967 122.98C137.119 123.116 137.315 123.224 137.555 123.304C137.803 123.376 138.071 123.436 138.359 123.484C138.655 123.532 138.947 123.592 139.235 123.664C139.531 123.728 139.799 123.82 140.039 123.94C140.287 124.052 140.483 124.216 140.627 124.432C140.779 124.64 140.855 124.916 140.855 125.26C140.855 125.628 140.751 125.948 140.543 126.22C140.343 126.484 140.047 126.692 139.655 126.844C139.271 126.988 138.803 127.06 138.251 127.06ZM146.459 127V118.96L146.843 119.368H144.479V118.6H147.323V127H146.459ZM152.679 127.072C152.031 127.072 151.455 126.904 150.951 126.568C150.447 126.224 150.051 125.736 149.763 125.104C149.475 124.464 149.331 123.696 149.331 122.8C149.331 121.904 149.475 121.14 149.763 120.508C150.051 119.868 150.447 119.38 150.951 119.044C151.455 118.7 152.031 118.528 152.679 118.528C153.327 118.528 153.903 118.7 154.407 119.044C154.911 119.38 155.307 119.868 155.595 120.508C155.891 121.14 156.039 121.904 156.039 122.8C156.039 123.696 155.891 124.464 155.595 125.104C155.307 125.736 154.911 126.224 154.407 126.568C153.903 126.904 153.327 127.072 152.679 127.072ZM152.679 126.28C153.175 126.28 153.607 126.148 153.975 125.884C154.343 125.612 154.631 125.22 154.839 124.708C155.047 124.188 155.151 123.552 155.151 122.8C155.151 122.048 155.047 121.416 154.839 120.904C154.631 120.384 154.343 119.992 153.975 119.728C153.607 119.456 153.175 119.32 152.679 119.32C152.199 119.32 151.771 119.456 151.395 119.728C151.019 119.992 150.727 120.384 150.519 120.904C150.311 121.416 150.207 122.048 150.207 122.8C150.207 123.552 150.311 124.188 150.519 124.708C150.727 125.22 151.019 125.612 151.395 125.884C151.771 126.148 152.199 126.28 152.679 126.28ZM168.853 120.64C169.365 120.64 169.809 120.74 170.185 120.94C170.569 121.132 170.865 121.428 171.073 121.828C171.289 122.228 171.397 122.732 171.397 123.34V127H170.545V123.424C170.545 122.76 170.385 122.26 170.065 121.924C169.753 121.58 169.309 121.408 168.733 121.408C168.301 121.408 167.925 121.5 167.605 121.684C167.293 121.86 167.049 122.12 166.873 122.464C166.705 122.8 166.621 123.208 166.621 123.688V127H165.769V123.424C165.769 122.76 165.609 122.26 165.289 121.924C164.969 121.58 164.521 121.408 163.945 121.408C163.521 121.408 163.149 121.5 162.829 121.684C162.509 121.86 162.261 122.12 162.085 122.464C161.917 122.8 161.833 123.208 161.833 123.688V127H160.981V120.7H161.797V122.404L161.665 122.104C161.857 121.648 162.165 121.292 162.589 121.036C163.021 120.772 163.529 120.64 164.113 120.64C164.729 120.64 165.253 120.796 165.685 121.108C166.117 121.412 166.397 121.872 166.525 122.488L166.189 122.356C166.373 121.844 166.697 121.432 167.161 121.12C167.633 120.8 168.197 120.64 168.853 120.64ZM173.708 127V120.7H174.56V127H173.708ZM174.14 119.308C173.964 119.308 173.816 119.248 173.696 119.128C173.576 119.008 173.516 118.864 173.516 118.696C173.516 118.528 173.576 118.388 173.696 118.276C173.816 118.156 173.964 118.096 174.14 118.096C174.316 118.096 174.464 118.152 174.584 118.264C174.704 118.376 174.764 118.516 174.764 118.684C174.764 118.86 174.704 119.008 174.584 119.128C174.472 119.248 174.324 119.308 174.14 119.308ZM180.146 120.64C180.658 120.64 181.106 120.74 181.49 120.94C181.882 121.132 182.186 121.428 182.402 121.828C182.626 122.228 182.738 122.732 182.738 123.34V127H181.886V123.424C181.886 122.76 181.718 122.26 181.382 121.924C181.054 121.58 180.59 121.408 179.99 121.408C179.542 121.408 179.15 121.5 178.814 121.684C178.486 121.86 178.23 122.12 178.046 122.464C177.87 122.8 177.782 123.208 177.782 123.688V127H176.93V120.7H177.746V122.428L177.614 122.104C177.814 121.648 178.134 121.292 178.574 121.036C179.014 120.772 179.538 120.64 180.146 120.64ZM187.644 127.06C187.108 127.06 186.64 126.96 186.24 126.76C185.84 126.56 185.528 126.26 185.304 125.86C185.088 125.46 184.98 124.96 184.98 124.36V120.7H185.832V124.264C185.832 124.936 185.996 125.444 186.324 125.788C186.66 126.124 187.128 126.292 187.728 126.292C188.168 126.292 188.548 126.204 188.868 126.028C189.196 125.844 189.444 125.58 189.612 125.236C189.788 124.892 189.876 124.48 189.876 124V120.7H190.728V127H189.912V125.272L190.044 125.584C189.844 126.048 189.532 126.412 189.108 126.676C188.692 126.932 188.204 127.06 187.644 127.06ZM195.094 127.06C194.502 127.06 194.046 126.9 193.726 126.58C193.406 126.26 193.246 125.808 193.246 125.224V119.308H194.098V125.176C194.098 125.544 194.19 125.828 194.374 126.028C194.566 126.228 194.838 126.328 195.19 126.328C195.566 126.328 195.878 126.22 196.126 126.004L196.426 126.616C196.258 126.768 196.054 126.88 195.814 126.952C195.582 127.024 195.342 127.06 195.094 127.06ZM192.118 121.408V120.7H196.018V121.408H192.118ZM200.43 127.06C199.774 127.06 199.198 126.924 198.702 126.652C198.206 126.372 197.818 125.992 197.538 125.512C197.258 125.024 197.118 124.468 197.118 123.844C197.118 123.22 197.25 122.668 197.514 122.188C197.786 121.708 198.154 121.332 198.618 121.06C199.09 120.78 199.618 120.64 200.202 120.64C200.794 120.64 201.318 120.776 201.774 121.048C202.238 121.312 202.602 121.688 202.866 122.176C203.13 122.656 203.262 123.212 203.262 123.844C203.262 123.884 203.258 123.928 203.25 123.976C203.25 124.016 203.25 124.06 203.25 124.108H197.766V123.472H202.794L202.458 123.724C202.458 123.268 202.358 122.864 202.158 122.512C201.966 122.152 201.702 121.872 201.366 121.672C201.03 121.472 200.642 121.372 200.202 121.372C199.77 121.372 199.382 121.472 199.038 121.672C198.694 121.872 198.426 122.152 198.234 122.512C198.042 122.872 197.946 123.284 197.946 123.748V123.88C197.946 124.36 198.05 124.784 198.258 125.152C198.474 125.512 198.77 125.796 199.146 126.004C199.53 126.204 199.966 126.304 200.454 126.304C200.838 126.304 201.194 126.236 201.522 126.1C201.858 125.964 202.146 125.756 202.386 125.476L202.866 126.028C202.586 126.364 202.234 126.62 201.81 126.796C201.394 126.972 200.934 127.06 200.43 127.06ZM206.689 127.06C206.169 127.06 205.677 126.988 205.213 126.844C204.749 126.692 204.385 126.504 204.121 126.28L204.505 125.608C204.761 125.8 205.089 125.968 205.489 126.112C205.889 126.248 206.309 126.316 206.749 126.316C207.349 126.316 207.781 126.224 208.045 126.04C208.309 125.848 208.441 125.596 208.441 125.284C208.441 125.052 208.365 124.872 208.213 124.744C208.069 124.608 207.877 124.508 207.637 124.444C207.397 124.372 207.129 124.312 206.833 124.264C206.537 124.216 206.241 124.16 205.945 124.096C205.657 124.032 205.393 123.94 205.153 123.82C204.913 123.692 204.717 123.52 204.565 123.304C204.421 123.088 204.349 122.8 204.349 122.44C204.349 122.096 204.445 121.788 204.637 121.516C204.829 121.244 205.109 121.032 205.477 120.88C205.853 120.72 206.309 120.64 206.845 120.64C207.253 120.64 207.661 120.696 208.069 120.808C208.477 120.912 208.813 121.052 209.077 121.228L208.705 121.912C208.425 121.72 208.125 121.584 207.805 121.504C207.485 121.416 207.165 121.372 206.845 121.372C206.277 121.372 205.857 121.472 205.585 121.672C205.321 121.864 205.189 122.112 205.189 122.416C205.189 122.656 205.261 122.844 205.405 122.98C205.557 123.116 205.753 123.224 205.993 123.304C206.241 123.376 206.509 123.436 206.797 123.484C207.093 123.532 207.385 123.592 207.673 123.664C207.969 123.728 208.237 123.82 208.477 123.94C208.725 124.052 208.921 124.216 209.065 124.432C209.217 124.64 209.293 124.916 209.293 125.26C209.293 125.628 209.189 125.948 208.981 126.22C208.781 126.484 208.485 126.692 208.093 126.844C207.709 126.988 207.241 127.06 206.689 127.06ZM215.629 124.48C215.629 124.144 215.681 123.856 215.785 123.616C215.897 123.376 216.033 123.164 216.193 122.98C216.361 122.796 216.537 122.624 216.721 122.464C216.913 122.304 217.093 122.144 217.261 121.984C217.429 121.816 217.565 121.636 217.669 121.444C217.773 121.244 217.825 121.012 217.825 120.748C217.825 120.316 217.657 119.964 217.321 119.692C216.985 119.42 216.509 119.284 215.893 119.284C215.381 119.284 214.937 119.368 214.561 119.536C214.185 119.696 213.865 119.936 213.601 120.256L212.965 119.776C213.285 119.376 213.697 119.068 214.201 118.852C214.705 118.636 215.289 118.528 215.953 118.528C216.513 118.528 216.997 118.612 217.405 118.78C217.821 118.948 218.141 119.188 218.365 119.5C218.597 119.812 218.713 120.184 218.713 120.616C218.713 120.96 218.657 121.256 218.545 121.504C218.441 121.744 218.305 121.96 218.137 122.152C217.977 122.336 217.801 122.512 217.609 122.68C217.425 122.84 217.249 123.004 217.081 123.172C216.913 123.34 216.777 123.528 216.673 123.736C216.569 123.944 216.517 124.192 216.517 124.48H215.629ZM216.073 127.06C215.905 127.06 215.757 127 215.629 126.88C215.509 126.752 215.449 126.604 215.449 126.436C215.449 126.26 215.509 126.116 215.629 126.004C215.757 125.884 215.905 125.824 216.073 125.824C216.257 125.824 216.409 125.884 216.529 126.004C216.649 126.116 216.709 126.26 216.709 126.436C216.709 126.604 216.649 126.752 216.529 126.88C216.409 127 216.257 127.06 216.073 127.06Z" fill="#3164E8"/>
<path d="M60.16 175.356H64.6V176.112H60.16V175.356ZM60.256 179.232H65.308V180H59.368V171.6H65.128V172.368H60.256V179.232ZM69.0316 180.06C68.4396 180.06 67.9836 179.9 67.6636 179.58C67.3436 179.26 67.1836 178.808 67.1836 178.224V172.308H68.0356V178.176C68.0356 178.544 68.1276 178.828 68.3116 179.028C68.5036 179.228 68.7756 179.328 69.1276 179.328C69.5036 179.328 69.8156 179.22 70.0636 179.004L70.3636 179.616C70.1956 179.768 69.9916 179.88 69.7516 179.952C69.5196 180.024 69.2796 180.06 69.0316 180.06ZM66.0556 174.408V173.7H69.9556V174.408H66.0556ZM76.7472 180.06C76.2272 180.06 75.7352 179.988 75.2712 179.844C74.8072 179.692 74.4432 179.504 74.1792 179.28L74.5632 178.608C74.8192 178.8 75.1472 178.968 75.5472 179.112C75.9472 179.248 76.3672 179.316 76.8072 179.316C77.4072 179.316 77.8392 179.224 78.1032 179.04C78.3672 178.848 78.4992 178.596 78.4992 178.284C78.4992 178.052 78.4232 177.872 78.2712 177.744C78.1272 177.608 77.9352 177.508 77.6952 177.444C77.4552 177.372 77.1872 177.312 76.8912 177.264C76.5952 177.216 76.2992 177.16 76.0032 177.096C75.7152 177.032 75.4512 176.94 75.2112 176.82C74.9712 176.692 74.7752 176.52 74.6232 176.304C74.4792 176.088 74.4072 175.8 74.4072 175.44C74.4072 175.096 74.5032 174.788 74.6952 174.516C74.8872 174.244 75.1672 174.032 75.5352 173.88C75.9112 173.72 76.3672 173.64 76.9032 173.64C77.3112 173.64 77.7192 173.696 78.1272 173.808C78.5352 173.912 78.8712 174.052 79.1352 174.228L78.7632 174.912C78.4832 174.72 78.1832 174.584 77.8632 174.504C77.5432 174.416 77.2232 174.372 76.9032 174.372C76.3352 174.372 75.9152 174.472 75.6432 174.672C75.3792 174.864 75.2472 175.112 75.2472 175.416C75.2472 175.656 75.3192 175.844 75.4632 175.98C75.6152 176.116 75.8112 176.224 76.0512 176.304C76.2992 176.376 76.5672 176.436 76.8552 176.484C77.1512 176.532 77.4432 176.592 77.7312 176.664C78.0272 176.728 78.2952 176.82 78.5352 176.94C78.7832 177.052 78.9792 177.216 79.1232 177.432C79.2752 177.64 79.3512 177.916 79.3512 178.26C79.3512 178.628 79.2472 178.948 79.0392 179.22C78.8392 179.484 78.5432 179.692 78.1512 179.844C77.7672 179.988 77.2992 180.06 76.7472 180.06ZM80.9146 180V173.7H81.7666V180H80.9146ZM81.3466 172.308C81.1706 172.308 81.0226 172.248 80.9026 172.128C80.7826 172.008 80.7226 171.864 80.7226 171.696C80.7226 171.528 80.7826 171.388 80.9026 171.276C81.0226 171.156 81.1706 171.096 81.3466 171.096C81.5226 171.096 81.6706 171.152 81.7906 171.264C81.9106 171.376 81.9706 171.516 81.9706 171.684C81.9706 171.86 81.9106 172.008 81.7906 172.128C81.6786 172.248 81.5306 172.308 81.3466 172.308ZM89.8458 180.06C89.2378 180.06 88.6898 179.924 88.2018 179.652C87.7218 179.372 87.3418 178.992 87.0618 178.512C86.7818 178.024 86.6418 177.468 86.6418 176.844C86.6418 176.212 86.7818 175.656 87.0618 175.176C87.3418 174.696 87.7218 174.32 88.2018 174.048C88.6818 173.776 89.2298 173.64 89.8458 173.64C90.4698 173.64 91.0218 173.776 91.5018 174.048C91.9898 174.32 92.3698 174.696 92.6418 175.176C92.9218 175.656 93.0618 176.212 93.0618 176.844C93.0618 177.468 92.9218 178.024 92.6418 178.512C92.3698 178.992 91.9898 179.372 91.5018 179.652C91.0138 179.924 90.4618 180.06 89.8458 180.06ZM89.8458 179.304C90.3018 179.304 90.7058 179.204 91.0578 179.004C91.4098 178.796 91.6858 178.508 91.8858 178.14C92.0938 177.764 92.1978 177.332 92.1978 176.844C92.1978 176.348 92.0938 175.916 91.8858 175.548C91.6858 175.18 91.4098 174.896 91.0578 174.696C90.7058 174.488 90.3058 174.384 89.8578 174.384C89.4098 174.384 89.0098 174.488 88.6578 174.696C88.3058 174.896 88.0258 175.18 87.8178 175.548C87.6098 175.916 87.5058 176.348 87.5058 176.844C87.5058 177.332 87.6098 177.764 87.8178 178.14C88.0258 178.508 88.3058 178.796 88.6578 179.004C89.0098 179.204 89.4058 179.304 89.8458 179.304ZM98.0173 173.64C98.5293 173.64 98.9773 173.74 99.3613 173.94C99.7533 174.132 100.057 174.428 100.273 174.828C100.497 175.228 100.609 175.732 100.609 176.34V180H99.7573V176.424C99.7573 175.76 99.5893 175.26 99.2533 174.924C98.9253 174.58 98.4613 174.408 97.8613 174.408C97.4133 174.408 97.0213 174.5 96.6853 174.684C96.3573 174.86 96.1013 175.12 95.9173 175.464C95.7413 175.8 95.6533 176.208 95.6533 176.688V180H94.8013V173.7H95.6173V175.428L95.4853 175.104C95.6853 174.648 96.0053 174.292 96.4453 174.036C96.8853 173.772 97.4093 173.64 98.0173 173.64ZM105.115 182.388C104.859 182.388 104.615 182.352 104.383 182.28C104.143 182.216 103.943 182.116 103.783 181.98L104.083 181.332C104.339 181.548 104.667 181.656 105.067 181.656C105.403 181.656 105.659 181.556 105.835 181.356C106.019 181.156 106.111 180.86 106.111 180.468V173.7H106.963V180.468C106.963 181.052 106.803 181.516 106.483 181.86C106.171 182.212 105.715 182.388 105.115 182.388ZM106.543 172.308C106.367 172.308 106.219 172.248 106.099 172.128C105.979 172.008 105.919 171.864 105.919 171.696C105.919 171.528 105.979 171.388 106.099 171.276C106.219 171.156 106.367 171.096 106.543 171.096C106.719 171.096 106.867 171.152 106.987 171.264C107.107 171.376 107.167 171.516 107.167 171.684C107.167 171.86 107.107 172.008 106.987 172.128C106.875 172.248 106.727 172.308 106.543 172.308ZM113.292 180V178.608L113.256 178.38V176.052C113.256 175.516 113.104 175.104 112.8 174.816C112.504 174.528 112.06 174.384 111.468 174.384C111.06 174.384 110.672 174.452 110.304 174.588C109.936 174.724 109.624 174.904 109.368 175.128L108.984 174.492C109.304 174.22 109.688 174.012 110.136 173.868C110.584 173.716 111.056 173.64 111.552 173.64C112.368 173.64 112.996 173.844 113.436 174.252C113.884 174.652 114.108 175.264 114.108 176.088V180H113.292ZM111.12 180.06C110.648 180.06 110.236 179.984 109.884 179.832C109.54 179.672 109.276 179.456 109.092 179.184C108.908 178.904 108.816 178.584 108.816 178.224C108.816 177.896 108.892 177.6 109.044 177.336C109.204 177.064 109.46 176.848 109.812 176.688C110.172 176.52 110.652 176.436 111.252 176.436H113.424V177.072H111.276C110.668 177.072 110.244 177.18 110.004 177.396C109.772 177.612 109.656 177.88 109.656 178.2C109.656 178.56 109.796 178.848 110.076 179.064C110.356 179.28 110.748 179.388 111.252 179.388C111.732 179.388 112.144 179.28 112.488 179.064C112.84 178.84 113.096 178.52 113.256 178.104L113.448 178.692C113.288 179.108 113.008 179.44 112.608 179.688C112.216 179.936 111.72 180.06 111.12 180.06ZM116.422 180V173.7H117.238V175.416L117.154 175.116C117.33 174.636 117.626 174.272 118.042 174.024C118.458 173.768 118.974 173.64 119.59 173.64V174.468C119.558 174.468 119.526 174.468 119.494 174.468C119.462 174.46 119.43 174.456 119.398 174.456C118.734 174.456 118.214 174.66 117.838 175.068C117.462 175.468 117.274 176.04 117.274 176.784V180H116.422ZM123.594 180.06C122.994 180.06 122.454 179.924 121.974 179.652C121.502 179.38 121.13 179.004 120.858 178.524C120.586 178.036 120.45 177.476 120.45 176.844C120.45 176.204 120.586 175.644 120.858 175.164C121.13 174.684 121.502 174.312 121.974 174.048C122.454 173.776 122.994 173.64 123.594 173.64C124.146 173.64 124.638 173.764 125.07 174.012C125.51 174.26 125.858 174.624 126.114 175.104C126.378 175.576 126.51 176.156 126.51 176.844C126.51 177.524 126.382 178.104 126.126 178.584C125.87 179.064 125.522 179.432 125.082 179.688C124.65 179.936 124.154 180.06 123.594 180.06ZM123.654 179.304C124.102 179.304 124.502 179.204 124.854 179.004C125.214 178.796 125.494 178.508 125.694 178.14C125.902 177.764 126.006 177.332 126.006 176.844C126.006 176.348 125.902 175.916 125.694 175.548C125.494 175.18 125.214 174.896 124.854 174.696C124.502 174.488 124.102 174.384 123.654 174.384C123.214 174.384 122.818 174.488 122.466 174.696C122.114 174.896 121.834 175.18 121.626 175.548C121.418 175.916 121.314 176.348 121.314 176.844C121.314 177.332 121.418 177.764 121.626 178.14C121.834 178.508 122.114 178.796 122.466 179.004C122.818 179.204 123.214 179.304 123.654 179.304ZM126.03 180V178.104L126.114 176.832L125.994 175.56V171.096H126.846V180H126.03ZM129.219 180V173.7H130.071V180H129.219ZM129.651 172.308C129.475 172.308 129.327 172.248 129.207 172.128C129.087 172.008 129.027 171.864 129.027 171.696C129.027 171.528 129.087 171.388 129.207 171.276C129.327 171.156 129.475 171.096 129.651 171.096C129.827 171.096 129.975 171.152 130.095 171.264C130.215 171.376 130.275 171.516 130.275 171.684C130.275 171.86 130.215 172.008 130.095 172.128C129.983 172.248 129.835 172.308 129.651 172.308ZM135.658 173.64C136.17 173.64 136.618 173.74 137.002 173.94C137.394 174.132 137.698 174.428 137.914 174.828C138.138 175.228 138.25 175.732 138.25 176.34V180H137.398V176.424C137.398 175.76 137.23 175.26 136.894 174.924C136.566 174.58 136.102 174.408 135.502 174.408C135.054 174.408 134.662 174.5 134.326 174.684C133.998 174.86 133.742 175.12 133.558 175.464C133.382 175.8 133.294 176.208 133.294 176.688V180H132.442V173.7H133.258V175.428L133.126 175.104C133.326 174.648 133.646 174.292 134.086 174.036C134.526 173.772 135.05 173.64 135.658 173.64ZM144.499 180V178.608L144.463 178.38V176.052C144.463 175.516 144.311 175.104 144.007 174.816C143.711 174.528 143.267 174.384 142.675 174.384C142.267 174.384 141.879 174.452 141.511 174.588C141.143 174.724 140.831 174.904 140.575 175.128L140.191 174.492C140.511 174.22 140.895 174.012 141.343 173.868C141.791 173.716 142.263 173.64 142.759 173.64C143.575 173.64 144.203 173.844 144.643 174.252C145.091 174.652 145.315 175.264 145.315 176.088V180H144.499ZM142.327 180.06C141.855 180.06 141.443 179.984 141.091 179.832C140.747 179.672 140.483 179.456 140.299 179.184C140.115 178.904 140.023 178.584 140.023 178.224C140.023 177.896 140.099 177.6 140.251 177.336C140.411 177.064 140.667 176.848 141.019 176.688C141.379 176.52 141.859 176.436 142.459 176.436H144.631V177.072H142.483C141.875 177.072 141.451 177.18 141.211 177.396C140.979 177.612 140.863 177.88 140.863 178.2C140.863 178.56 141.003 178.848 141.283 179.064C141.563 179.28 141.955 179.388 142.459 179.388C142.939 179.388 143.351 179.28 143.695 179.064C144.047 178.84 144.303 178.52 144.463 178.104L144.655 178.692C144.495 179.108 144.215 179.44 143.815 179.688C143.423 179.936 142.927 180.06 142.327 180.06ZM147.629 180V173.7H148.481V180H147.629ZM148.061 172.308C147.885 172.308 147.737 172.248 147.617 172.128C147.497 172.008 147.437 171.864 147.437 171.696C147.437 171.528 147.497 171.388 147.617 171.276C147.737 171.156 147.885 171.096 148.061 171.096C148.237 171.096 148.385 171.152 148.505 171.264C148.625 171.376 148.685 171.516 148.685 171.684C148.685 171.86 148.625 172.008 148.505 172.128C148.393 172.248 148.245 172.308 148.061 172.308ZM152.844 180.06C152.252 180.06 151.796 179.9 151.476 179.58C151.156 179.26 150.996 178.808 150.996 178.224V172.308H151.848V178.176C151.848 178.544 151.94 178.828 152.124 179.028C152.316 179.228 152.588 179.328 152.94 179.328C153.316 179.328 153.628 179.22 153.876 179.004L154.176 179.616C154.008 179.768 153.804 179.88 153.564 179.952C153.332 180.024 153.092 180.06 152.844 180.06ZM149.868 174.408V173.7H153.768V174.408H149.868ZM160.5 177.48C160.5 177.144 160.552 176.856 160.656 176.616C160.768 176.376 160.904 176.164 161.064 175.98C161.232 175.796 161.408 175.624 161.592 175.464C161.784 175.304 161.964 175.144 162.132 174.984C162.3 174.816 162.436 174.636 162.54 174.444C162.644 174.244 162.696 174.012 162.696 173.748C162.696 173.316 162.528 172.964 162.192 172.692C161.856 172.42 161.38 172.284 160.764 172.284C160.252 172.284 159.808 172.368 159.432 172.536C159.056 172.696 158.736 172.936 158.472 173.256L157.836 172.776C158.156 172.376 158.568 172.068 159.072 171.852C159.576 171.636 160.16 171.528 160.824 171.528C161.384 171.528 161.868 171.612 162.276 171.78C162.692 171.948 163.012 172.188 163.236 172.5C163.468 172.812 163.584 173.184 163.584 173.616C163.584 173.96 163.528 174.256 163.416 174.504C163.312 174.744 163.176 174.96 163.008 175.152C162.848 175.336 162.672 175.512 162.48 175.68C162.296 175.84 162.12 176.004 161.952 176.172C161.784 176.34 161.648 176.528 161.544 176.736C161.44 176.944 161.388 177.192 161.388 177.48H160.5ZM160.944 180.06C160.776 180.06 160.628 180 160.5 179.88C160.38 179.752 160.32 179.604 160.32 179.436C160.32 179.26 160.38 179.116 160.5 179.004C160.628 178.884 160.776 178.824 160.944 178.824C161.128 178.824 161.28 178.884 161.4 179.004C161.52 179.116 161.58 179.26 161.58 179.436C161.58 179.604 161.52 179.752 161.4 179.88C161.28 180 161.128 180.06 160.944 180.06Z" fill="#3164E8"/>
<g filter="url(#filter0_d_73_10)">
<circle cx="239.5" cy="123.5" r="14.5" fill="#3164E8"/>
<path d="M238 117L244 123.5L238 130" stroke="white" stroke-width="3"/>
</g>
<g filter="url(#filter1_d_73_10)">
<circle cx="239.5" cy="175.5" r="14.5" fill="#3164E8"/>
<path d="M238 169L244 175.5L238 182" stroke="white" stroke-width="3"/>
</g>
<g filter="url(#filter2_d_73_10)">
<rect x="106" y="239" width="86" height="24" rx="12" fill="#3164E8"/>
</g>
<g filter="url(#filter3_d_73_10)">
<rect x="47.5" y="109.5" width="206" height="28" rx="14" stroke="#3164E8" shape-rendering="crispEdges"/>
</g>
<g filter="url(#filter4_d_73_10)">
<rect x="47.5" y="161.5" width="206" height="28" rx="14" stroke="#3164E8" shape-rendering="crispEdges"/>
</g>
<path d="M126.982 254V248.4H129.078C129.553 248.4 129.961 248.477 130.302 248.632C130.644 248.781 130.905 249 131.086 249.288C131.273 249.571 131.366 249.915 131.366 250.32C131.366 250.715 131.273 251.056 131.086 251.344C130.905 251.627 130.644 251.845 130.302 252C129.961 252.155 129.553 252.232 129.078 252.232H127.31L127.574 251.952V254H126.982ZM127.574 252L127.31 251.712H129.062C129.622 251.712 130.046 251.592 130.334 251.352C130.628 251.107 130.774 250.763 130.774 250.32C130.774 249.872 130.628 249.525 130.334 249.28C130.046 249.035 129.622 248.912 129.062 248.912H127.31L127.574 248.632V252ZM132.605 254V248.064H133.173V254H132.605ZM136.489 254.04C136.132 254.04 135.82 253.973 135.553 253.84C135.286 253.707 135.078 253.507 134.929 253.24C134.785 252.973 134.713 252.64 134.713 252.24V249.8H135.281V252.176C135.281 252.624 135.39 252.963 135.609 253.192C135.833 253.416 136.145 253.528 136.545 253.528C136.838 253.528 137.092 253.469 137.305 253.352C137.524 253.229 137.689 253.053 137.801 252.824C137.918 252.595 137.977 252.32 137.977 252V249.8H138.545V254H138.001V252.848L138.089 253.056C137.956 253.365 137.748 253.608 137.465 253.784C137.188 253.955 136.862 254.04 136.489 254.04ZM141.256 254.04C140.909 254.04 140.581 253.992 140.272 253.896C139.963 253.795 139.72 253.669 139.544 253.52L139.8 253.072C139.971 253.2 140.189 253.312 140.456 253.408C140.723 253.499 141.003 253.544 141.296 253.544C141.696 253.544 141.984 253.483 142.16 253.36C142.336 253.232 142.424 253.064 142.424 252.856C142.424 252.701 142.373 252.581 142.272 252.496C142.176 252.405 142.048 252.339 141.888 252.296C141.728 252.248 141.549 252.208 141.352 252.176C141.155 252.144 140.957 252.107 140.76 252.064C140.568 252.021 140.392 251.96 140.232 251.88C140.072 251.795 139.941 251.68 139.84 251.536C139.744 251.392 139.696 251.2 139.696 250.96C139.696 250.731 139.76 250.525 139.888 250.344C140.016 250.163 140.203 250.021 140.448 249.92C140.699 249.813 141.003 249.76 141.36 249.76C141.632 249.76 141.904 249.797 142.176 249.872C142.448 249.941 142.672 250.035 142.848 250.152L142.6 250.608C142.413 250.48 142.213 250.389 142 250.336C141.787 250.277 141.573 250.248 141.36 250.248C140.981 250.248 140.701 250.315 140.52 250.448C140.344 250.576 140.256 250.741 140.256 250.944C140.256 251.104 140.304 251.229 140.4 251.32C140.501 251.411 140.632 251.483 140.792 251.536C140.957 251.584 141.136 251.624 141.328 251.656C141.525 251.688 141.72 251.728 141.912 251.776C142.109 251.819 142.288 251.88 142.448 251.96C142.613 252.035 142.744 252.144 142.84 252.288C142.941 252.427 142.992 252.611 142.992 252.84C142.992 253.085 142.923 253.299 142.784 253.48C142.651 253.656 142.453 253.795 142.192 253.896C141.936 253.992 141.624 254.04 141.256 254.04ZM149.55 254.04C149.155 254.04 148.851 253.933 148.638 253.72C148.424 253.507 148.318 253.205 148.318 252.816V248.872H148.886V252.784C148.886 253.029 148.947 253.219 149.07 253.352C149.198 253.485 149.379 253.552 149.614 253.552C149.864 253.552 150.072 253.48 150.238 253.336L150.438 253.744C150.326 253.845 150.19 253.92 150.03 253.968C149.875 254.016 149.715 254.04 149.55 254.04ZM147.566 250.272V249.8H150.166V250.272H147.566ZM154.104 254V253.072L154.08 252.92V251.368C154.08 251.011 153.978 250.736 153.776 250.544C153.578 250.352 153.282 250.256 152.888 250.256C152.616 250.256 152.357 250.301 152.112 250.392C151.866 250.483 151.658 250.603 151.488 250.752L151.232 250.328C151.445 250.147 151.701 250.008 152 249.912C152.298 249.811 152.613 249.76 152.944 249.76C153.488 249.76 153.906 249.896 154.2 250.168C154.498 250.435 154.648 250.843 154.648 251.392V254H154.104ZM152.656 254.04C152.341 254.04 152.066 253.989 151.832 253.888C151.602 253.781 151.426 253.637 151.304 253.456C151.181 253.269 151.12 253.056 151.12 252.816C151.12 252.597 151.17 252.4 151.272 252.224C151.378 252.043 151.549 251.899 151.784 251.792C152.024 251.68 152.344 251.624 152.744 251.624H154.192V252.048H152.76C152.354 252.048 152.072 252.12 151.912 252.264C151.757 252.408 151.68 252.587 151.68 252.8C151.68 253.04 151.773 253.232 151.96 253.376C152.146 253.52 152.408 253.592 152.744 253.592C153.064 253.592 153.338 253.52 153.568 253.376C153.802 253.227 153.973 253.013 154.08 252.736L154.208 253.128C154.101 253.405 153.914 253.627 153.648 253.792C153.386 253.957 153.056 254.04 152.656 254.04ZM156.19 254V249.8H156.734V250.944L156.678 250.744C156.796 250.424 156.993 250.181 157.27 250.016C157.548 249.845 157.892 249.76 158.302 249.76V250.312C158.281 250.312 158.26 250.312 158.238 250.312C158.217 250.307 158.196 250.304 158.174 250.304C157.732 250.304 157.385 250.44 157.134 250.712C156.884 250.979 156.758 251.36 156.758 251.856V254H156.19ZM160.972 254.04C160.572 254.04 160.212 253.949 159.892 253.768C159.577 253.587 159.329 253.336 159.148 253.016C158.966 252.691 158.876 252.317 158.876 251.896C158.876 251.469 158.966 251.096 159.148 250.776C159.329 250.456 159.577 250.208 159.892 250.032C160.212 249.851 160.572 249.76 160.972 249.76C161.34 249.76 161.668 249.843 161.956 250.008C162.249 250.173 162.481 250.416 162.652 250.736C162.828 251.051 162.916 251.437 162.916 251.896C162.916 252.349 162.83 252.736 162.66 253.056C162.489 253.376 162.257 253.621 161.964 253.792C161.676 253.957 161.345 254.04 160.972 254.04ZM161.012 253.536C161.31 253.536 161.577 253.469 161.812 253.336C162.052 253.197 162.238 253.005 162.372 252.76C162.51 252.509 162.58 252.221 162.58 251.896C162.58 251.565 162.51 251.277 162.372 251.032C162.238 250.787 162.052 250.597 161.812 250.464C161.577 250.325 161.31 250.256 161.012 250.256C160.718 250.256 160.454 250.325 160.22 250.464C159.985 250.597 159.798 250.787 159.66 251.032C159.521 251.277 159.452 251.565 159.452 251.896C159.452 252.221 159.521 252.509 159.66 252.76C159.798 253.005 159.985 253.197 160.22 253.336C160.454 253.469 160.718 253.536 161.012 253.536ZM162.596 254V252.736L162.652 251.888L162.572 251.04V248.064H163.14V254H162.596Z" fill="white"/>
<path d="M170 249L174 251.5L170 254" stroke="white" stroke-width="0.5"/>
<defs>
<filter id="filter0_d_73_10" x="221" y="109" width="37" height="37" filterUnits="userSpaceOnUse" color-interpolation-filters="sRGB">
<feFlood flood-opacity="0" result="BackgroundImageFix"/>
<feColorMatrix in="SourceAlpha" type="matrix" values="0 0 0 0 0 0 0 0 0 0 0 0 0 0 0 0 0 0 127 0" result="hardAlpha"/>
<feOffset dy="4"/>
<feGaussianBlur stdDeviation="2"/>
<feComposite in2="hardAlpha" operator="out"/>
<feColorMatrix type="matrix" values="0 0 0 0 0 0 0 0 0 0 0 0 0 0 0 0 0 0 0.1 0"/>
<feBlend mode="normal" in2="BackgroundImageFix" result="effect1_dropShadow_73_10"/>
<feBlend mode="normal" in="SourceGraphic" in2="effect1_dropShadow_73_10" result="shape"/>
</filter>
<filter id="filter1_d_73_10" x="221" y="161" width="37" height="37" filterUnits="userSpaceOnUse" color-interpolation-filters="sRGB">
<feFlood flood-opacity="0" result="BackgroundImageFix"/>
<feColorMatrix in="SourceAlpha" type="matrix" values="0 0 0 0 0 0 0 0 0 0 0 0 0 0 0 0 0 0 127 0" result="hardAlpha"/>
<feOffset dy="4"/>
<feGaussianBlur stdDeviation="2"/>
<feComposite in2="hardAlpha" operator="out"/>
<feColorMatrix type="matrix" values="0 0 0 0 0 0 0 0 0 0 0 0 0 0 0 0 0 0 0.1 0"/>
<feBlend mode="normal" in2="BackgroundImageFix" result="effect1_dropShadow_73_10"/>
<feBlend mode="normal" in="SourceGraphic" in2="effect1_dropShadow_73_10" result="shape"/>
</filter>
<filter id="filter2_d_73_10" x="102" y="239" width="94" height="32" filterUnits="userSpaceOnUse" color-interpolation-filters="sRGB">
<feFlood flood-opacity="0" result="BackgroundImageFix"/>
<feColorMatrix in="SourceAlpha" type="matrix" values="0 0 0 0 0 0 0 0 0 0 0 0 0 0 0 0 0 0 127 0" result="hardAlpha"/>
<feOffset dy="4"/>
<feGaussianBlur stdDeviation="2"/>
<feComposite in2="hardAlpha" operator="out"/>
<feColorMatrix type="matrix" values="0 0 0 0 0 0 0 0 0 0 0 0 0 0 0 0 0 0 0.1 0"/>
<feBlend mode="normal" in2="BackgroundImageFix" result="effect1_dropShadow_73_10"/>
<feBlend mode="normal" in="SourceGraphic" in2="effect1_dropShadow_73_10" result="shape"/>
</filter>
<filter id="filter3_d_73_10" x="43" y="109" width="215" height="37" filterUnits="userSpaceOnUse" color-interpolation-filters="sRGB">
<feFlood flood-opacity="0" result="BackgroundImageFix"/>
<feColorMatrix in="SourceAlpha" type="matrix" values="0 0 0 0 0 0 0 0 0 0 0 0 0 0 0 0 0 0 127 0" result="hardAlpha"/>
<feOffset dy="4"/>
<feGaussianBlur stdDeviation="2"/>
<feComposite in2="hardAlpha" operator="out"/>
<feColorMatrix type="matrix" values="0 0 0 0 0 0 0 0 0 0 0 0 0 0 0 0 0 0 0.1 0"/>
<feBlend mode="normal" in2="BackgroundImageFix" result="effect1_dropShadow_73_10"/>
<feBlend mode="normal" in="SourceGraphic" in2="effect1_dropShadow_73_10" result="shape"/>
</filter>
<filter id="filter4_d_73_10" x="43" y="161" width="215" height="37" filterUnits="userSpaceOnUse" color-interpolation-filters="sRGB">
<feFlood flood-opacity="0" result="BackgroundImageFix"/>
<feColorMatrix in="SourceAlpha" type="matrix" values="0 0 0 0 0 0 0 0 0 0 0 0 0 0 0 0 0 0 127 0" result="hardAlpha"/>
<feOffset dy="4"/>
<feGaussianBlur stdDeviation="2"/>
<feComposite in2="hardAlpha" operator="out"/>
<feColorMatrix type="matrix" values="0 0 0 0 0 0 0 0 0 0 0 0 0 0 0 0 0 0 0.1 0"/>
<feBlend mode="normal" in2="BackgroundImageFix" result="effect1_dropShadow_73_10"/>
<feBlend mode="normal" in="SourceGraphic" in2="effect1_dropShadow_73_10" result="shape"/>
</filter>
<clipPath id="clip0_73_10">
<rect width="62" height="62" fill="white" transform="translate(120)"/>
</clipPath>
<clipPath id="clip1_73_10">
<rect width="11" height="15" fill="white" transform="translate(146 24)"/>
</clipPath>
</defs>
</svg>
