<svg width="252" height="274" viewBox="0 0 252 274" fill="none" xmlns="http://www.w3.org/2000/svg">
<rect x="1.5" y="31.5" width="249" height="241" rx="32.5" fill="white" stroke="#3164E8" stroke-width="3"/>
<g clip-path="url(#clip0_53_2)">
<path d="M127 47.7246C136.237 47.7246 143.724 40.2368 143.724 31.0002C143.724 21.7636 136.237 14.2759 127 14.2759C117.763 14.2759 110.276 21.7636 110.276 31.0002C110.276 40.2368 117.763 47.7246 127 47.7246Z" fill="#3164E8"/>
<path d="M127 50.689C127.255 51.6336 127.392 52.5721 127.485 53.5168C127.578 54.4614 127.621 55.3999 127.621 56.3445C127.628 57.2892 127.578 58.2277 127.485 59.1723C127.392 60.117 127.261 61.0554 127 62.0001C126.739 61.0554 126.608 60.117 126.515 59.1723C126.422 58.2277 126.378 57.2892 126.378 56.3445C126.378 55.3999 126.428 54.4614 126.515 53.5168C126.608 52.5783 126.739 51.6336 127 50.689Z" fill="#3164E8"/>
<path d="M127 0C127.255 0.944667 127.392 1.88312 127.485 2.82779C127.578 3.77245 127.621 4.71091 127.621 5.65557C127.628 6.60024 127.578 7.53869 127.485 8.48336C127.392 9.42803 127.261 10.3665 127 11.3111C126.739 10.3665 126.608 9.42803 126.515 8.48336C126.422 7.53869 126.378 6.60024 126.378 5.65557C126.378 4.71091 126.428 3.77245 126.515 2.82779C126.608 1.88312 126.739 0.944667 127 0Z" fill="#3164E8"/>
<path d="M146.689 30.9999C147.634 30.7451 148.572 30.6084 149.517 30.5152C150.461 30.422 151.4 30.3784 152.344 30.3784C153.289 30.3722 154.228 30.422 155.172 30.5152C156.117 30.6084 157.055 30.7389 158 30.9999C157.055 31.261 156.117 31.3915 155.172 31.4847C154.228 31.5779 153.289 31.6214 152.344 31.6214C151.4 31.6214 150.461 31.5717 149.517 31.4847C148.578 31.3915 147.634 31.2548 146.689 30.9999Z" fill="#3164E8"/>
<path d="M96 30.9999C96.9447 30.7451 97.8831 30.6084 98.8278 30.5152C99.7725 30.422 100.711 30.3784 101.656 30.3784C102.6 30.3722 103.539 30.422 104.483 30.5152C105.428 30.6084 106.366 30.7389 107.311 30.9999C106.366 31.261 105.428 31.3915 104.483 31.4847C103.539 31.5779 102.6 31.6214 101.656 31.6214C100.711 31.6214 99.7725 31.5717 98.8278 31.4847C97.8831 31.3915 96.9447 31.2548 96 30.9999Z" fill="#3164E8"/>
<path d="M140.921 44.9214C141.767 45.4062 142.531 45.9779 143.264 46.5808C143.998 47.1836 144.694 47.8175 145.359 48.4825C146.03 49.1475 146.658 49.8498 147.261 50.577C147.863 51.3103 148.435 52.0685 148.914 52.92C148.062 52.4352 147.304 51.8634 146.571 51.2668C145.844 50.664 145.141 50.0363 144.476 49.3651C143.811 48.7001 143.177 47.9978 142.575 47.2706C141.978 46.531 141.406 45.7728 140.921 44.9214Z" fill="#3164E8"/>
<path d="M105.08 9.08008C105.925 9.56484 106.69 10.1366 107.423 10.7395C108.156 11.3423 108.852 11.9762 109.517 12.6412C110.189 13.3062 110.816 14.0085 111.419 14.7357C112.022 15.469 112.594 16.2272 113.072 17.0787C112.221 16.5939 111.463 16.0221 110.729 15.4255C110.002 14.8227 109.3 14.195 108.635 13.5237C107.97 12.8587 107.336 12.1565 106.733 11.4293C106.137 10.6897 105.565 9.92531 105.08 9.08008Z" fill="#3164E8"/>
<path d="M140.921 17.0725C141.406 16.2272 141.978 15.4628 142.581 14.7294C143.184 13.9961 143.818 13.3 144.483 12.635C145.148 11.9638 145.85 11.3361 146.577 10.7332C147.31 10.1304 148.069 9.55863 148.92 9.08008C148.435 9.93152 147.863 10.6897 147.267 11.4231C146.664 12.1502 146.036 12.8525 145.365 13.5175C144.7 14.1825 143.998 14.8164 143.271 15.4193C142.531 16.0159 141.773 16.5877 140.921 17.0725Z" fill="#3164E8"/>
<path d="M105.08 52.9201C105.565 52.0749 106.137 51.3105 106.739 50.5771C107.342 49.8437 107.976 49.1477 108.641 48.4827C109.306 47.8115 110.008 47.1837 110.736 46.5809C111.469 45.9781 112.227 45.4063 113.079 44.9277C112.594 45.7792 112.022 46.5374 111.425 47.2708C110.823 47.9979 110.195 48.7002 109.524 49.3652C108.859 50.0302 108.156 50.6641 107.429 51.2669C106.69 51.8636 105.925 52.4354 105.08 52.9201Z" fill="#3164E8"/>
<path d="M134.93 49.1909C135.527 49.9616 136.012 50.7819 136.459 51.6147C136.907 52.4475 137.311 53.3052 137.671 54.1753C138.038 55.0454 138.348 55.9341 138.628 56.8415C138.902 57.7489 139.138 58.6687 139.262 59.6382C138.665 58.8675 138.174 58.0472 137.733 57.2144C137.292 56.3754 136.882 55.5239 136.527 54.6538C136.167 53.7837 135.85 52.895 135.577 51.9876C135.284 51.0803 135.048 50.1604 134.93 49.1909Z" fill="#3164E8"/>
<path d="M115.527 2.36182C116.124 3.13247 116.609 3.95283 117.056 4.78563C117.504 5.61843 117.908 6.47609 118.268 7.34618C118.635 8.21627 118.945 9.105 119.225 10.0124C119.499 10.9198 119.735 11.8396 119.859 12.8091C119.262 12.0384 118.771 11.2181 118.33 10.3853C117.889 9.54626 117.479 8.69482 117.125 7.82473C116.764 6.95464 116.447 6.06591 116.174 5.15853C115.888 4.25115 115.652 3.33134 115.527 2.36182Z" fill="#3164E8"/>
<path d="M145.583 23.4612C146.353 22.8646 147.174 22.3798 148.006 21.9323C148.839 21.4848 149.697 21.0809 150.567 20.7204C151.437 20.3599 152.326 20.043 153.233 19.7633C154.141 19.4899 155.06 19.2537 156.03 19.1294C155.259 19.726 154.439 20.217 153.606 20.6583C152.767 21.0995 151.916 21.5097 151.045 21.864C150.175 22.2244 149.287 22.5414 148.379 22.8148C147.478 23.1007 146.552 23.3369 145.583 23.4612Z" fill="#3164E8"/>
<path d="M98.7532 42.8645C99.5239 42.2679 100.344 41.7831 101.177 41.3356C102.01 40.8882 102.868 40.4842 103.738 40.1237C104.608 39.7571 105.496 39.4463 106.404 39.1666C107.311 38.8932 108.231 38.657 109.201 38.5327C108.43 39.1293 107.609 39.6203 106.777 40.0616C105.938 40.5028 105.086 40.913 104.216 41.2673C103.346 41.6277 102.457 41.9447 101.55 42.2182C100.643 42.504 99.7228 42.7402 98.7532 42.8645Z" fill="#3164E8"/>
<path d="M145.583 38.5327C146.552 38.657 147.472 38.8932 148.379 39.1666C149.287 39.4463 150.175 39.7571 151.045 40.1175C151.916 40.478 152.767 40.882 153.606 41.3232C154.439 41.7707 155.259 42.2554 156.03 42.8521C155.06 42.7278 154.141 42.4978 153.233 42.2182C152.326 41.9385 151.437 41.6277 150.567 41.2611C149.697 40.9006 148.845 40.4966 148.006 40.0492C147.174 39.6203 146.359 39.1356 145.583 38.5327Z" fill="#3164E8"/>
<path d="M98.7532 19.1357C99.7228 19.26 100.643 19.4962 101.55 19.7697C102.457 20.0431 103.346 20.3601 104.216 20.7205C105.086 21.081 105.938 21.485 106.777 21.9262C107.609 22.3737 108.43 22.8585 109.201 23.4551C108.231 23.3308 107.311 23.1009 106.404 22.8212C105.496 22.5415 104.608 22.2308 103.738 21.8641C102.868 21.5036 102.016 21.0997 101.177 20.6522C100.344 20.2171 99.5239 19.7324 98.7532 19.1357Z" fill="#3164E8"/>
<path d="M134.93 12.8027C135.055 11.8332 135.291 10.9134 135.564 10.006C135.838 9.09865 136.155 8.20992 136.515 7.33983C136.876 6.46974 137.279 5.6183 137.721 4.77929C138.168 3.94649 138.653 3.12612 139.25 2.35547C139.125 3.325 138.895 4.2448 138.616 5.15218C138.336 6.05956 138.025 6.94829 137.659 7.81838C137.298 8.68847 136.894 9.53991 136.447 10.3789C136.012 11.2117 135.527 12.0321 134.93 12.8027Z" fill="#3164E8"/>
<path d="M115.527 59.6382C115.652 58.6687 115.888 57.7489 116.161 56.8415C116.435 55.9341 116.752 55.0454 117.112 54.1753C117.473 53.3052 117.877 52.4537 118.318 51.6147C118.765 50.7819 119.25 49.9616 119.847 49.1909C119.722 50.1604 119.492 51.0803 119.213 51.9876C118.933 52.895 118.622 53.7837 118.256 54.6538C117.895 55.5239 117.491 56.3754 117.044 57.2144C116.615 58.0472 116.13 58.8675 115.527 59.6382Z" fill="#3164E8"/>
</g>
<g clip-path="url(#clip1_53_2)">
<path d="M129.484 24.013L124.545 24L122 31.5717H125.932L122.298 39L133 28.848L127.237 28.861L129.484 24.013Z" fill="white"/>
</g>
<defs>
<clipPath id="clip0_53_2">
<rect width="62" height="62" fill="white" transform="translate(96)"/>
</clipPath>
<clipPath id="clip1_53_2">
<rect width="11" height="15" fill="white" transform="translate(122 24)"/>
</clipPath>
</defs>
</svg>
