<svg width="393" height="263" viewBox="0 0 393 263" fill="none" xmlns="http://www.w3.org/2000/svg">
<rect y="36" width="393" height="318" rx="34" fill="#3164E8"/>
<circle cx="198" cy="53" r="51" fill="white" stroke="#3164E8" stroke-width="4"/>
<g clip-path="url(#clip0_64_9)">
<path d="M173.84 77.8527C172.162 78.5044 170.519 76.7829 171.129 75.0246C172.127 72.1965 173.077 69.4791 174.04 66.7494C177.009 58.3143 179.979 49.8793 182.96 41.4565C183.347 40.3499 183.547 39.1695 185.542 38.7637C187.103 38.444 188.723 38.9973 189.85 40.1777C194.944 45.5019 200.014 50.8384 205.096 56.1625C205.906 57.011 206.716 57.8594 207.526 58.7078C210.049 61.3637 209.533 63.9582 206.2 65.2616C198.911 68.1019 191.622 70.9546 184.322 73.7827C180.871 75.1353 177.42 76.4755 173.84 77.8527Z" fill="#3164E8"/>
<path d="M219.568 29.8615C219.169 30.1566 218.852 30.5746 218.453 30.673C217.526 30.8943 217.021 31.4231 216.786 32.3822C216.692 32.7756 216.34 33.2798 216.023 33.3658C215.753 33.4273 215.225 33.0461 215.038 32.7141C214.521 31.8042 213.84 31.46 212.854 31.5583C212.526 31.5829 211.939 31.3739 211.869 31.1403C211.763 30.796 211.904 30.2304 212.138 29.9353C212.761 29.1729 212.89 28.4474 212.514 27.5252C212.373 27.1687 212.361 26.5293 212.573 26.2956C212.784 26.062 213.394 26.0374 213.746 26.1727C214.662 26.517 215.366 26.4432 216.141 25.73C216.939 25.0046 217.702 25.3365 217.667 26.3571C217.631 27.599 217.948 28.472 219.052 29.0253C219.239 29.1237 219.333 29.4557 219.568 29.8615Z" fill="#3164E8"/>
<path d="M195.296 34.7672C195.648 33.8081 195.307 33.0089 194.486 32.2342C193.711 31.4965 193.922 30.7956 194.967 30.6234C196 30.4636 196.716 30.0947 197.162 29.0004C197.573 27.9798 198.347 27.9798 198.758 28.9881C199.204 30.0701 199.885 30.4636 200.93 30.6234C201.974 30.7833 202.197 31.4842 201.422 32.2342C200.66 32.972 200.39 33.6851 200.566 34.7795C200.789 36.1075 200.284 36.4763 199.169 35.8246C198.3 35.3205 197.596 35.3205 196.728 35.8246C195.648 36.464 195.237 36.1443 195.296 34.7672Z" fill="#3164E8"/>
<path d="M212.361 43.0918C211.681 44.223 211.986 45.1944 212.761 46.1904C213.312 46.8913 212.866 47.5552 212.138 47.5184C210.906 47.4569 210.108 47.8504 209.427 48.9693C208.969 49.7193 208.195 49.6087 207.995 48.6619C207.725 47.42 207.092 46.8175 205.93 46.4978C205.026 46.2519 205.026 45.4526 205.73 44.9731C206.692 44.3214 207.08 43.5713 207.021 42.3663C206.962 41.272 207.631 40.94 208.453 41.6286C209.298 42.3417 210.073 42.5385 211.094 42.0712C211.869 41.7146 212.338 42.1081 212.361 43.0918Z" fill="#3164E8"/>
<path d="M226 33.4888C225.977 34.9889 224.979 35.9972 223.57 35.948C222.244 35.8988 221.282 34.866 221.27 33.4519C221.258 32.001 222.291 30.919 223.676 30.9313C225.096 30.9436 226.024 31.9518 226 33.4888Z" fill="#3164E8"/>
<path d="M218.195 50.8135C218.195 51.5881 218.195 52.2521 218.195 53.0391C215.707 53.0391 213.23 53.0391 210.671 53.0391C210.671 52.3136 210.671 51.6127 210.671 50.8135C213.148 50.8135 215.589 50.8135 218.195 50.8135Z" fill="#3164E8"/>
<path d="M202.467 41.2229C202.479 42.6984 201.446 43.7928 200.073 43.7559C198.77 43.7313 197.761 42.6369 197.737 41.2598C197.725 39.7966 198.758 38.7268 200.167 38.7514C201.54 38.776 202.467 39.772 202.467 41.2229Z" fill="#3164E8"/>
<path d="M209.099 25.447C209.11 26.9717 208.171 27.9554 206.716 27.9431C205.354 27.9308 204.369 26.9225 204.345 25.5331C204.333 24.0944 205.39 22.9878 206.763 23.0001C208.113 23.0124 209.075 24.033 209.099 25.447Z" fill="#3164E8"/>
<path d="M211.458 36.1692C211.469 37.4971 210.413 38.6407 209.145 38.6776C207.854 38.7144 206.704 37.4971 206.716 36.12C206.728 34.8166 207.831 33.71 209.11 33.7223C210.437 33.7223 211.446 34.792 211.458 36.1692Z" fill="#3164E8"/>
<path d="M217.89 42.9689C219.145 42.9566 220.225 44.0755 220.261 45.4158C220.296 46.7683 219.286 47.8873 217.995 47.9241C216.645 47.9733 215.53 46.8421 215.542 45.4526C215.554 44.137 216.645 42.9934 217.89 42.9689Z" fill="#3164E8"/>
<path d="M205.8 30.5498C205.378 30.9678 204.897 31.472 204.439 31.9269C202.678 30.0702 200.918 28.2258 199.04 26.2585C199.509 25.8281 200.026 25.3486 200.448 24.9551C202.197 26.7872 203.958 28.6193 205.8 30.5498Z" fill="#3164E8"/>
<path d="M217.608 34.792C217.948 35.1486 218.406 35.6404 218.746 35.997C216.986 37.8537 215.225 39.6981 213.359 41.6778C213.113 41.3581 212.678 40.8047 212.338 40.3744C214.04 38.5792 215.789 36.7225 217.608 34.792Z" fill="#3164E8"/>
</g>
<defs>
<clipPath id="clip0_64_9">
<rect width="55" height="55" fill="white" transform="translate(171 23)"/>
</clipPath>
</defs>
</svg>
