<svg width="19" height="22" viewBox="0 0 19 22" fill="none" xmlns="http://www.w3.org/2000/svg">
<g clip-path="url(#clip0_34_1762)">
<path d="M8.56006 21.1098V17.1098C11.9301 17.1098 14.6601 14.3698 14.6601 11.0098H18.6601C18.6701 16.5798 14.1301 21.1098 8.56006 21.1098Z" fill="white"/>
<path d="M3.46 6.92C5.37091 6.92 6.92 5.37091 6.92 3.46C6.92 1.54909 5.37091 0 3.46 0C1.54909 0 0 1.54909 0 3.46C0 5.37091 1.54909 6.92 3.46 6.92Z" fill="white"/>
<path d="M13.67 6.92C15.5809 6.92 17.13 5.37091 17.13 3.46C17.13 1.54909 15.5809 0 13.67 0C11.7591 0 10.21 1.54909 10.21 3.46C10.21 5.37091 11.7591 6.92 13.67 6.92Z" fill="white"/>
</g>
<defs>
<clipPath id="clip0_34_1762">
<rect width="18.67" height="21.11" fill="white"/>
</clipPath>
</defs>
</svg>
