<svg width="29" height="30" viewBox="0 0 29 30" fill="none" xmlns="http://www.w3.org/2000/svg">
<g clip-path="url(#clip0_36_1851)">
<path d="M12.9999 30.1879V24.5034C17.8237 24.5034 21.7314 20.6095 21.7314 15.8345H27.457C27.457 23.7502 20.9728 30.1879 12.9999 30.1879Z" fill="#3164E8"/>
<path d="M7.22849 9.8342C9.96375 9.8342 12.1811 7.63274 12.1811 4.9171C12.1811 2.20146 9.96375 0 7.22849 0C4.49324 0 2.27588 2.20146 2.27588 4.9171C2.27588 7.63274 4.49324 9.8342 7.22849 9.8342Z" fill="#3164E8"/>
<path d="M19.9526 9.8342C22.6879 9.8342 24.9052 7.63274 24.9052 4.9171C24.9052 2.20146 22.6879 0 19.9526 0C17.2174 0 15 2.20146 15 4.9171C15 7.63274 17.2174 9.8342 19.9526 9.8342Z" fill="#3164E8"/>
</g>
<defs>
<clipPath id="clip0_36_1851">
<rect width="29" height="30" fill="white"/>
</clipPath>
</defs>
</svg>
