<svg width="17" height="17" viewBox="0 0 17 17" fill="none" xmlns="http://www.w3.org/2000/svg">
<path d="M8 16.7063V13.4851C10.8277 13.4851 13.1185 11.2786 13.1185 8.57275H16.4748C16.4748 13.0583 12.6737 16.7063 8 16.7063Z" fill="#3164E8"/>
<path d="M4.23736 5.57271C5.84079 5.57271 7.14062 4.32522 7.14062 2.78636C7.14062 1.24749 5.84079 0 4.23736 0C2.63394 0 1.33411 1.24749 1.33411 2.78636C1.33411 4.32522 2.63394 5.57271 4.23736 5.57271Z" fill="#3164E8"/>
<path d="M11.9033 5.57271C13.5067 5.57271 14.8065 4.32522 14.8065 2.78636C14.8065 1.24749 13.5067 0 11.9033 0C10.2998 0 9 1.24749 9 2.78636C9 4.32522 10.2998 5.57271 11.9033 5.57271Z" fill="#3164E8"/>
</svg>
