<svg width="29" height="35" viewBox="0 0 29 35" fill="none" xmlns="http://www.w3.org/2000/svg">
<g clip-path="url(#clip0_46_281)">
<path d="M3.44018 10.9835C3.25865 11.022 3.17011 11.0478 3.08156 11.0606C2.01453 11.202 1.19102 11.7077 0.757128 12.6677C0.513617 13.2034 0.345372 13.7862 0.26125 14.369C0.0221663 16.0147 0.24354 17.6475 0.500334 19.2717C0.619876 20.0302 0.854533 20.7802 0.87667 21.543C0.94751 23.9772 1.61163 26.2486 2.72293 28.4085C3.81652 30.5341 5.25545 32.4026 7.35408 33.7054C9.61209 35.1068 12.0339 35.3811 14.562 34.5111C16.2312 33.9368 17.2539 32.6897 17.9933 31.1941C18.3032 30.5641 18.5733 29.917 18.8832 29.287C18.9674 29.1199 19.109 28.9399 19.2729 28.8585C20.8623 28.0485 22.164 26.9128 23.1558 25.4815C25.7591 21.723 26.4941 17.6903 24.8648 13.3662C24.6478 12.792 24.3379 12.252 24.0545 11.6734C24.1608 11.6306 24.2715 11.592 24.3777 11.5449C25.4005 11.0863 26.4631 10.6921 27.4327 10.1478C28.4377 9.58639 29.0045 8.66928 28.9912 7.51219C28.9735 6.25224 28.2606 5.35227 27.2423 4.65373C25.9893 3.79234 24.1741 3.99376 23.2266 4.94515C22.7042 5.47227 22.1064 5.93511 21.5353 6.41937C21.3493 6.57794 21.1501 6.71508 20.9509 6.86507C19.6448 5.35227 17.9845 4.58088 16.0231 4.32803C16.0585 4.23375 16.0762 4.15232 16.1161 4.08375C16.7138 3.00808 17.5373 2.18526 18.7903 1.84242C19.2817 1.70957 19.5872 1.33672 19.5872 0.886742C19.5872 0.505329 19.3171 0.136772 18.9009 0.0467758C18.6751 -0.000365118 18.4139 -0.0089362 18.1925 0.0553469C17.7808 0.171056 17.3602 0.303908 16.9927 0.5139C15.5848 1.3153 14.5664 2.44668 14.106 3.98947C14.0351 4.24232 13.858 4.24232 13.6588 4.26803C13.402 4.3066 13.4153 4.11804 13.3622 3.96804C13.1851 3.44949 13.0478 2.90952 12.8043 2.42525C12.6006 2.01812 12.2996 1.63671 11.9764 1.30244C11.693 1.01102 11.3034 0.95531 10.9182 1.17816C10.533 1.39672 10.3913 1.74814 10.4976 2.13383C10.6171 2.57524 10.8164 3.0038 11.0067 3.42378C11.1838 3.82234 11.3875 4.21232 11.5912 4.62802C10.0061 5.21514 8.78415 6.15796 7.77026 7.43076C7.70385 7.26363 7.65514 7.14363 7.61087 7.02792C7.19911 5.93511 6.76965 4.85087 6.38888 3.74948C6.14537 3.05094 5.63178 2.75095 4.92339 2.72524C3.3472 2.66953 1.9924 3.20522 0.916517 4.31089C0.588884 4.64945 0.323235 5.08228 0.150563 5.51512C-0.15936 6.29081 0.0265937 6.99364 0.664151 7.58504C1.08919 7.97931 1.5098 8.38215 1.86843 8.83213C2.40858 9.50925 2.89117 10.2292 3.44018 10.9835Z" fill="white"/>
<path d="M3.44015 10.9837C2.89115 10.2295 2.40855 9.50952 1.86397 8.8324C1.50534 8.38242 1.08031 7.97958 0.659695 7.58531C0.0221381 6.99391 -0.163816 6.29108 0.146108 5.51539C0.318779 5.08255 0.584428 4.64543 0.912062 4.31116C1.99237 3.20549 3.34275 2.6698 4.91893 2.72551C5.62733 2.75122 6.14092 3.04692 6.38443 3.74975C6.76962 4.85114 7.19908 5.93538 7.60641 7.02819C7.65069 7.14818 7.69939 7.26389 7.7658 7.43103C8.7797 6.15394 10.0017 5.21112 11.5867 4.62829C11.3831 4.21688 11.1794 3.82689 11.0023 3.42834C10.8163 3.00407 10.6171 2.5798 10.4931 2.13839C10.3869 1.75269 10.5285 1.40128 10.9137 1.18271C11.3034 0.959866 11.693 1.01986 11.9719 1.30699C12.2951 1.64127 12.5918 2.01839 12.7998 2.42981C13.0434 2.91836 13.185 3.45405 13.3577 3.9726C13.4108 4.12259 13.3976 4.30687 13.6544 4.27259C13.858 4.24259 14.0351 4.24259 14.1148 3.98117C14.5797 2.43838 15.5936 1.30699 17.0015 0.505599C17.369 0.295607 17.7896 0.162756 18.2014 0.0470461C18.4227 -0.017237 18.684 -0.0086659 18.9098 0.038475C19.326 0.128471 19.596 0.497028 19.596 0.878441C19.596 1.33271 19.2905 1.70126 18.7991 1.83412C17.5461 2.17696 16.7226 2.99978 16.1249 4.07545C16.085 4.14402 16.0673 4.22545 16.0319 4.31973C17.9933 4.57258 19.658 5.34397 20.9597 6.85677C21.1545 6.70677 21.3582 6.56964 21.5441 6.41107C22.1153 5.92681 22.7085 5.46397 23.2354 4.93685C24.1829 3.98546 25.9982 3.78404 27.2511 4.64543C28.2695 5.34826 28.9823 6.24822 29 7.50388C29.0133 8.65669 28.4466 9.57809 27.4415 10.1395C26.4719 10.6838 25.4093 11.078 24.3866 11.5366C24.2803 11.5837 24.1696 11.6223 24.0634 11.6651C24.3423 12.2437 24.6566 12.7837 24.8736 13.3579C26.4985 17.682 25.7679 21.7147 23.1646 25.4732C22.1728 26.9045 20.8711 28.0402 19.2817 28.8502C19.1179 28.9316 18.9762 29.1116 18.8921 29.2787C18.5821 29.9087 18.3121 30.5558 18.0021 31.1858C17.2627 32.6814 16.2356 33.9285 14.5708 34.5028C12.0427 35.377 9.62092 35.0985 7.3629 33.6971C5.26427 32.3943 3.82534 30.5301 2.73176 28.4002C1.62046 26.2403 0.956337 23.9689 0.885497 21.5347C0.86336 20.7762 0.628703 20.0219 0.509161 19.2634C0.252367 17.6392 0.0265657 16.0064 0.270077 14.3607C0.354199 13.7822 0.526871 13.1951 0.765955 12.6594C1.19985 11.6994 2.02336 11.1937 3.09038 11.0523C3.17008 11.048 3.25863 11.0223 3.44015 10.9837ZM22.1507 12.6037C21.885 12.7022 21.646 12.7837 21.4157 12.8822C19.782 13.5636 19.8307 13.2251 19.326 15.2521C19.0116 16.5121 18.9186 17.8235 18.6308 19.092C17.7852 22.8075 15.5803 25.5331 12.1092 27.3031C11.9852 27.3674 11.8435 27.4188 11.7018 27.4316C11.2812 27.4831 10.8429 27.2002 10.7234 26.8188C10.564 26.326 10.7853 25.8589 11.3034 25.606C13.6411 24.4789 15.2084 22.6704 16.24 20.3862C16.2577 20.3476 16.2577 20.3048 16.2577 20.3091C15.629 20.3476 15.0092 20.4419 14.3937 20.4162C13.2515 20.3648 12.1933 20.0305 11.3388 19.2548C10.3382 18.3463 10.3116 17.2063 11.1617 16.1692C11.7195 15.4878 12.2021 14.7464 12.6803 14.0136C12.9282 13.6365 12.9548 13.2294 12.5873 12.8651C12.4722 12.7537 12.4014 12.5951 12.3217 12.4537C11.2325 10.5295 12.884 8.63098 14.407 8.45956C15.4076 8.34814 16.4127 8.24957 17.4133 8.121C18.0154 8.04386 18.6087 7.9153 19.2241 7.80387C19.1754 7.72245 19.1666 7.68816 19.14 7.66245C19.0559 7.58102 18.9673 7.4996 18.8788 7.42246C17.7321 6.44536 16.3463 6.15394 14.8719 6.08966C13.4994 6.03394 12.2995 6.44536 11.2192 7.24675C10.3382 7.90244 9.60763 8.68241 9.07634 9.62523C7.99603 11.528 7.73038 13.5765 7.91634 15.7107C8.06687 17.4292 7.55328 18.8649 5.97267 19.8162C5.69817 19.9834 5.40595 20.1291 5.14916 20.3176C4.60458 20.7119 4.03344 21.089 3.54641 21.5476C2.70962 22.3404 2.70519 22.3661 2.90443 23.4932C3.40031 26.3003 4.56916 28.8073 6.57038 30.9115C8.0226 32.4371 9.78031 33.38 12.0029 33.3071C13.734 33.2514 15.0844 32.5657 15.9256 31.0615C16.1337 30.6929 16.3108 30.3115 16.5012 29.9344C16.727 29.4844 16.9307 29.0259 17.1653 28.5802C17.4531 28.0402 17.8693 27.6245 18.4582 27.3631C18.8035 27.2088 19.109 26.9688 19.4366 26.776C19.6536 26.6474 19.6934 26.4717 19.6669 26.2445C19.4898 24.8603 19.5296 23.4761 19.8218 22.109C19.9237 21.6333 20.0609 21.1576 20.2424 20.7033C20.8579 19.1648 21.8186 18.012 23.7357 17.9563C23.7579 16.0235 23.2221 14.2622 22.1507 12.6037ZM22.8724 7.8853C22.8325 7.90672 22.7794 7.93672 22.7307 7.96244C20.2424 9.32524 17.6125 10.2466 14.7214 10.3495C14.5753 10.3538 14.4115 10.4138 14.2919 10.4952C13.7208 10.8809 13.6632 11.4209 14.1325 11.9223C14.4115 12.2223 14.7656 12.5008 14.7568 12.9465C14.7524 13.3494 14.7347 13.7651 14.624 14.1508C14.2786 15.3636 13.5437 16.375 12.7423 17.3435C12.4545 17.6906 12.4634 17.7549 12.8397 18.0206C13.8005 18.6977 15.4253 18.7491 16.4304 18.1277C16.7182 17.952 16.8864 17.7249 16.9484 17.3778C17.1122 16.4607 17.3247 15.5564 17.5151 14.6436C17.8826 12.8565 18.8434 11.6137 20.7383 11.0909C21.8629 10.7823 22.9388 10.3023 24.0279 9.90379C23.6472 9.23524 23.262 8.5667 22.8724 7.8853ZM2.51038 19.9062C3.42244 19.3277 4.29466 18.7963 5.14031 18.2306C5.73359 17.832 5.99038 17.2363 6.0258 16.5507C6.04351 16.2507 6.05237 15.9421 6.02137 15.6421C5.9284 14.7079 5.58748 13.8851 4.85695 13.2379C4.33008 12.7708 3.72794 12.7022 3.09924 13.0237C2.40855 13.3751 2.20931 13.9922 2.11634 14.6736C1.88611 16.4264 2.22702 18.1406 2.51038 19.9062ZM5.94611 11.7894C5.9771 11.7809 6.00809 11.7766 6.03908 11.768C6.10992 11.4637 6.12763 11.1423 6.25603 10.8637C6.64565 10.0238 6.52168 9.2481 6.09664 8.45527C5.85313 7.99672 5.7026 7.49531 5.52107 7.02819C4.85695 7.38389 4.21939 7.72673 3.6084 8.05672C4.38763 9.29524 5.16687 10.5423 5.94611 11.7894ZM27.0873 7.68388C27.0652 6.65535 26.0026 5.77681 25.0551 6.02109C24.9311 6.05109 24.785 6.18394 24.7452 6.29965C24.4397 7.20818 25.0064 8.4767 25.8963 8.88383C25.9937 8.93097 26.1354 8.95668 26.2328 8.92668C26.6756 8.78098 27.1006 8.151 27.0873 7.68388ZM21.5884 24.5946C22.6023 23.1632 23.3373 21.629 23.5985 19.8891C23.0273 19.902 22.7307 20.2234 22.4916 20.5919C21.6902 21.8176 21.5485 23.189 21.5884 24.5946ZM1.90824 6.20537C2.76718 6.32536 3.55527 6.20108 4.20168 5.64396C4.4142 5.45968 4.52931 5.15541 4.66214 4.88971C4.73741 4.73543 4.65771 4.62829 4.4629 4.61543C3.89176 4.58115 3.33389 4.64114 2.83359 4.93256C2.34214 5.21969 1.99237 5.61396 1.90824 6.20537Z" fill="#3164E8"/>
<path d="M22.1507 12.6035C23.2221 14.262 23.7579 16.0276 23.7446 17.9561C21.8319 18.0118 20.8667 19.1647 20.2513 20.7032C20.0698 21.1574 19.937 21.6331 19.8307 22.1088C19.5385 23.4759 19.4986 24.8601 19.6757 26.2444C19.7067 26.4715 19.6625 26.6515 19.4455 26.7758C19.1179 26.9686 18.8124 27.2086 18.467 27.3629C17.8782 27.6243 17.462 28.04 17.1742 28.58C16.9396 29.0257 16.7315 29.4842 16.5101 29.9342C16.3241 30.3113 16.1426 30.6928 15.9345 31.0613C15.0889 32.5655 13.7429 33.2512 12.0118 33.3069C9.7936 33.3798 8.03589 32.437 6.57924 30.9113C4.5736 28.8071 3.40917 26.3001 2.91329 23.493C2.71405 22.366 2.71405 22.3402 3.55528 21.5474C4.0423 21.0889 4.61344 20.7117 5.15802 20.3175C5.41482 20.1289 5.70703 19.9832 5.98153 19.8161C7.56215 18.8604 8.08016 17.4247 7.9252 15.7105C7.73924 13.5763 8.00489 11.5278 9.0852 9.62504C9.62092 8.68222 10.347 7.89797 11.2281 7.24657C12.3084 6.44517 13.5083 6.03376 14.8808 6.08947C16.3551 6.14947 17.7409 6.44517 18.8876 7.42228C18.9762 7.49942 19.0647 7.58084 19.1489 7.66227C19.171 7.68369 19.1843 7.72226 19.233 7.80369C18.6131 7.91511 18.0199 8.04368 17.4221 8.12082C16.4215 8.24938 15.4165 8.34795 14.4159 8.45938C12.8928 8.6308 11.237 10.5293 12.3305 12.4535C12.4102 12.5949 12.4811 12.7535 12.5962 12.8649C12.9637 13.2292 12.9371 13.6363 12.6892 14.0134C12.211 14.7505 11.724 15.4877 11.1705 16.1691C10.3249 17.2062 10.3515 18.3461 11.3476 19.2547C12.2021 20.0303 13.2603 20.3689 14.4026 20.416C15.018 20.4417 15.6379 20.3475 16.2666 20.3089C16.2666 20.3046 16.2666 20.3475 16.2489 20.386C15.2128 22.6659 13.6455 24.4787 11.3122 25.6058C10.7942 25.8544 10.5728 26.3258 10.7322 26.8186C10.8562 27.2 11.2901 27.4829 11.7107 27.4315C11.8479 27.4143 11.9896 27.3629 12.118 27.3029C15.5847 25.5287 17.7896 22.8031 18.6397 19.0918C18.9275 17.8233 19.0249 16.5119 19.3348 15.252C19.8396 13.2249 19.7908 13.5677 21.4246 12.8821C21.646 12.7835 21.8806 12.7021 22.1507 12.6035Z" fill="white"/>
<path d="M22.8724 7.88525C23.262 8.56237 23.6472 9.2352 24.0324 9.90374C22.9432 10.3023 21.8674 10.7823 20.7428 11.0908C18.8434 11.6137 17.887 12.8565 17.5196 14.6435C17.3292 15.5564 17.1167 16.4606 16.9528 17.3777C16.8909 17.7249 16.7226 17.952 16.4348 18.1277C15.4298 18.7448 13.8049 18.6977 12.8441 18.0206C12.4678 17.7549 12.459 17.6906 12.7467 17.3434C13.5437 16.3749 14.2831 15.3635 14.6284 14.1507C14.7391 13.765 14.7524 13.3493 14.7612 12.9465C14.7701 12.4965 14.4159 12.2222 14.137 11.9222C13.6721 11.4208 13.7252 10.8808 14.2964 10.4951C14.4159 10.4137 14.5797 10.3537 14.7258 10.3494C17.617 10.2466 20.2469 9.3252 22.7351 7.96239C22.7838 7.93668 22.8325 7.90668 22.8724 7.88525Z" fill="white"/>
<path d="M2.5104 19.9062C2.23147 18.1449 1.89055 16.4264 2.12078 14.6693C2.20933 13.9922 2.413 13.3708 3.10368 13.0194C3.73239 12.698 4.33895 12.7665 4.86139 13.2336C5.59193 13.8808 5.93284 14.7079 6.02582 15.6378C6.05681 15.9378 6.04353 16.2421 6.03025 16.5464C5.99483 17.2321 5.74246 17.8277 5.14475 18.2263C4.29025 18.7963 3.41804 19.3277 2.5104 19.9062Z" fill="white"/>
<path d="M5.94611 11.7896C5.16687 10.5425 4.38764 9.29537 3.6084 8.05685C4.21939 7.72686 4.85695 7.38831 5.52107 7.02832C5.70702 7.49116 5.85313 7.99685 6.09664 8.4554C6.51725 9.24823 6.64565 10.0239 6.25603 10.8639C6.12764 11.1424 6.1055 11.4639 6.03909 11.7681C6.00809 11.7724 5.9771 11.781 5.94611 11.7896Z" fill="white"/>
<path d="M27.0873 7.68398C27.0962 8.14682 26.6756 8.78108 26.2328 8.92678C26.1354 8.95678 25.9938 8.93107 25.8964 8.88393C25.0109 8.48109 24.4397 7.20828 24.7452 6.29975C24.7851 6.18404 24.9312 6.05119 25.0551 6.02119C26.007 5.77691 27.0696 6.65545 27.0873 7.68398Z" fill="white"/>
<path d="M21.5884 24.5947C21.553 23.1847 21.6947 21.8177 22.4916 20.592C22.7307 20.2234 23.0273 19.902 23.5985 19.8892C23.3373 21.6334 22.6023 23.1633 21.5884 24.5947Z" fill="white"/>
<path d="M1.90826 6.20552C1.99239 5.61412 2.34216 5.21557 2.82918 4.93272C3.32949 4.6413 3.88292 4.58131 4.45849 4.61559C4.6533 4.62845 4.733 4.7313 4.65773 4.88986C4.52933 5.15557 4.41422 5.45556 4.19727 5.64412C3.55086 6.20552 2.76277 6.32552 1.90826 6.20552Z" fill="white"/>
</g>
<defs>
<clipPath id="clip0_46_281">
<rect width="29" height="35" fill="white"/>
</clipPath>
</defs>
</svg>
