<svg width="26" height="37" viewBox="0 0 26 37" fill="none" xmlns="http://www.w3.org/2000/svg">
<g clip-path="url(#clip0_46_296)">
<path d="M8.39406 12.2651C8.23392 12.8375 7.84692 13.1259 7.21082 13.0953C7.04179 13.0865 6.86831 13.1433 6.70372 13.1827C2.8293 14.0565 0.0936273 17.3336 0.0358001 21.3447C-0.0264753 25.7447 0.00911067 30.1446 0.0269037 34.5402C0.0313519 35.9166 1.15676 36.9871 2.51792 36.9958C3.90133 37.0002 4.99559 35.9122 5.00894 34.5053C5.01784 33.5178 5.01339 32.5303 5.01339 31.5428C5.01339 28.2396 5.00894 24.9363 5.01784 21.6331C5.02228 19.7673 6.16993 18.2774 7.82023 17.9977C8.01151 18.3735 8.20278 18.7536 8.34957 19.042C7.83802 19.7236 7.25975 20.3048 6.91724 20.9951C5.4849 23.8702 5.66728 26.6928 7.43768 29.3887C8.20278 30.5554 9.31929 31.2676 10.7116 31.5516C11.9438 31.805 13.1804 31.8225 14.4081 31.604C19.0743 30.7738 22.4016 28.174 24.301 23.9576C26.3694 19.3654 26.4584 14.5852 25.0972 9.78765C24.1942 6.61547 22.4505 3.95451 19.6259 2.10189C16.7834 0.240529 13.6786 -0.515376 10.3024 0.354133C7.62896 1.0445 5.88524 3.01072 5.61835 5.60177C5.45821 7.16601 5.95642 8.59917 6.7571 9.91873C7.23751 10.7271 7.82913 11.4699 8.39406 12.2651Z" fill="white"/>
<path d="M8.39387 12.2651C7.82894 11.4699 7.23732 10.7271 6.75246 9.92312C5.95178 8.60357 5.45357 7.17041 5.61371 5.60617C5.88061 3.01949 7.62432 1.04889 10.2977 0.358528C13.6739 -0.510981 16.7788 0.244924 19.6212 2.10628C22.4459 3.95891 24.194 6.61986 25.0926 9.79204C26.4582 14.5896 26.3648 19.3697 24.2963 23.962C22.3969 28.1828 19.0697 30.7782 14.4034 31.6084C13.1713 31.8269 11.9347 31.8094 10.707 31.556C9.31465 31.2676 8.20259 30.5554 7.43304 29.3931C5.66264 26.7016 5.48026 23.879 6.9126 20.9995C7.25511 20.3092 7.83339 19.7324 8.34493 19.0464C8.19814 18.758 8.00687 18.3735 7.81559 18.0021C6.16974 18.2818 5.01765 19.7717 5.0132 21.6375C5.0043 24.9407 5.0132 28.244 5.00875 31.5472C5.00875 32.5347 5.01765 33.5222 5.0043 34.5097C4.99096 35.9166 3.89669 37.0046 2.51328 37.0002C1.15212 36.9959 0.0311615 35.9254 0.022265 34.5446C0.00447199 30.1447 -0.031114 25.7447 0.0311615 21.3491C0.0889887 17.3336 2.82466 14.0609 6.69463 13.1871C6.86367 13.1477 7.03715 13.0953 7.20174 13.0997C7.84673 13.1259 8.23373 12.8375 8.39387 12.2651ZM9.77282 11.0286C9.92851 10.9587 10.0531 10.8975 10.1776 10.8407C11.5922 10.194 13.069 9.93186 14.6214 10.1547C15.262 10.2465 15.6178 10.6179 15.5511 11.1466C15.4844 11.6753 15.0351 11.9505 14.399 11.8719C13.1179 11.7146 11.8902 11.8937 10.7559 12.5098C10.449 12.6758 10.1554 12.9205 9.95075 13.1958C8.84759 14.677 8.91876 16.2282 9.69275 17.823C9.90182 18.2512 10.1331 18.5221 10.6758 18.4434C10.9961 18.3997 11.3342 18.4653 11.6589 18.509C13.2825 18.7318 14.6614 19.3741 15.6 20.7592C15.9114 21.2224 15.8224 21.7467 15.3999 22.022C14.9906 22.2885 14.4657 22.1967 14.1632 21.7554C13.5939 20.9165 12.7665 20.4927 11.8012 20.2917C10.0975 19.9334 9.199 20.3135 8.43835 21.8559C7.37077 24.0275 7.49977 26.1904 8.76752 28.2571C9.35024 29.2052 10.2221 29.8213 11.3653 29.8912C12.375 29.9524 13.4204 30.0092 14.4034 29.8257C18.2423 29.1091 21.0135 26.9113 22.5793 23.442C24.7412 18.6575 24.7768 13.7289 22.904 8.84825C21.703 5.72414 19.4478 3.50886 16.2272 2.3466C14.181 1.60817 12.0904 1.44651 10.0219 2.2898C8.20704 3.03259 7.13056 4.79783 7.37522 6.60676C7.61542 8.36325 8.58959 9.74398 9.77282 11.0286ZM7.35298 14.8387C7.14391 14.8824 6.97487 14.9086 6.81029 14.9523C3.84331 15.7388 1.80601 18.3692 1.79712 21.4758C1.78377 25.7665 1.79267 30.0573 1.79267 34.348C1.79267 34.4092 1.78822 34.4704 1.79267 34.5315C1.8238 34.951 2.10849 35.2481 2.49994 35.2569C2.88694 35.27 3.19831 34.9772 3.2339 34.5621C3.24724 34.4092 3.2428 34.2519 3.2428 34.099C3.2428 29.9612 3.23835 25.8277 3.24724 21.6899C3.25169 19.2474 4.51499 17.338 6.6457 16.5078C6.87701 16.416 7.11277 16.3418 7.35298 16.2587C7.35298 15.8043 7.35298 15.3586 7.35298 14.8387Z" fill="#3164E8"/>
</g>
<defs>
<clipPath id="clip0_46_296">
<rect width="26" height="37" fill="white"/>
</clipPath>
</defs>
</svg>
