<svg width="55" height="55" viewBox="0 0 55 55" fill="none" xmlns="http://www.w3.org/2000/svg">
<g clip-path="url(#clip0_47_310)">
<path d="M2.84035 54.8527C1.16195 55.5044 -0.481247 53.7829 0.129082 52.0246C1.12673 49.1965 2.07744 46.4791 3.03988 43.7494C6.00936 35.3143 8.97885 26.8793 11.9601 18.4565C12.3474 17.3499 12.5469 16.1695 14.5422 15.7637C16.1033 15.444 17.723 15.9973 18.8497 17.1777C23.9436 22.5019 29.0141 27.8384 34.0962 33.1625C34.9061 34.011 35.7159 34.8594 36.5258 35.7078C39.0493 38.3637 38.5328 40.9582 35.1995 42.2616C27.9108 45.1019 20.622 47.9546 13.3216 50.7827C9.87087 52.1353 6.42016 53.4755 2.84035 54.8527Z" fill="#3164E8"/>
<path d="M48.568 6.86147C48.169 7.15658 47.8521 7.57464 47.453 7.67301C46.5258 7.89434 46.0211 8.42307 45.7864 9.38215C45.6925 9.77563 45.3403 10.2798 45.0234 10.3658C44.7535 10.4273 44.2253 10.0461 44.0375 9.71415C43.5211 8.80424 42.8403 8.45995 41.8544 8.55832C41.5258 8.58291 40.9389 8.37388 40.8685 8.14026C40.7629 7.79597 40.9037 7.23035 41.1385 6.93525C41.7605 6.1729 41.8896 5.44744 41.5141 4.52524C41.3732 4.16865 41.3615 3.52926 41.5727 3.29564C41.784 3.06201 42.3943 3.03742 42.7464 3.17268C43.6619 3.51696 44.3662 3.44319 45.1408 2.73002C45.9389 2.00456 46.7018 2.33655 46.6666 3.35712C46.6314 4.59901 46.9483 5.47203 48.0516 6.02535C48.2394 6.12372 48.3333 6.45571 48.568 6.86147Z" fill="#3164E8"/>
<path d="M24.2958 11.7672C24.6479 10.8081 24.3075 10.0089 23.4859 9.23422C22.7113 8.49646 22.9225 7.79558 23.9671 7.62344C25 7.46359 25.716 7.09471 26.162 6.00037C26.5728 4.9798 27.3474 4.9798 27.7582 5.98807C28.2042 7.07012 28.885 7.46359 29.9296 7.62344C30.9742 7.78329 31.1972 8.48416 30.4225 9.23422C29.6596 9.97198 29.3897 10.6851 29.5657 11.7795C29.7887 13.1075 29.284 13.4763 28.169 12.8246C27.3005 12.3205 26.5962 12.3205 25.7277 12.8246C24.6479 13.464 24.2371 13.1443 24.2958 11.7672Z" fill="#3164E8"/>
<path d="M41.3615 20.0918C40.6807 21.223 40.9859 22.1944 41.7606 23.1904C42.3122 23.8913 41.8662 24.5552 41.1385 24.5184C39.9061 24.4569 39.108 24.8504 38.4272 25.9693C37.9695 26.7193 37.1948 26.6087 36.9953 25.6619C36.7253 24.42 36.0915 23.8175 34.9296 23.4978C34.0258 23.2519 34.0258 22.4526 34.73 21.9731C35.6925 21.3214 36.0798 20.5713 36.0211 19.3663C35.9624 18.272 36.6314 17.94 37.453 18.6286C38.2981 19.3417 39.0728 19.5385 40.0939 19.0712C40.8685 18.7146 41.338 19.1081 41.3615 20.0918Z" fill="#3164E8"/>
<path d="M55 10.4888C54.9765 11.9889 53.9789 12.9972 52.5704 12.948C51.2441 12.8988 50.2817 11.866 50.2699 10.4519C50.2582 9.00101 51.2911 7.91896 52.676 7.93126C54.0962 7.94355 55.0235 8.95182 55 10.4888Z" fill="#3164E8"/>
<path d="M47.1948 27.8135C47.1948 28.5881 47.1948 29.2521 47.1948 30.0391C44.7065 30.0391 42.23 30.0391 39.6713 30.0391C39.6713 29.3136 39.6713 28.6127 39.6713 27.8135C42.1479 27.8135 44.5892 27.8135 47.1948 27.8135Z" fill="#3164E8"/>
<path d="M31.4671 18.2229C31.4789 19.6984 30.446 20.7927 29.0728 20.7559C27.77 20.7313 26.7606 19.6369 26.7371 18.2598C26.7254 16.7966 27.7582 15.7268 29.1667 15.7514C30.5399 15.776 31.4671 16.772 31.4671 18.2229Z" fill="#3164E8"/>
<path d="M38.0986 2.44701C38.1103 3.97171 37.1714 4.95539 35.716 4.94309C34.3545 4.9308 33.3685 3.92252 33.3451 2.53308C33.3333 1.09445 34.3897 -0.0121945 35.7629 0.000101472C37.1127 0.0123975 38.0751 1.03297 38.0986 2.44701Z" fill="#3164E8"/>
<path d="M40.4578 13.1692C40.4695 14.4971 39.4132 15.6407 38.1455 15.6776C36.8545 15.7144 35.7042 14.4971 35.716 13.12C35.7277 11.8166 36.831 10.71 38.1103 10.7223C39.4366 10.7223 40.446 11.792 40.4578 13.1692Z" fill="#3164E8"/>
<path d="M46.8896 19.9689C48.1455 19.9566 49.2253 21.0755 49.2605 22.4158C49.2957 23.7683 48.2863 24.8873 46.9953 24.9241C45.6455 24.9733 44.5305 23.8421 44.5422 22.4526C44.5539 21.137 45.6455 19.9934 46.8896 19.9689Z" fill="#3164E8"/>
<path d="M34.8005 7.54976C34.3779 7.96782 33.8967 8.47196 33.439 8.92691C31.6784 7.07021 29.9179 5.22581 28.0399 3.25845C28.5094 2.82809 29.0258 2.34855 29.4484 1.95508C31.1972 3.78718 32.9578 5.61929 34.8005 7.54976Z" fill="#3164E8"/>
<path d="M46.608 11.792C46.9483 12.1486 47.4061 12.6404 47.7465 12.997C45.9859 14.8537 44.2253 16.6981 42.3591 18.6778C42.1127 18.3581 41.6784 17.8047 41.338 17.3744C43.0399 15.5792 44.7887 13.7225 46.608 11.792Z" fill="#3164E8"/>
</g>
<defs>
<clipPath id="clip0_47_310">
<rect width="55" height="55" fill="white"/>
</clipPath>
</defs>
</svg>
