<svg width="41" height="23" viewBox="0 0 41 23" fill="none" xmlns="http://www.w3.org/2000/svg">
<g clip-path="url(#clip0_46_300)">
<path d="M21.2269 1.32744e-05C17.389 -0.00343759 14.1701 0.66603 11.3085 1.89799C6.74197 3.86153 3.13754 6.9535 0.23701 10.8702C-0.0919517 11.3154 -0.0742656 11.7191 0.27592 12.1919C1.5281 13.8828 2.9253 15.4426 4.52767 16.8264C8.66622 20.3981 13.4309 22.5618 18.9914 22.9448C22.6949 23.2002 26.2427 22.5687 29.6349 21.1296C34.2262 19.1868 37.8413 16.081 40.7524 12.1505C41.0991 11.6812 41.0814 11.2912 40.7135 10.7978C39.1713 8.71344 37.3991 6.83962 35.3334 5.23497C30.9967 1.87383 26.08 0.0621288 21.2269 1.32744e-05Z" fill="white"/>
<path d="M21.2269 1.32744e-05C26.08 0.0621288 30.9932 1.87383 35.3298 5.23842C37.3956 6.83962 39.1642 8.71689 40.71 10.8012C41.0778 11.2981 41.0955 11.6881 40.7489 12.154C37.8377 16.081 34.2227 19.1868 29.6314 21.1331C26.2356 22.5687 22.6913 23.2036 18.9878 22.9482C13.4309 22.5618 8.66268 20.4015 4.52413 16.8299C2.92176 15.4461 1.52456 13.8863 0.27238 12.1954C-0.0778056 11.7226 -0.0954917 11.3188 0.23347 10.8737C3.134 6.9535 6.73843 3.86498 11.305 1.90144C14.1701 0.66603 17.389 -0.00343759 21.2269 1.32744e-05ZM19.9818 20.9847C22.3482 20.9813 24.1805 20.7501 25.9774 20.2566C31.163 18.8348 35.2273 15.8326 38.5027 11.7329C38.6548 11.5431 38.6159 11.4224 38.4815 11.2533C37.0348 9.43122 35.4112 7.78171 33.5082 6.41517C27.6965 2.23962 21.3153 0.904139 14.3399 2.9574C9.43026 4.40331 5.59944 7.37796 2.48315 11.2912C2.32043 11.4948 2.40533 11.6087 2.52913 11.7709C3.76009 13.3272 5.13607 14.7456 6.69952 15.9913C10.7107 19.1834 15.2738 20.9364 19.9818 20.9847Z" fill="#3164E8"/>
<path d="M19.9818 20.9847C15.2737 20.9364 10.7107 19.1833 6.69949 15.9878C5.13604 14.7455 3.76006 13.3238 2.5291 11.7674C2.40176 11.6087 2.3204 11.4913 2.48312 11.2877C5.59941 7.37447 9.43023 4.39983 14.3399 2.95391C21.3153 0.904102 27.6965 2.23959 33.5081 6.41513C35.4112 7.78167 37.0347 9.43118 38.4815 11.2532C38.6159 11.4258 38.6548 11.5431 38.5027 11.7329C35.2272 15.8325 31.163 18.8348 25.9774 20.2565C24.1805 20.75 22.3482 20.9812 19.9818 20.9847ZM12.2671 11.4983C12.2883 15.9326 15.9882 19.5146 20.523 19.4904C25.0259 19.4663 28.701 15.8394 28.6834 11.4396C28.6657 7.04319 24.9339 3.43704 20.4416 3.47499C15.8892 3.51295 12.2459 7.0915 12.2671 11.4983Z" fill="white"/>
<path d="M12.2671 11.4982C12.2459 7.09141 15.8892 3.51287 20.4381 3.47491C24.9304 3.43695 28.6622 7.0431 28.6799 11.4395C28.6975 15.8393 25.0224 19.4662 20.5195 19.4904C15.9918 19.5145 12.2919 15.9325 12.2671 11.4982ZM20.4806 17.4544C23.8834 17.4509 26.6177 14.7696 26.6 11.4602C26.5823 8.13012 23.8586 5.49711 20.4417 5.50401C17.0424 5.51092 14.3399 8.17843 14.347 11.5154C14.3541 14.8075 17.0919 17.4578 20.4806 17.4544Z" fill="white"/>
<path d="M20.4806 17.4543C17.0919 17.4577 14.3541 14.8075 14.347 11.5119C14.3399 8.17492 17.0424 5.5074 20.4416 5.5005C23.8586 5.4936 26.5787 8.12661 26.6 11.4567C26.6176 14.7695 23.8798 17.4508 20.4806 17.4543ZM20.4452 15.5011C22.7302 15.5046 24.5802 13.7308 24.5873 11.5223C24.5979 9.32751 22.7585 7.51581 20.523 7.5089C18.2026 7.502 16.3668 9.26884 16.3668 11.5085C16.3668 13.7101 18.192 15.4977 20.4452 15.5011Z" fill="#3164E8"/>
<path d="M20.4452 15.5015C18.192 15.498 16.3668 13.7105 16.3668 11.5088C16.3632 9.27267 18.199 7.50583 20.523 7.50928C22.7585 7.51273 24.5979 9.32789 24.5873 11.5226C24.5767 13.7312 22.7302 15.5049 20.4452 15.5015ZM18.4431 11.495C18.4396 12.6062 19.3557 13.5103 20.4806 13.5034C21.5877 13.4965 22.4932 12.6028 22.5003 11.5123C22.5074 10.408 21.5771 9.49698 20.4593 9.50733C19.3451 9.51768 18.4467 10.4046 18.4431 11.495Z" fill="white"/>
<path d="M18.4431 11.4946C18.4467 10.4041 19.3451 9.51382 20.4593 9.50692C21.5806 9.49657 22.5074 10.411 22.5003 11.5119C22.4933 12.6023 21.5877 13.4927 20.4806 13.503C19.3557 13.5099 18.4396 12.6092 18.4431 11.4946Z" fill="#3164E8"/>
</g>
<defs>
<clipPath id="clip0_46_300">
<rect width="41" height="23" fill="white"/>
</clipPath>
</defs>
</svg>
