<svg width="37" height="24" viewBox="0 0 37 24" fill="none" xmlns="http://www.w3.org/2000/svg">
<g clip-path="url(#clip0_46_292)">
<path d="M5.98866 22.0945C5.98529 22.1346 5.98193 22.1781 5.97856 22.2182C5.31538 22.148 4.63874 22.1413 3.98902 21.9942C2.77712 21.7235 1.99275 20.9747 1.78067 19.7279C1.75037 19.5407 1.77394 19.3001 1.87493 19.1497C2.01632 18.9424 2.2486 19.0761 2.45058 19.1329C3.03297 19.2967 3.61199 19.4939 4.20447 19.6009C5.66885 19.8616 7.05581 19.6611 8.24751 18.7118C8.95782 18.1469 9.65129 17.5485 10.2808 16.9001C12.1256 14.9948 14.2868 13.5708 16.7106 12.5012C17.6835 12.07 18.6429 11.5953 19.5687 11.0705C21.5481 9.94408 23.0563 8.36302 23.8743 6.23043C24.285 5.15745 24.5678 4.03433 24.8505 2.92124C25.0189 2.2594 25.103 1.57416 25.1805 0.89227C25.2309 0.467758 24.9179 0.103412 24.524 0.0231896C24.0864 -0.0670611 23.6521 0.160237 23.5107 0.568036C23.467 0.695056 23.4501 0.832103 23.4232 0.962465C23.2111 2.0087 23.0428 3.06831 22.7768 4.10118C22.319 5.85606 21.5044 7.41706 20.0703 8.60703C19.0806 9.42932 17.9595 10.0276 16.7981 10.5691C15.9094 10.987 15.0106 11.3847 14.1353 11.8327C12.3444 12.7552 10.7723 13.9719 9.33822 15.3825C8.59761 16.1146 7.79978 16.7931 6.99858 17.4616C6.56095 17.826 6.00886 17.9329 5.43994 17.953C4.53101 17.9864 3.68605 17.729 2.84108 17.4315C1.42383 16.9302 -0.0607448 17.9597 0.00321659 19.4438C0.0772772 21.1385 0.865013 22.4388 2.40009 23.2444C3.42684 23.7825 4.54111 23.9196 5.68905 23.8962C6.3051 23.8828 6.92788 23.8761 7.54057 23.9296C8.7491 24.0366 9.9408 24.0533 11.1325 23.7725C12.6305 23.4215 14.0242 22.8065 15.4078 22.1647C17.0574 21.3992 18.7103 20.6538 20.5113 20.2828C22.3527 19.9017 24.1099 20.0087 25.7763 20.9413C26.2139 21.1853 26.6684 21.4059 27.1296 21.5998C29.5904 22.6494 32.0378 22.6728 34.4145 21.3691C36.4545 20.2527 37.323 18.2939 36.8921 16.0176C36.6228 14.6003 36.165 13.2366 35.5961 11.9263C34.3471 9.05494 34.125 6.0867 34.539 3.03155C34.6366 2.31957 34.7444 1.61093 34.7982 0.895613C34.8454 0.30397 34.3236 -0.107173 33.7479 0.0131617C33.3675 0.0933846 33.1083 0.414276 33.0511 0.912326C32.9097 2.17918 32.7548 3.43935 32.6538 4.70285C32.4855 6.82876 32.6606 8.9179 33.3978 10.9435C33.9398 12.4377 34.4616 13.9385 34.9632 15.446C35.1988 16.158 35.3503 16.9001 35.2224 17.6555C35.0406 18.7251 34.3774 19.4538 33.4416 19.9385C31.9402 20.7173 30.3512 20.8711 28.7556 20.3363C27.7995 20.0187 26.8939 19.5441 25.9783 19.1129C24.8505 18.5847 23.6824 18.2873 22.4301 18.3207C20.6594 18.3675 18.9661 18.7719 17.3401 19.4338C15.8118 20.0555 14.3205 20.7708 12.8022 21.4126C11.4018 22.0042 9.95427 22.392 8.40909 22.2616C7.59779 22.1948 6.79323 22.148 5.98866 22.0945Z" fill="white"/>
<path d="M5.9888 22.0947C6.79336 22.1515 7.59793 22.195 8.4025 22.2652C9.95104 22.3956 11.3986 22.0078 12.7956 21.4162C14.3172 20.7744 15.8052 20.0591 17.3335 19.4373C18.9595 18.7755 20.6528 18.371 22.4235 18.3243C23.6758 18.2908 24.8473 18.585 25.9717 19.1165C26.8873 19.5476 27.7929 20.019 28.749 20.3398C30.348 20.8747 31.9369 20.7209 33.435 19.9421C34.3708 19.4574 35.034 18.7321 35.2158 17.6591C35.3437 16.9003 35.1922 16.1616 34.9566 15.4496C34.455 13.9421 33.9332 12.4412 33.3912 10.9471C32.6573 8.92147 32.4789 6.83233 32.6472 4.70642C32.7482 3.44291 32.9065 2.18275 33.0445 0.92258C33.0983 0.42453 33.3576 0.103638 33.7413 0.0234156C34.317 -0.0969186 34.8388 0.314223 34.7916 0.905867C34.7378 1.62119 34.6267 2.32982 34.5324 3.0418C34.1184 6.09695 34.3405 9.0652 35.5895 11.9365C36.1584 13.2468 36.6162 14.6106 36.8855 16.0279C37.3198 18.3042 36.4479 20.2596 34.4079 21.3794C32.0312 22.683 29.5838 22.6596 27.123 21.61C26.6618 21.4128 26.2073 21.1956 25.7697 20.9515C24.1033 20.019 22.3461 19.912 20.5047 20.2931C18.7037 20.6641 17.0508 21.4095 15.4012 22.1749C14.0176 22.8167 12.624 23.4284 11.1259 23.7827C9.9342 24.0635 8.73914 24.0435 7.53397 23.9398C6.92129 23.8864 6.2985 23.8931 5.68245 23.9064C4.53451 23.9298 3.42024 23.7961 2.39349 23.2546C0.858416 22.4524 0.0706811 21.1488 -0.00337951 19.4541C-0.0673409 17.9666 1.4206 16.9404 2.83449 17.4418C3.67609 17.7393 4.52105 17.9967 5.43334 17.9632C6.00226 17.9432 6.55435 17.8329 6.99198 17.4719C7.79318 16.8034 8.58765 16.1248 9.33162 15.3928C10.7623 13.9822 12.3378 12.7655 14.1287 11.8429C15.0006 11.3917 15.8994 10.9939 16.7915 10.5794C17.9496 10.0379 19.074 9.43623 20.0637 8.61729C21.4944 7.42732 22.3124 5.86631 22.7703 4.11144C23.0396 3.07857 23.2045 2.01896 23.4166 0.972719C23.4435 0.839014 23.457 0.70531 23.5041 0.57829C23.6489 0.173833 24.0831 -0.0534646 24.5174 0.0334435C24.9113 0.113666 25.2243 0.478012 25.1739 0.902524C25.0964 1.57105 25.0123 2.25628 24.8439 2.91812C24.5612 4.03122 24.2784 5.15433 23.8677 6.22731C23.0497 8.35991 21.5449 9.94431 19.5621 11.0674C18.6363 11.5922 17.6803 12.0669 16.704 12.4981C14.2802 13.5677 12.119 14.995 10.2742 16.897C9.6447 17.5488 8.95122 18.1438 8.24091 18.7087C7.05258 19.6546 5.66226 19.8552 4.19788 19.5978C3.60539 19.4942 3.02637 19.297 2.44399 19.1298C2.242 19.073 2.00972 18.9393 1.86833 19.1465C1.76734 19.297 1.74378 19.5376 1.77407 19.7248C1.98952 20.9716 2.77389 21.7204 3.98243 21.9911C4.62877 22.1348 5.30542 22.1449 5.97196 22.2151C5.98206 22.1749 5.98543 22.1348 5.9888 22.0947Z" fill="#3164E8"/>
</g>
<defs>
<clipPath id="clip0_46_292">
<rect width="37" height="24" fill="white"/>
</clipPath>
</defs>
</svg>
