<svg width="83" height="83" viewBox="0 0 83 83" fill="none" xmlns="http://www.w3.org/2000/svg">
<path d="M10.6702 60.8299C9.4202 62.0799 8.1602 63.3199 6.9202 64.5799C6.1202 65.3899 6.1302 66.1899 6.9102 67.0299C7.2102 67.3499 7.5202 67.6499 7.8302 67.9499C8.6002 68.7199 9.3702 69.4899 10.1702 70.2899C7.0102 73.4399 3.9502 76.4999 0.900198 79.5499C0.670198 79.7699 0.440198 79.9999 0.260198 80.2599C-0.159802 80.8899 -0.0598017 81.7299 0.480198 82.2499C1.0402 82.7999 1.9202 82.8699 2.5502 82.3899C2.7802 82.2199 2.9802 81.9999 3.1802 81.7899C6.0302 78.9399 8.8802 76.0899 11.7402 73.2399C11.9602 73.0199 12.1902 72.8199 12.4802 72.5499C13.5102 73.5899 14.4702 74.5899 15.4602 75.5799C16.5302 76.6599 17.2902 76.6599 18.3502 75.5999C19.5402 74.4199 20.7202 73.2199 21.9002 72.0499C26.5702 74.9499 31.9502 73.9699 35.7902 70.0399C44.0602 61.5699 52.5002 53.2699 60.8702 44.8899C61.1102 44.6499 61.3002 44.3399 61.5202 44.0499C61.7902 44.2899 61.9202 44.3999 62.0502 44.5199C65.0002 47.2999 69.3302 47.2799 72.0602 44.4899C74.8002 41.6799 74.7402 37.3699 71.9002 34.4799C70.9402 33.5099 69.9802 32.5499 69.0102 31.5899C68.0702 30.6599 67.1302 29.7299 66.1402 28.7599C68.0902 26.8099 69.9602 24.9499 71.8302 23.0799C71.9502 22.9599 72.0802 22.8499 72.3902 22.5699C72.6302 22.8999 72.8102 23.2399 73.0802 23.4999C75.3702 25.6999 78.8802 25.6799 81.0702 23.4699C83.2602 21.2699 83.3002 17.7199 81.0802 15.4799C76.4902 10.8399 71.8702 6.2199 67.2302 1.6299C65.0102 -0.560098 61.5002 -0.510098 59.3002 1.6399C57.0502 3.8199 57.0002 7.3199 59.1802 9.6199C59.4502 9.8999 59.8402 10.0799 60.1002 10.2599C57.9002 12.4699 55.9102 14.4499 53.7602 16.6099C53.6102 16.3899 53.4702 16.0899 53.2402 15.8599C51.4802 14.0899 49.7402 12.2999 47.9402 10.5699C45.7002 8.4299 42.4002 8.0399 39.7202 9.5399C37.0202 11.0499 35.6402 14.1099 36.2702 17.1599C36.5902 18.7199 37.4302 19.9799 38.6602 21.1699C38.3402 21.4299 38.0502 21.6199 37.8002 21.8699C29.2802 30.3799 20.7702 38.8999 12.2502 47.4099C11.1102 48.5499 10.1702 49.8299 9.6102 51.3499C8.4202 54.6599 8.8302 57.7899 10.6702 60.8299Z" fill="white"/>
<path d="M10.6701 60.8299C8.83008 57.7999 8.41008 54.6699 9.62008 51.3599C10.1801 49.8299 11.1101 48.5599 12.2601 47.4199C20.7801 38.9099 29.2901 30.3899 37.8101 21.8799C38.0601 21.6299 38.3501 21.4399 38.6701 21.1799C37.4301 19.9899 36.6001 18.7299 36.2801 17.1699C35.6501 14.1199 37.0301 11.0599 39.7301 9.5499C42.4101 8.0499 45.7101 8.4399 47.9501 10.5799C49.7501 12.2999 51.4901 14.0899 53.2501 15.8699C53.4701 16.0899 53.6201 16.3999 53.7701 16.6199C55.9201 14.4599 57.9101 12.4799 60.1101 10.2699C59.8401 10.0899 59.4601 9.9099 59.1901 9.6299C57.0001 7.3299 57.0501 3.8299 59.2801 1.6399C61.4801 -0.510098 64.9901 -0.560098 67.2101 1.6299C71.8501 6.2199 76.4701 10.8399 81.0601 15.4799C83.2801 17.7299 83.2401 21.2699 81.0501 23.4699C78.8601 25.6799 75.3501 25.6999 73.0601 23.4999C72.7901 23.2399 72.6101 22.8999 72.3701 22.5699C72.0601 22.8499 71.9301 22.9599 71.8101 23.0799C69.9401 24.9399 68.0801 26.8099 66.1201 28.7599C67.1001 29.7299 68.0501 30.6599 68.9901 31.5899C69.9601 32.5499 70.9301 33.5099 71.8801 34.4799C74.7201 37.3599 74.7801 41.6699 72.0401 44.4899C69.3101 47.2899 64.9801 47.2999 62.0301 44.5199C61.9101 44.3999 61.7801 44.2899 61.5001 44.0499C61.2801 44.3399 61.1001 44.6499 60.8501 44.8899C52.4801 53.2699 44.0401 61.5699 35.7701 70.0399C31.9301 73.9699 26.5601 74.9499 21.8801 72.0499C20.7101 73.2299 19.5201 74.4199 18.3301 75.5999C17.2701 76.6599 16.5101 76.6499 15.4401 75.5799C14.4601 74.5999 13.4901 73.5999 12.4601 72.5499C12.1701 72.8199 11.9401 73.0199 11.7201 73.2399C8.87008 76.0899 6.01008 78.9399 3.16008 81.7899C2.95008 81.9899 2.76008 82.2099 2.53008 82.3899C1.90008 82.8699 1.03008 82.7999 0.46008 82.2499C-0.0699199 81.7299 -0.17992 80.8899 0.24008 80.2599C0.44008 79.9999 0.67008 79.7699 0.90008 79.5499C3.96008 76.4899 7.01008 73.4399 10.1701 70.2899C9.37008 69.4899 8.60008 68.7199 7.83008 67.9499C7.52008 67.6399 7.21008 67.3399 6.91008 67.0299C6.13008 66.1999 6.12008 65.3999 6.92008 64.5799C8.16008 63.3099 9.42008 62.0699 10.6701 60.8299ZM40.8901 23.5799C39.8101 24.6699 38.6801 25.8099 37.4201 27.0799C37.7001 27.3099 38.0901 27.5799 38.4101 27.9099C41.1101 30.5899 43.8001 33.2799 46.4801 35.9699C47.4001 36.8999 47.2701 38.1599 46.2101 38.6599C45.4301 39.0199 44.7701 38.7899 44.1701 38.1899C41.4301 35.4299 38.6701 32.6899 35.9301 29.9299C35.6701 29.6699 35.5101 29.3099 35.3601 29.0999C33.8101 30.6499 32.4701 31.9999 30.9801 33.4899C31.1901 33.6399 31.5001 33.8199 31.7501 34.0599C33.0901 35.3799 34.4401 36.7099 35.7501 38.0699C36.3701 38.7099 36.3301 39.6699 35.7501 40.2699C35.1601 40.8699 34.2301 40.9099 33.5501 40.3399C33.2801 40.1199 33.0501 39.8599 32.8001 39.6099C31.4501 38.2599 30.1001 36.9099 28.8401 35.6499C27.2501 37.2399 25.7201 38.7699 24.0701 40.4199C24.2501 40.5599 24.5301 40.7299 24.7601 40.9499C27.5001 43.6699 30.2301 46.3999 32.9401 49.1399C33.2401 49.4399 33.5401 49.7999 33.6601 50.1899C33.8801 50.9299 33.6101 51.5799 32.9201 51.9699C32.1501 52.3999 31.4801 52.1799 30.8801 51.5799C28.0701 48.7699 25.2601 45.9599 22.4501 43.1499C22.2301 42.9299 22.0101 42.7199 21.8901 42.6099C20.4801 44.0199 19.1301 45.3699 17.6701 46.8299C17.8301 46.9499 18.0901 47.0899 18.2901 47.2999C19.6301 48.6299 20.9701 49.9499 22.2901 51.2999C23.2101 52.2499 22.9201 53.6599 21.7401 54.0299C21.0201 54.2499 20.4501 53.9799 19.9401 53.4699C18.4301 51.9399 16.9101 50.4299 15.4001 48.9199C11.3401 52.1799 11.0601 56.9499 14.6801 60.5699C17.2001 63.0899 19.7301 65.6199 22.2501 68.1399C25.5801 71.4699 29.8301 71.4599 33.1701 68.1199C41.6901 59.6099 50.2001 51.0899 58.7201 42.5699C58.9401 42.3499 59.1501 42.1199 59.2801 41.9799C53.0701 35.7699 46.9501 29.6399 40.8901 23.5799ZM70.8401 40.1699C70.8601 38.2999 70.2601 37.3499 69.4001 36.4999C61.6601 28.7799 53.9301 21.0399 46.2001 13.3099C46.0001 13.1099 45.7901 12.8999 45.5701 12.7199C43.8401 11.3299 41.3301 11.6799 40.0401 13.4899C38.9201 15.0699 39.1201 17.0899 40.5801 18.5499C48.4501 26.4299 56.3301 34.2999 64.2101 42.1799C64.4301 42.3999 64.6801 42.6199 64.9501 42.7899C66.2401 43.5899 67.5901 43.6499 68.9101 42.9199C70.2001 42.1799 70.8201 41.0199 70.8401 40.1699ZM76.9101 22.0699C78.0301 21.9099 78.8901 21.3699 79.2901 20.4699C79.7101 19.5199 79.5301 18.4799 78.7201 17.6699C74.1801 13.0999 69.6301 8.5499 65.0601 3.9999C64.0001 2.9499 62.4601 2.9599 61.4801 3.9599C60.5301 4.9299 60.5301 6.4599 61.5401 7.4799C66.0801 12.0499 70.6401 16.6099 75.2201 21.1299C75.6601 21.5699 76.3401 21.7599 76.9101 22.0699ZM69.8201 20.3699C67.3501 17.8999 64.8301 15.3899 62.3301 12.8899C60.3601 14.8699 58.3601 16.8699 56.5001 18.7399C58.9901 21.2399 61.5101 23.7699 63.9601 26.2399C65.8701 24.3199 67.8501 22.3399 69.8201 20.3699ZM10.3901 65.7699C12.5601 67.9599 14.7501 70.1699 16.8801 72.3199C17.7101 71.5399 18.5601 70.7299 19.3301 70.0099C17.1201 67.7899 14.9201 65.5899 12.7701 63.4399C11.9901 64.1999 11.1501 65.0299 10.3901 65.7699Z" fill="white"/>
<path d="M40.8901 23.5801C46.9501 29.6401 53.0801 35.7701 59.2701 41.9601C59.1301 42.1001 58.9301 42.3301 58.7101 42.5501C50.2001 51.0701 41.6801 59.5801 33.1601 68.1001C29.8201 71.4401 25.5701 71.4501 22.2401 68.1201C19.7101 65.6001 17.1901 63.0701 14.6701 60.5501C11.0501 56.9301 11.3301 52.1601 15.3901 48.9001C16.9001 50.4101 18.4201 51.9201 19.9301 53.4501C20.4401 53.9601 21.0101 54.2401 21.7301 54.0101C22.9101 53.6401 23.2101 52.2301 22.2801 51.2801C20.9601 49.9301 19.6201 48.6101 18.2801 47.2801C18.0801 47.0801 17.8201 46.9301 17.6601 46.8101C19.1201 45.3501 20.4601 44.0001 21.8801 42.5901C22.0001 42.7001 22.2301 42.9101 22.4401 43.1301C25.2501 45.9401 28.0701 48.7501 30.8701 51.5601C31.4701 52.1601 32.1501 52.3701 32.9101 51.9501C33.6001 51.5601 33.8701 50.9101 33.6501 50.1701C33.5301 49.7801 33.2301 49.4201 32.9301 49.1201C30.2101 46.3801 27.4801 43.6501 24.7501 40.9301C24.5301 40.7101 24.2401 40.5401 24.0601 40.4001C25.7101 38.7601 27.2401 37.2301 28.8301 35.6301C30.0901 36.9001 31.4401 38.2501 32.7901 39.5901C33.0401 39.8401 33.2701 40.1001 33.5401 40.3201C34.2201 40.8901 35.1601 40.8501 35.7401 40.2501C36.3301 39.6501 36.3601 38.7001 35.7401 38.0501C34.4301 36.6901 33.0901 35.3701 31.7401 34.0401C31.4901 33.8001 31.1801 33.6201 30.9701 33.4701C32.4601 31.9801 33.8001 30.6301 35.3501 29.0801C35.4901 29.2901 35.6601 29.6501 35.9201 29.9101C38.6601 32.6701 41.4201 35.4101 44.1601 38.1701C44.7601 38.7701 45.4201 39.0001 46.2001 38.6401C47.2601 38.1401 47.3901 36.8801 46.4701 35.9501C43.7901 33.2501 41.1001 30.5701 38.4001 27.8901C38.0701 27.5601 37.6901 27.3001 37.4101 27.0601C38.6701 25.8201 39.8101 24.6701 40.8901 23.5801Z" fill="#3164E8"/>
<path d="M70.8401 40.17C70.8201 41.03 70.1901 42.19 68.9001 42.91C67.5801 43.64 66.2301 43.59 64.9401 42.78C64.6701 42.61 64.4301 42.4 64.2001 42.17C56.3201 34.3 48.4401 26.42 40.5701 18.54C39.1101 17.08 38.9101 15.05 40.0301 13.48C41.3101 11.67 43.8301 11.32 45.5601 12.71C45.7901 12.89 45.9901 13.1 46.1901 13.3C53.9201 21.03 61.6501 28.77 69.3901 36.49C70.2601 37.35 70.8601 38.29 70.8401 40.17Z" fill="#3164E8"/>
<path d="M76.9101 22.07C76.3401 21.76 75.6601 21.57 75.2201 21.14C70.6401 16.61 66.0901 12.05 61.5401 7.48998C60.5301 6.46998 60.5301 4.93998 61.4801 3.96998C62.4601 2.96998 64.0001 2.95998 65.0601 4.00998C69.6301 8.55998 74.1801 13.11 78.7301 17.68C79.5401 18.49 79.7201 19.53 79.3001 20.48C78.8901 21.37 78.0301 21.91 76.9101 22.07Z" fill="#3164E8"/>
<path d="M69.82 20.3701C67.86 22.3401 65.88 24.3201 63.96 26.2401C61.5 23.7701 58.98 21.2401 56.5 18.7401C58.36 16.8701 60.36 14.8701 62.33 12.8901C64.83 15.3801 67.35 17.9001 69.82 20.3701Z" fill="#3164E8"/>
<path d="M10.3901 65.7697C11.1401 65.0297 11.9801 64.1997 12.7601 63.4297C14.9001 65.5797 17.1001 67.7797 19.3201 69.9997C18.5601 70.7197 17.7001 71.5297 16.8701 72.3097C14.7601 70.1797 12.5601 67.9597 10.3901 65.7697Z" fill="#3164E8"/>
</svg>
