<svg width="75" height="78" viewBox="0 0 75 78" fill="none" xmlns="http://www.w3.org/2000/svg">
<path d="M28.46 18.6099C28.08 18.6099 27.84 18.6099 27.61 18.6099C24.43 18.6099 21.25 18.5899 18.07 18.6099C11.58 18.6599 6.41997 22.9398 5.29997 29.2999C4.56997 33.4799 3.98997 37.6899 3.33997 41.8799C2.36997 48.1499 1.39997 54.4199 0.419966 60.6799C0.119966 62.5998 -0.200034 64.5199 0.149966 66.4699C1.29997 72.9199 6.48997 77.2699 13.03 77.2799C29.12 77.2799 45.21 77.2799 61.29 77.2799C62.01 77.2799 62.73 77.2399 63.45 77.1499C70.12 76.3899 75.13 70.1399 74.32 63.4699C73.85 59.6399 73.2 55.8299 72.62 52.0199C71.47 44.5499 70.27 37.0799 69.15 29.5999C68.27 23.6899 63.46 19.0399 57.5 18.6999C53.95 18.4999 50.37 18.6199 46.81 18.5999C46.55 18.5999 46.3 18.5999 45.97 18.5999C50.66 12.4399 48.25 5.54985 44.2 2.40985C39.74 -1.05015 33.46 -0.760148 29.39 3.09985C25.27 7.00985 24.45 13.6799 28.46 18.6099Z" fill="#3164E8"/>
<path d="M28.46 18.6097C24.45 13.6797 25.27 7.00968 29.39 3.10968C33.46 -0.760315 39.74 -1.04032 44.2 2.41968C48.26 5.55968 50.66 12.4497 45.97 18.6097C46.3 18.6097 46.56 18.6097 46.81 18.6097C50.37 18.6297 53.95 18.5097 57.5 18.7097C63.46 19.0497 68.27 23.6997 69.15 29.6097C70.26 37.0897 71.47 44.5597 72.62 52.0297C73.21 55.8397 73.86 59.6497 74.32 63.4797C75.13 70.1397 70.11 76.3897 63.45 77.1597C62.73 77.2397 62.01 77.2797 61.29 77.2897C45.2 77.2997 29.11 77.2997 13.03 77.2897C6.48997 77.2897 1.29997 72.9297 0.149966 66.4797C-0.200034 64.5297 0.119966 62.6097 0.419966 60.6897C1.39997 54.4197 2.36997 48.1497 3.33997 41.8897C3.98997 37.6997 4.56997 33.4897 5.29997 29.3097C6.41997 22.9497 11.58 18.6597 18.06 18.6197C21.24 18.5997 24.42 18.6197 27.6 18.6197C27.84 18.6097 28.08 18.6097 28.46 18.6097ZM37.2 72.8997C45.28 72.8997 53.35 72.8797 61.43 72.9097C66.61 72.9197 70.68 68.6997 70.03 63.4697C69.52 59.3497 68.79 55.2597 68.16 51.1497C67.1 44.2997 66 37.4597 64.98 30.6097C64.3 26.0197 60.95 23.0297 56.33 23.0297C50.73 23.0197 45.14 23.0297 39.54 23.0297C32.25 23.0297 24.97 22.9997 17.68 23.0497C13.8 23.0797 10.44 25.8297 9.71997 29.6297C9.03997 33.1997 8.52997 36.7997 7.96997 40.3897C6.84997 47.4597 5.74997 54.5297 4.60997 61.5897C4.29997 63.4797 4.11997 65.3497 4.75997 67.2097C5.94997 70.6697 9.12997 72.8997 12.97 72.8997C21.04 72.8997 29.12 72.8997 37.2 72.8997ZM37.22 4.36968C33.42 4.34968 30.23 7.52969 30.21 11.3497C30.19 15.1497 33.37 18.3497 37.18 18.3697C40.97 18.3897 44.17 15.2097 44.19 11.3897C44.2 7.58969 41.02 4.38968 37.22 4.36968Z" fill="white"/>
<path d="M37.2201 4.36972C41.0301 4.38972 44.2101 7.58972 44.1901 11.3897C44.1701 15.2097 40.9701 18.3897 37.1801 18.3697C33.3701 18.3497 30.1901 15.1497 30.2101 11.3497C30.2201 7.52972 33.4201 4.34972 37.2201 4.36972Z" fill="#3164E8"/>
</svg>
