<svg width="62" height="62" viewBox="0 0 62 62" fill="none" xmlns="http://www.w3.org/2000/svg">
<g clip-path="url(#clip0_31_2)">
<path d="M31 47.7246C40.2366 47.7246 47.7243 40.2368 47.7243 31.0002C47.7243 21.7636 40.2366 14.2759 31 14.2759C21.7634 14.2759 14.2757 21.7636 14.2757 31.0002C14.2757 40.2368 21.7634 47.7246 31 47.7246Z" fill="#3164E8"/>
<path d="M31 50.689C31.2548 51.6336 31.3915 52.5721 31.4848 53.5168C31.578 54.4614 31.6215 55.3999 31.6215 56.3445C31.6277 57.2892 31.578 58.2277 31.4848 59.1723C31.3915 60.117 31.261 61.0554 31 62.0001C30.739 61.0554 30.6085 60.117 30.5152 59.1723C30.422 58.2277 30.3785 57.2892 30.3785 56.3445C30.3785 55.3999 30.4282 54.4614 30.5152 53.5168C30.6085 52.5783 30.739 51.6336 31 50.689Z" fill="#3164E8"/>
<path d="M31 0C31.2548 0.944667 31.3915 1.88312 31.4848 2.82779C31.578 3.77245 31.6215 4.71091 31.6215 5.65557C31.6277 6.60024 31.578 7.53869 31.4848 8.48336C31.3915 9.42803 31.261 10.3665 31 11.3111C30.739 10.3665 30.6085 9.42803 30.5152 8.48336C30.422 7.53869 30.3785 6.60024 30.3785 5.65557C30.3785 4.71091 30.4282 3.77245 30.5152 2.82779C30.6085 1.88312 30.739 0.944667 31 0Z" fill="#3164E8"/>
<path d="M50.6888 30.9999C51.6335 30.7451 52.572 30.6084 53.5166 30.5152C54.4613 30.422 55.3998 30.3784 56.3444 30.3784C57.2891 30.3722 58.2275 30.422 59.1722 30.5152C60.1169 30.6084 61.0553 30.7389 62 30.9999C61.0553 31.261 60.1169 31.3915 59.1722 31.4847C58.2275 31.5779 57.2891 31.6214 56.3444 31.6214C55.3998 31.6214 54.4613 31.5717 53.5166 31.4847C52.5782 31.3915 51.6335 31.2548 50.6888 30.9999Z" fill="#3164E8"/>
<path d="M0 30.9999C0.944667 30.7451 1.88312 30.6084 2.82779 30.5152C3.77245 30.422 4.71091 30.3784 5.65557 30.3784C6.60024 30.3722 7.53869 30.422 8.48336 30.5152C9.42803 30.6084 10.3665 30.7389 11.3111 30.9999C10.3665 31.261 9.42803 31.3915 8.48336 31.4847C7.53869 31.5779 6.60024 31.6214 5.65557 31.6214C4.71091 31.6214 3.77245 31.5717 2.82779 31.4847C1.88312 31.3915 0.944667 31.2548 0 30.9999Z" fill="#3164E8"/>
<path d="M44.9214 44.9214C45.7666 45.4062 46.5311 45.9779 47.2644 46.5808C47.9978 47.1836 48.6939 47.8175 49.3589 48.4825C50.0301 49.1475 50.6578 49.8498 51.2606 50.577C51.8635 51.3103 52.4353 52.0685 52.9138 52.92C52.0624 52.4352 51.3041 51.8634 50.5708 51.2668C49.8436 50.664 49.1413 50.0363 48.4763 49.3651C47.8114 48.7001 47.1774 47.9978 46.5746 47.2706C45.978 46.531 45.4062 45.7728 44.9214 44.9214Z" fill="#3164E8"/>
<path d="M9.07999 9.08008C9.92522 9.56484 10.6896 10.1366 11.423 10.7395C12.1564 11.3423 12.8524 11.9762 13.5174 12.6412C14.1886 13.3062 14.8164 14.0085 15.4192 14.7357C16.022 15.469 16.5938 16.2272 17.0724 17.0787C16.2209 16.5939 15.4627 16.0221 14.7293 15.4255C14.0022 14.8227 13.2999 14.195 12.6349 13.5237C11.9699 12.8587 11.336 12.1565 10.7332 11.4293C10.1365 10.6897 9.56475 9.92531 9.07999 9.08008Z" fill="#3164E8"/>
<path d="M44.9214 17.0725C45.4062 16.2272 45.978 15.4628 46.5808 14.7294C47.1836 13.9961 47.8176 13.3 48.4826 12.635C49.1476 11.9638 49.8498 11.3361 50.577 10.7332C51.3103 10.1304 52.0686 9.55863 52.92 9.08008C52.4353 9.93152 51.8635 10.6897 51.2668 11.4231C50.664 12.1502 50.0363 12.8525 49.3651 13.5175C48.7001 14.1825 47.9978 14.8164 47.2707 15.4193C46.5311 16.0159 45.7729 16.5877 44.9214 17.0725Z" fill="#3164E8"/>
<path d="M9.07999 52.9201C9.56475 52.0749 10.1365 51.3105 10.7394 50.5771C11.3422 49.8437 11.9761 49.1477 12.6411 48.4827C13.3061 47.8115 14.0084 47.1837 14.7356 46.5809C15.4689 45.9781 16.2271 45.4063 17.0786 44.9277C16.5938 45.7792 16.022 46.5374 15.4254 47.2708C14.8226 47.9979 14.1949 48.7002 13.5237 49.3652C12.8587 50.0302 12.1564 50.6641 11.4292 51.2669C10.6896 51.8636 9.92522 52.4354 9.07999 52.9201Z" fill="#3164E8"/>
<path d="M38.9302 49.1909C39.5269 49.9616 40.0116 50.7819 40.4591 51.6147C40.9066 52.4475 41.3106 53.3052 41.671 54.1753C42.0377 55.0454 42.3484 55.9341 42.6281 56.8415C42.9016 57.7489 43.1377 58.6687 43.262 59.6382C42.6654 58.8675 42.1744 58.0472 41.7332 57.2144C41.2919 56.3754 40.8817 55.5239 40.5275 54.6538C40.167 53.7837 39.85 52.895 39.5766 51.9876C39.2845 51.0803 39.0483 50.1604 38.9302 49.1909Z" fill="#3164E8"/>
<path d="M19.5273 2.36182C20.1239 3.13247 20.6086 3.95283 21.0561 4.78563C21.5036 5.61843 21.9076 6.47609 22.268 7.34618C22.6347 8.21627 22.9455 9.105 23.2251 10.0124C23.4986 10.9198 23.7347 11.8396 23.859 12.8091C23.2624 12.0384 22.7714 11.2181 22.3302 10.3853C21.8889 9.54626 21.4787 8.69482 21.1245 7.82473C20.764 6.95464 20.4471 6.06591 20.1736 5.15853C19.8877 4.25115 19.6516 3.33134 19.5273 2.36182Z" fill="#3164E8"/>
<path d="M49.5826 23.4612C50.3532 22.8646 51.1736 22.3798 52.0064 21.9323C52.8392 21.4848 53.6969 21.0809 54.5669 20.7204C55.437 20.3599 56.3258 20.043 57.2331 19.7633C58.1405 19.4899 59.0603 19.2537 60.0299 19.1294C59.2592 19.726 58.4388 20.217 57.606 20.6583C56.767 21.0995 55.9156 21.5097 55.0455 21.864C54.1754 22.2244 53.2867 22.5414 52.3793 22.8148C51.4781 23.1007 50.5521 23.3369 49.5826 23.4612Z" fill="#3164E8"/>
<path d="M2.7532 42.8645C3.52385 42.2679 4.34422 41.7831 5.17702 41.3356C6.00982 40.8882 6.86748 40.4842 7.73757 40.1237C8.60766 39.7571 9.49639 39.4463 10.4038 39.1666C11.3111 38.8932 12.231 38.657 13.2005 38.5327C12.4298 39.1293 11.6095 39.6203 10.7767 40.0616C9.93765 40.5028 9.0862 40.913 8.21612 41.2673C7.34603 41.6277 6.45729 41.9447 5.54992 42.2182C4.64254 42.504 3.72273 42.7402 2.7532 42.8645Z" fill="#3164E8"/>
<path d="M49.5826 38.5327C50.5521 38.657 51.4719 38.8932 52.3793 39.1666C53.2867 39.4463 54.1754 39.7571 55.0455 40.1175C55.9156 40.478 56.767 40.882 57.606 41.3232C58.4388 41.7707 59.2592 42.2554 60.0299 42.8521C59.0603 42.7278 58.1405 42.4978 57.2331 42.2182C56.3258 41.9385 55.437 41.6277 54.5669 41.2611C53.6969 40.9006 52.8454 40.4966 52.0064 40.0492C51.1736 39.6203 50.3594 39.1356 49.5826 38.5327Z" fill="#3164E8"/>
<path d="M2.7532 19.1357C3.72273 19.26 4.64254 19.4962 5.54992 19.7697C6.45729 20.0431 7.34603 20.3601 8.21612 20.7205C9.0862 21.081 9.93765 21.485 10.7767 21.9262C11.6095 22.3737 12.4298 22.8585 13.2005 23.4551C12.231 23.3308 11.3111 23.1009 10.4038 22.8212C9.49639 22.5415 8.60766 22.2308 7.73757 21.8641C6.86748 21.5036 6.01604 21.0997 5.17702 20.6522C4.34422 20.2171 3.52385 19.7324 2.7532 19.1357Z" fill="#3164E8"/>
<path d="M38.9302 12.8027C39.0545 11.8332 39.2907 10.9134 39.5642 10.006C39.8376 9.09865 40.1546 8.20992 40.515 7.33983C40.8755 6.46974 41.2795 5.6183 41.7207 4.77929C42.1682 3.94649 42.653 3.12612 43.2496 2.35547C43.1253 3.325 42.8954 4.2448 42.6157 5.15218C42.336 6.05956 42.0253 6.94829 41.6586 7.81838C41.2981 8.68847 40.8942 9.53991 40.4467 10.3789C40.0116 11.2117 39.5269 12.0321 38.9302 12.8027Z" fill="#3164E8"/>
<path d="M19.5273 59.6382C19.6516 58.6687 19.8877 57.7489 20.1612 56.8415C20.4346 55.9341 20.7516 55.0454 21.1121 54.1753C21.4725 53.3052 21.8765 52.4537 22.3177 51.6147C22.7652 50.7819 23.25 49.9616 23.8466 49.1909C23.7223 50.1604 23.4924 51.0803 23.2127 51.9876C22.933 52.895 22.6223 53.7837 22.2556 54.6538C21.8951 55.5239 21.4912 56.3754 21.0437 57.2144C20.6149 58.0472 20.1301 58.8675 19.5273 59.6382Z" fill="#3164E8"/>
</g>
<g clip-path="url(#clip1_31_2)">
<path d="M33.4844 24.013L28.5452 24L26 31.5717H29.9322L26.2975 39L37 28.848L31.2368 28.861L33.4844 24.013Z" fill="white"/>
</g>
<defs>
<clipPath id="clip0_31_2">
<rect width="62" height="62" fill="white"/>
</clipPath>
<clipPath id="clip1_31_2">
<rect width="11" height="15" fill="white" transform="translate(26 24)"/>
</clipPath>
</defs>
</svg>
