<svg width="21" height="22" viewBox="0 0 21 22" fill="none" xmlns="http://www.w3.org/2000/svg">
<g clip-path="url(#clip0_34_1756)">
<path d="M10.16 21.1098V17.1098C13.53 17.1098 16.26 14.3698 16.26 11.0098H20.26C20.26 16.5798 15.73 21.1098 10.16 21.1098Z" fill="white"/>
<path d="M5.04997 6.92C6.96087 6.92 8.50997 5.37091 8.50997 3.46C8.50997 1.54909 6.96087 0 5.04997 0C3.13906 0 1.58997 1.54909 1.58997 3.46C1.58997 5.37091 3.13906 6.92 5.04997 6.92Z" fill="white"/>
<path d="M15.26 6.92C17.171 6.92 18.72 5.37091 18.72 3.46C18.72 1.54909 17.171 0 15.26 0C13.3491 0 11.8 1.54909 11.8 3.46C11.8 5.37091 13.3491 6.92 15.26 6.92Z" fill="white"/>
<path d="M10.1 21.1098V17.1098C6.73 17.1098 4 14.3698 4 11.0098H0C0 16.5798 4.53 21.1098 10.1 21.1098Z" fill="white"/>
</g>
<defs>
<clipPath id="clip0_34_1756">
<rect width="20.26" height="21.11" fill="white"/>
</clipPath>
</defs>
</svg>
