<svg width="151" height="515" viewBox="0 0 151 515" fill="none" xmlns="http://www.w3.org/2000/svg">
<path d="M75.9469 0.000430112C75.9469 0.000430112 101.645 -0.506791 101.297 33.315C101.297 33.315 107.681 33.4648 101.749 43.9664C101.749 43.9664 100.786 46.4679 98.8012 46.4679C96.8164 46.4679 94.7619 54.0645 94.7619 54.0645C94.7619 54.0645 91.2798 60.3816 89.3414 61.4076V77.2464C89.3414 77.2464 87.7165 81.1427 106.752 84.0361C125.788 86.9295 135.909 101.12 137.766 106.757C139.623 112.394 139.31 168.083 139.484 170.158C139.658 172.233 142.966 193.732 144.638 199.369C146.309 205.006 148.12 245.145 148.77 249.076C148.77 249.076 152.02 275.589 150.673 279.647C146.367 292.8 134.586 303.797 131.742 304.074C128.26 304.419 147.052 269.226 134.319 282.897C131.046 286.356 136.176 263.6 136.037 258.69C135.352 233.41 120.948 199.899 120.948 193.605C120.948 187.311 120.089 158.596 119.578 156.89C119.067 155.184 113.484 149.455 112.184 155.864C111.14 160.936 123.849 196.718 122.909 193.651C129.873 215.992 131.684 224.188 134.516 234.885C136.513 242.517 137.604 257.825 127.122 298.99C116.641 340.155 121.168 399.337 121.168 404.329C121.168 409.32 105.15 474.185 103.502 479.396C96.7583 500.722 110.408 496.537 116.595 504.399C122.781 512.261 122.781 515.154 115.434 514.993C108.087 514.831 83.979 514.993 83.979 514.993C83.979 514.993 84.3156 475.868 84.6638 470.404C85.012 464.94 82.2611 411.994 82.2611 407.891C82.2611 403.787 86.045 392.178 83.6307 369.285C81.2165 346.391 78.9879 307.117 78.8138 295.843C78.6397 284.569 82.0406 266.77 82.0406 266.77L75.9469 266.851H75.0183L68.9246 266.77C68.9246 266.77 72.4067 284.534 72.1978 295.808C71.9888 307.082 69.7487 346.403 67.4273 369.285C65.1059 392.167 68.7969 403.787 68.7969 407.891C68.7969 411.994 66.046 464.94 66.3942 470.404C66.7424 475.868 67.0791 514.993 67.0791 514.993C67.0791 514.993 43.0176 514.82 35.6239 514.993C28.2302 515.166 28.2186 512.249 34.4632 504.399C40.7078 496.549 54.2997 500.722 47.556 479.396C45.9077 474.185 29.89 409.285 29.89 404.329C29.89 399.372 34.5328 340.074 24.0168 298.909C13.5008 257.744 14.6267 242.424 16.6231 234.805C19.4204 224.107 21.2659 215.911 28.2302 193.571C27.2784 196.637 39.9881 160.856 38.9551 155.783C37.6435 149.374 32.0721 155.092 31.5614 156.809C31.0507 158.527 30.0525 187.231 30.0525 193.525C30.0525 199.819 15.6133 233.329 14.9633 258.609C14.824 263.566 19.9427 286.367 16.6811 282.817C3.91333 269.145 22.6936 304.339 19.2579 303.993C16.4142 303.716 4.63297 292.719 0.326742 279.566C-1.01968 275.462 2.23029 248.995 2.23029 248.995C2.9151 245.064 4.63298 204.925 6.36244 199.288C8.09189 193.651 11.3418 172.129 11.516 170.078C11.6901 168.026 11.3419 112.348 13.2338 106.676C15.1258 101.005 25.073 86.9411 44.2131 84.0361C63.3532 81.1312 61.6237 77.2464 61.6237 77.2464V61.4076C59.7318 60.3816 56.2148 54.0645 56.2148 54.0645C56.2148 54.0645 54.1488 46.4679 52.164 46.4679C50.1792 46.4679 49.2274 43.9664 49.2274 43.9664C43.2962 33.4648 49.68 33.315 49.68 33.315C49.3318 -0.506791 75.0299 0.000430112 75.0299 0.000430112H75.9469Z" fill="#3164E8"/>
</svg>
