<svg width="151" height="514" viewBox="0 0 151 514" fill="none" xmlns="http://www.w3.org/2000/svg">
<path d="M76.6222 0.000429212C76.6222 0.000429212 102.105 -0.505725 101.771 33.2451C101.771 33.2451 108.101 33.3947 102.22 43.8742C102.22 43.8742 101.253 46.3705 99.2964 46.3705C97.3398 46.3705 95.291 53.9512 95.291 53.9512C95.291 53.9512 91.8381 60.255 89.916 61.2788V77.0844C89.916 77.0844 88.2931 80.9726 107.181 83.8599C126.068 86.7473 135.955 100.908 137.877 106.533C139.799 112.158 139.408 167.731 139.581 169.802C139.753 171.872 143.034 193.326 144.702 198.951C146.371 204.576 148.155 244.631 148.788 248.554C148.788 248.554 152.011 275.011 150.676 279.06C146.417 292.186 134.735 303.16 131.904 303.436C128.451 303.781 147.085 268.661 134.47 282.304C131.225 285.755 136.3 263.048 136.174 258.147C135.495 232.92 121.211 199.48 121.211 193.199C121.211 186.919 120.359 158.264 119.841 156.561C119.323 154.859 116.089 150.085 112.51 155.537C108.93 160.99 110.127 188.897 109.782 192.015C109.437 195.132 125.308 222.004 124.745 229.849C124.181 237.694 132.801 256.1 122.362 297.178C111.923 338.257 113.833 397.913 113.833 402.86C113.833 407.806 100.528 473.421 99.1583 478.701C97.7886 483.981 96.4305 495.577 102.611 503.422C108.792 511.267 108.746 514.155 101.46 513.994C94.1746 513.833 84.5754 513.994 84.5754 513.994C84.5754 513.994 84.9207 474.951 85.2545 469.499C85.5883 464.046 82.872 411.211 82.872 407.116C82.872 403.021 86.6242 391.437 84.2417 368.591C81.8591 345.745 79.6378 306.554 79.4651 295.303C79.2925 284.053 82.6878 266.211 82.6878 266.211L76.6452 266.292H74.4238L68.3812 266.211C68.3812 266.211 71.8341 283.938 71.6154 295.188C71.3968 306.438 69.2329 345.642 66.8504 368.476C64.4679 391.31 68.2086 402.906 68.2086 407.001C68.2086 411.096 65.4807 463.931 65.826 469.384C66.1713 474.836 66.5051 513.879 66.5051 513.879C66.5051 513.879 56.952 513.706 49.6203 513.879C42.2886 514.051 42.2886 511.141 48.4693 503.307C54.6501 495.473 53.2459 483.878 51.9223 478.586C50.5986 473.295 37.1667 407.703 37.1667 402.779C37.1667 397.856 39.0428 338.176 28.638 297.098C18.2332 256.019 26.7734 237.614 26.2555 229.769C25.7376 221.923 41.6095 194.994 41.2182 191.934C40.8268 188.874 42.0699 160.875 38.4904 155.457C34.9108 150.039 31.6651 154.767 31.1586 156.481C30.6522 158.195 29.789 186.815 29.789 193.119C29.789 199.423 15.4708 232.84 14.8263 258.067C14.6997 263.013 19.7755 285.767 16.5297 282.224C3.86899 268.581 22.5033 303.701 19.0964 303.356C16.265 303.08 4.58261 292.105 0.324001 278.98C-1.01113 274.885 2.2116 248.473 2.2116 248.473C2.89068 244.55 4.59411 204.496 6.29755 198.871C8.001 193.245 11.2468 171.769 11.4194 169.721C11.5921 167.673 11.2468 112.112 13.1228 106.453C14.9989 100.793 24.8973 86.7588 43.8194 83.8599C62.7414 80.9611 61.084 77.0844 61.084 77.0844V61.2788C59.2079 60.255 55.7089 53.9512 55.7089 53.9512C55.7089 53.9512 53.6717 46.3705 51.7036 46.3705C49.7354 46.3705 48.7801 43.8742 48.7801 43.8742C42.8986 33.3947 49.229 33.2451 49.229 33.2451C48.8952 -0.505725 74.3778 0.000429212 74.3778 0.000429212H76.6222Z" fill="#3164E8"/>
</svg>
