<svg width="150" height="515" viewBox="0 0 150 515" fill="none" xmlns="http://www.w3.org/2000/svg">
<path d="M75.7627 266.844L81.8005 266.764C81.8005 266.764 78.3503 284.525 78.5574 295.797C78.7644 307.069 80.9495 346.349 83.3301 369.228C85.7107 392.106 81.973 403.724 81.973 407.827C81.973 411.93 84.6986 464.868 84.3536 470.331C84.0086 475.795 83.6751 514.913 83.6751 514.913C83.6751 514.913 105.215 514.74 112.541 514.913C119.867 515.086 119.867 512.17 113.691 504.321C107.516 496.472 92.8869 500.644 99.5687 479.321C101.202 474.112 115.922 409.222 115.922 404.266C115.922 399.31 115.922 340.021 126.342 298.863C136.761 257.704 129.895 242.387 127.917 234.768C125.146 224.072 123.317 215.878 116.417 193.541C115.508 190.59 109.298 166.847 111.541 155.759C112.829 149.351 118.349 155.068 118.866 156.785C119.384 158.502 120.224 187.178 120.224 193.495C120.224 199.811 134.542 233.293 135.174 258.569C135.312 263.525 130.229 286.323 133.472 282.773C146.123 269.103 127.515 304.292 130.919 303.946C133.737 303.669 145.41 292.674 149.676 279.523C151.01 275.42 147.79 248.956 147.79 248.956C147.112 245.026 145.398 204.894 143.696 199.257C141.994 193.621 138.762 172.103 138.59 170.051C138.417 168 138.762 112.33 136.888 106.66C135.013 100.989 125.249 86.9276 106.331 84.0231C87.4127 81.1186 89.0803 77.2344 89.0803 77.2344V61.3981C90.9549 60.3723 94.451 54.0561 94.451 54.0561C94.451 54.0561 96.4981 46.4607 98.4532 46.4607C100.408 46.4607 101.374 43.9596 101.374 43.9596C107.251 33.4597 100.926 33.3098 100.926 33.3098C101.271 -0.506709 75.8087 0.000430047 75.8087 0.000430047H74.3137C74.3137 0.000430047 48.8517 -0.506709 49.1967 33.3098C49.1967 33.3098 42.8714 33.4597 48.7481 43.9596C48.7481 43.9596 49.7027 46.4607 51.6693 46.4607C53.6359 46.4607 55.6714 54.0561 55.6714 54.0561C55.6714 54.0561 59.1216 60.3723 61.0422 61.3981V77.2344C61.0422 77.2344 62.6637 81.1301 43.7915 84.0231C24.9192 86.916 15.0403 101.104 13.1197 106.74C11.1991 112.376 11.5786 168.057 11.4061 170.132C11.2336 172.207 7.95599 193.702 6.29992 199.338C4.64385 204.974 2.84978 245.107 2.20576 249.037C2.20576 249.037 -1.00287 275.546 0.319682 279.603C4.58636 292.754 16.2593 303.75 19.0769 304.026C22.5271 304.372 3.91932 269.184 16.5238 282.854C19.767 286.311 14.6838 263.56 14.8218 258.65C15.5003 233.374 29.7724 199.868 29.7724 193.575C29.7724 187.282 30.6234 158.572 31.1294 156.866C31.6355 155.16 37.1672 149.432 38.4552 155.84C40.7553 166.928 34.4876 190.671 33.5905 193.621C26.6903 215.958 24.8847 224.153 22.0901 234.849C20.1235 242.479 13.2807 257.785 23.6771 298.944C34.0736 340.102 34.0275 399.39 34.0275 404.346C34.0275 409.303 48.7481 474.192 50.3812 479.402C57.063 500.725 42.3999 496.541 36.2586 504.401C30.1174 512.262 30.1289 515.155 37.4087 514.994C44.6885 514.832 66.2749 514.994 66.2749 514.994C66.2749 514.994 65.9413 475.875 65.5963 470.412C65.2513 464.949 67.9884 412.011 67.9884 407.908C67.9884 403.805 64.2393 392.198 66.6199 369.308C69.0005 346.418 71.2201 307.15 71.3926 295.878C71.5651 284.606 68.2644 266.729 68.2644 266.729L74.3022 266.81L75.7627 266.844Z" fill="#3164E8"/>
</svg>
