<svg width="177" height="513" viewBox="0 0 177 513" fill="none" xmlns="http://www.w3.org/2000/svg">
<g clip-path="url(#clip0_21_1346)">
<path d="M87.73 -0.000363434C60.7153 0.0677351 65.4429 34.0489 65.4429 34.0489C58.3516 30.1537 61.8364 43.2014 61.8364 46.0888C61.8364 48.9761 70.0489 56.8892 70.0489 56.8892C70.0489 56.8892 70.4271 69.6781 69.4275 72.0615C68.428 74.445 71.17 82.7394 42.9127 89.8897C14.6553 97.0401 12.17 112.853 10.9273 121.637C9.68464 130.422 9.30644 169.456 8.44197 173.474C7.5775 177.492 2.5933 206.229 2.09353 212.004C1.59376 217.779 1.97198 262.193 0.351096 275.377C-1.26978 288.56 2.47173 301.731 14.4122 312.395C26.3527 323.059 15.5333 301.731 13.7909 297.59C12.0484 293.45 13.5477 276.752 15.5333 287.416C17.5189 298.081 21.0173 298.843 21.1389 299.225C21.2604 299.606 24.9885 283.535 22.0033 272.612C19.0182 261.689 18.5184 257.181 24.0024 239.856C29.4864 222.532 31.2153 200.196 31.2153 188.905C31.2153 177.614 37.6853 150.511 37.6853 150.511C37.6853 150.511 48.3966 195.688 40.1842 254.92C31.9717 314.152 39.2927 344.81 40.4813 350.544C44.2813 370.457 45.223 390.818 43.2774 411.002C40.4273 442.123 53.3673 473.244 54.6235 477.016C55.8797 480.789 60.094 492.57 48.6398 504.12C37.1856 515.669 48.3966 511.896 51.1251 512.646C53.8536 513.395 73.034 512.646 73.034 512.646C73.034 512.646 71.2916 457.908 73.034 450.88C74.7765 443.852 78.2613 420.263 73.034 401.686C67.8067 383.108 81.0033 345.205 81.0033 338.177C81.0033 331.149 87.757 299.524 87.757 291.747H89.2968C89.2968 299.524 96.0505 331.149 96.0505 338.177C96.0505 345.205 109.247 383.122 104.02 401.686C98.7925 420.249 102.277 443.907 104.02 450.88C105.762 457.853 104.02 512.646 104.02 512.646C104.02 512.646 123.187 513.381 125.929 512.646C128.671 511.91 139.868 515.669 128.414 504.12C116.96 492.57 121.201 480.775 122.444 477.016C123.686 473.257 136.627 442.123 133.776 411.002C131.827 390.805 132.769 370.43 136.572 350.503C137.761 344.728 145.096 314.111 136.883 254.879C128.671 195.647 139.368 150.47 139.368 150.47C139.368 150.47 145.839 177.573 145.839 188.864C145.839 200.155 147.581 222.505 153.065 239.815C158.549 257.126 158.036 261.607 155.051 272.571C152.065 283.535 155.793 299.552 155.915 299.184C156.037 298.816 159.535 298.053 161.521 287.376C163.506 276.698 165.005 293.409 163.263 297.549C161.52 301.69 150.688 323.018 162.642 312.354C174.596 301.69 178.324 288.506 176.703 275.336C175.082 262.165 175.46 217.724 174.96 211.963C174.461 206.202 169.49 177.451 168.612 173.433C167.734 169.415 167.369 130.381 166.126 121.596C164.884 112.812 162.398 96.9992 134.141 89.8489C105.884 82.6985 108.612 74.4314 107.559 72.0343C106.505 69.6372 106.937 56.8619 106.937 56.8619C106.937 56.8619 115.15 48.9489 115.15 46.0615C115.15 43.1741 118.635 30.1265 111.543 34.0217C111.543 34.0217 116.217 0.0677501 89.2698 -0.0275879L87.73 -0.000363434Z" fill="#3164E8"/>
</g>
<defs>
<clipPath id="clip0_21_1346">
<rect width="177" height="513" fill="white"/>
</clipPath>
</defs>
</svg>
