<svg width="178" height="511" viewBox="0 0 178 511" fill="none" xmlns="http://www.w3.org/2000/svg">
<path d="M89.8733 0.0271033C116.943 0.094899 112.248 33.9249 112.248 33.9249C119.372 30.047 115.871 43.0367 115.871 45.9112C115.871 48.7857 107.621 56.6636 107.621 56.6636C107.621 56.6636 107.241 69.3956 108.245 71.7684C109.249 74.1413 106.495 82.4259 134.881 89.4902C163.266 96.5545 165.763 112.351 167.011 121.097C168.26 129.842 168.64 168.703 169.508 172.703C170.376 176.702 175.383 205.312 175.885 211.061C176.387 216.81 176.007 261.027 177.636 274.152C179.264 287.277 175.587 300.389 163.511 311.006C151.435 321.622 162.384 300.389 164.135 296.267C165.885 292.145 164.379 275.521 162.384 286.138C160.39 296.755 156.957 297.514 156.753 297.894C156.55 298.274 152.886 282.274 155.885 271.399C158.884 260.525 159.386 255.983 153.877 238.79C148.368 221.597 143.443 201.882 145.342 190.79C147.242 179.699 147.282 179.523 140.132 149.842C146.634 184.165 150.962 218.864 153.09 253.732C155.804 298.572 146.306 343.425 146.862 349.188C147.418 354.951 136.224 380.374 139.087 411.37C141.95 442.366 129.874 471.505 128.626 475.247C127.377 478.99 123.13 490.745 134.636 502.23C146.143 513.714 134.881 509.986 132.126 510.731C129.372 511.477 104.623 510.433 104.623 510.433C104.623 510.433 106.373 455.939 104.623 448.942C102.872 441.946 99.3714 418.462 104.623 399.967C109.874 381.472 98.6387 339.71 98.6387 332.714C98.6387 325.717 89.8733 298.26 89.8733 290.518H88.123C88.123 298.26 79.3576 325.771 79.3576 332.714C79.3576 339.656 68.1227 381.527 73.3738 399.967C78.6249 418.407 75.1242 442 73.3738 448.942C71.6234 455.885 73.3738 510.433 73.3738 510.433C73.3738 510.433 48.6109 511.477 45.87 510.731C43.1291 509.986 31.8671 513.728 43.3598 502.23C54.8525 490.732 50.6191 478.99 49.3708 475.247C48.1224 471.505 36.0463 442.353 38.9093 411.37C41.7723 380.388 29.1263 354.707 31.1344 349.188C32.9798 344.117 23.9973 299.874 24.9064 253.732C25.5606 218.743 29.9039 183.921 37.8645 149.842C30.7138 179.523 28.3664 178.709 30.2389 189.977C32.1114 201.244 29.6147 221.556 24.1194 238.79C18.6241 256.023 19.1126 260.484 22.1112 271.399C25.1099 282.314 21.3649 298.26 21.2428 297.894C21.1207 297.528 17.6064 296.768 15.6118 286.138C13.6172 275.508 12.1111 292.145 13.8614 296.267C15.6118 300.389 26.4939 321.622 14.4856 311.006C2.47729 300.389 -1.26767 287.264 0.360571 274.152C1.98882 261.04 1.6089 216.797 2.11095 211.061C2.61299 205.326 7.60629 176.702 8.48825 172.703C9.37022 168.703 9.73657 129.842 10.9849 121.097C12.2332 112.351 14.7298 96.6087 43.1156 89.4902C71.5013 82.3717 68.7468 74.1277 69.7509 71.7413C70.755 69.3549 70.3751 56.6364 70.3751 56.6364C70.3751 56.6364 62.1253 48.7586 62.1253 45.8841C62.1253 43.0095 58.6246 30.0199 65.7481 33.8978C65.7481 33.8978 61.0534 0.0949139 88.123 0L89.8733 0.0271033Z" fill="#3164E8"/>
</svg>
