<svg width="181" height="517" viewBox="0 0 181 517" fill="none" xmlns="http://www.w3.org/2000/svg">
<path d="M91.6806 293.929C91.6806 301.762 100.565 329.597 100.565 336.62C100.565 343.644 111.952 386.006 106.63 404.663C101.308 423.32 104.856 447.19 106.63 454.214C108.404 461.238 106.63 516.426 106.63 516.426C106.63 516.426 131.729 517.483 134.507 516.728C137.285 515.974 148.7 519.76 137.051 508.127C125.403 496.494 129.694 484.614 130.959 480.827C132.224 477.041 144.464 447.547 141.562 416.2C139.726 395.158 141 373.961 145.344 353.288C146.555 347.472 155.288 314.493 146.926 254.832C138.564 195.171 142.621 151.601 142.621 151.601C142.621 151.601 149.209 178.901 149.209 190.273C149.209 201.646 150.983 224.158 156.553 241.594C162.123 259.03 161.628 263.543 158.589 274.586C155.549 285.629 159.345 301.762 159.469 301.392C159.593 301.021 163.155 300.253 165.176 289.498C167.198 278.743 168.724 295.575 166.95 299.745C165.176 303.916 154.146 325.399 166.318 314.657C178.489 303.916 182.285 290.637 180.635 277.371C178.984 264.105 179.369 219.342 178.86 213.54C178.352 207.737 173.359 178.777 172.397 174.73C171.434 170.683 171.131 131.367 169.866 122.518C168.601 113.67 166.07 97.7431 137.299 90.541C108.528 83.3389 111.32 74.9981 110.302 72.5837C109.284 70.1692 109.669 57.3014 109.669 57.3014C109.669 57.3014 118.031 49.3311 118.031 46.4228C118.031 43.5145 121.579 30.3724 114.359 34.2958C114.359 34.2958 119.118 0.0960283 91.6806 0H89.3563C61.9192 0.0685916 66.6777 34.2958 66.6777 34.2958C59.4575 30.3724 63.0057 43.5145 63.0057 46.4228C63.0057 49.3311 71.3675 57.3289 71.3675 57.3289C71.3675 57.3289 71.7388 70.2104 70.7348 72.6111C69.7309 75.0118 72.509 83.3663 43.7378 90.5684C14.9667 97.7705 12.5049 113.67 11.1296 122.518C9.75434 131.367 9.47928 170.683 8.5991 174.73C7.71891 178.777 2.64408 207.723 2.13522 213.54C1.62636 219.356 1.99768 264.092 0.361083 277.371C-1.27552 290.65 2.50655 303.916 14.6779 314.657C26.8492 325.399 15.8194 303.916 14.0452 299.745C12.2711 295.575 13.784 278.756 15.8194 289.498C17.8548 300.239 21.3893 301.008 21.5131 301.392C21.6369 301.776 25.4464 285.588 22.407 274.586C19.3676 263.584 18.8588 259.043 24.4287 241.594C29.9987 224.144 31.7865 201.646 31.7865 190.273C31.7865 178.901 38.3742 151.601 38.3742 151.601C38.3742 151.601 42.4313 195.171 34.0695 254.832C25.7077 314.493 34.4409 347.472 35.6511 353.288C39.9957 373.961 41.27 395.158 39.4332 416.2C36.5313 447.547 48.7576 477.041 50.0367 480.827C51.3157 484.614 55.6066 496.507 43.9441 508.127C32.2816 519.746 43.6966 515.974 46.4884 516.728C49.2803 517.483 74.3656 516.426 74.3656 516.426C74.3656 516.426 72.5915 461.293 74.3656 454.214C76.1398 447.135 79.688 423.375 74.3656 404.663C69.0432 385.951 80.4307 343.699 80.4307 336.62C80.4307 329.542 89.3151 301.762 89.3151 293.929H91.6806Z" fill="#3164E8"/>
</svg>
