<svg width="17" height="17" viewBox="0 0 17 17" fill="none" xmlns="http://www.w3.org/2000/svg">
<g clip-path="url(#clip0_36_1822)">
<path d="M8.47485 16.9998V13.7786C11.3026 13.7786 13.5933 11.572 13.5933 8.86621H16.9497C16.9497 13.3518 13.1486 16.9998 8.47485 16.9998Z" fill="#3164E8"/>
<path d="M4.23736 5.57271C5.84079 5.57271 7.14062 4.32522 7.14062 2.78636C7.14062 1.24749 5.84079 0 4.23736 0C2.63394 0 1.33411 1.24749 1.33411 2.78636C1.33411 4.32522 2.63394 5.57271 4.23736 5.57271Z" fill="#3164E8"/>
<path d="M12.7542 5.57271C14.3576 5.57271 15.6575 4.32522 15.6575 2.78636C15.6575 1.24749 14.3576 0 12.7542 0C11.1508 0 9.85095 1.24749 9.85095 2.78636C9.85095 4.32522 11.1508 5.57271 12.7542 5.57271Z" fill="#3164E8"/>
<path d="M8.47483 16.9998V13.7786C5.64709 13.7786 3.35637 11.572 3.35637 8.86621H0C0 13.3518 3.80109 16.9998 8.47483 16.9998Z" fill="#3164E8"/>
</g>
<defs>
<clipPath id="clip0_36_1822">
<rect width="17" height="17" fill="white"/>
</clipPath>
</defs>
</svg>
