<svg width="29" height="30" viewBox="0 0 29 30" fill="none" xmlns="http://www.w3.org/2000/svg">
<g clip-path="url(#clip0_36_1828)">
<path d="M14.457 29.9999V24.3154C19.2808 24.3154 23.1885 20.4215 23.1885 15.6465H28.9141C28.9141 23.5622 22.4299 29.9999 14.457 29.9999Z" fill="#3164E8"/>
<path d="M7.22849 9.8342C9.96375 9.8342 12.1811 7.63274 12.1811 4.9171C12.1811 2.20146 9.96375 0 7.22849 0C4.49324 0 2.27588 2.20146 2.27588 4.9171C2.27588 7.63274 4.49324 9.8342 7.22849 9.8342Z" fill="#3164E8"/>
<path d="M21.7571 9.8342C24.4923 9.8342 26.7097 7.63274 26.7097 4.9171C26.7097 2.20146 24.4923 0 21.7571 0C19.0218 0 16.8044 2.20146 16.8044 4.9171C16.8044 7.63274 19.0218 9.8342 21.7571 9.8342Z" fill="#3164E8"/>
<path d="M14.4571 29.9999V24.3154C9.63327 24.3154 5.72557 20.4215 5.72557 15.6465H0C0 23.5622 6.48421 29.9999 14.4571 29.9999Z" fill="#3164E8"/>
</g>
<defs>
<clipPath id="clip0_36_1828">
<rect width="29" height="30" fill="white"/>
</clipPath>
</defs>
</svg>
