<svg xmlns="http://www.w3.org/2000/svg" version="1.1" width="3300" height="2000"><g id="Notes"><style>
    text {
      font-family: monospace;
      text-anchor: middle;
    }
    text.emphasis {
      font-weight:bold;
    }
    text.lanchor {
      text-anchor: start;
    }
  </style><rect height="2200" id="artboard" fill="white" width="3300" x="0" y="0"/><line id="" style="fill:none;stroke:black;stroke-width:0.5;" x1="263" x2="3036" y1="292" y2="292"/><text class="lanchor emphasis" transform="matrix(1 0 0 1 263 322)">Weight/Scale Variations</text><text transform="matrix(1 0 0 1 559.711 322)">Ultralight</text><text transform="matrix(1 0 0 1 856.422 322)">Thin</text><text transform="matrix(1 0 0 1 1153.13 322)">Light</text><text transform="matrix(1 0 0 1 1449.84 322)">Regular</text><text transform="matrix(1 0 0 1 1746.56 322)">Medium</text><text transform="matrix(1 0 0 1 2043.27 322)">Semibold</text><text transform="matrix(1 0 0 1 2339.98 322)">Bold</text><text transform="matrix(1 0 0 1 2636.69 322)">Heavy</text><text transform="matrix(1 0 0 1 2933.4 322)">Black</text><text id="template-version" style="text-anchor: end;" transform="matrix(1 0 0 1 3036 1933)">Template v.1.0</text><text class="lanchor" transform="matrix(1 0 0 1 263 726)">Small</text><text class="lanchor" transform="matrix(1 0 0 1 263 1156)">Medium</text><text class="lanchor" transform="matrix(1 0 0 1 263 1586)">Large</text></g><g id="Guides"><g id="H-reference" style="fill:#27AAE1;stroke:none;" transform="matrix(1 0 0 1 339 696)"><path d="M 54.9316 0 L 57.666 0 L 30.5664 -70.459 L 28.0762 -70.459 L 0.976562 0 L 3.66211 0 L 12.9395 -24.4629 L 45.7031 -24.4629 Z M 29.1992 -67.0898 L 29.4434 -67.0898 L 44.8242 -26.709 L 13.8184 -26.709 Z"/></g><line id="Baseline-S" style="fill:none;stroke:#27AAE1;opacity:1;stroke-width:0.577;" x1="263" x2="3036" y1="696" y2="696"/><line id="Capline-S" style="fill:none;stroke:#27AAE1;opacity:1;stroke-width:0.577;" x1="263" x2="3036" y1="625.541" y2="625.541"/><g id="H-reference" style="fill:#27AAE1;stroke:none;" transform="matrix(1 0 0 1 339 1126)"><path d="M 54.9316 0 L 57.666 0 L 30.5664 -70.459 L 28.0762 -70.459 L 0.976562 0 L 3.66211 0 L 12.9395 -24.4629 L 45.7031 -24.4629 Z M 29.1992 -67.0898 L 29.4434 -67.0898 L 44.8242 -26.709 L 13.8184 -26.709 Z"/></g><line id="Baseline-M" style="fill:none;stroke:#27AAE1;opacity:1;stroke-width:0.577;" x1="263" x2="3036" y1="1126" y2="1126"/><line id="Capline-M" style="fill:none;stroke:#27AAE1;opacity:1;stroke-width:0.577;" x1="263" x2="3036" y1="1055.54" y2="1055.54"/><g id="H-reference" style="fill:#27AAE1;stroke:none;" transform="matrix(1 0 0 1 339 1556)"><path d="M 54.9316 0 L 57.666 0 L 30.5664 -70.459 L 28.0762 -70.459 L 0.976562 0 L 3.66211 0 L 12.9395 -24.4629 L 45.7031 -24.4629 Z M 29.1992 -67.0898 L 29.4434 -67.0898 L 44.8242 -26.709 L 13.8184 -26.709 Z"/></g><line id="Baseline-L" style="fill:none;stroke:#27AAE1;opacity:1;stroke-width:0.577;" x1="263" x2="3036" y1="1556" y2="1556"/><line id="Capline-L" style="fill:none;stroke:#27AAE1;opacity:1;stroke-width:0.577;" x1="263" x2="3036" y1="1485.54" y2="1485.54"/><rect height="119.336" id="left-margin" style="fill:darkred;stroke:none;opacity:0.4;" width="12.4512" x="1394.06" y="1030.79"/><rect height="119.336" id="right-margin" style="fill:darkgreen;stroke:none;opacity:0.4;" width="12.4512" x="1502.5112" y="1030.79"/><rect x="1406.5112" y="1045" width="96" height="96" fill="none" stroke="blue" stroke-dasharray="5"/><rect x="1394.06" y="1030.79" width="120.9024" height="119.336" fill="none" stroke="blue"/></g><g id="Symbols"><g id="Bold-L" transform="matrix(1 0 0 1 2266 1556)"><path d="M38.7 9.92 H116.261 Q116.261 9.92 116.261 9.92 Q116.261 9.92 116.261 9.92 L106.95 -54.741 Q106.95 -54.741 106.95 -54.741 Q106.95 -54.741 106.95 -54.741 H47.891 Q47.891 -54.741 47.891 -54.741 Q47.891 -54.741 47.891 -54.741 L38.7 9.92 Q38.7 9.92 38.7 9.92 Q38.7 9.92 38.7 9.92 Z M77.4 -69.899 Q81.028 -69.899 83.487 -72.358 Q85.946 -74.817 85.946 -78.445 Q85.946 -82.073 83.489 -84.452 Q81.032 -86.83 77.4 -86.83 Q73.772 -86.83 71.393 -84.396 Q69.015 -81.962 69.015 -78.364 Q69.015 -74.888 71.393 -72.393 Q73.772 -69.899 77.4 -69.899 Z M97.879 -69.899 H107.07 Q112.731 -69.899 117.076 -66.19 Q121.421 -62.481 122.066 -56.837 L131.257 7.824 Q132.225 14.758 127.712 19.998 Q123.199 25.239 116.261 25.239 H38.7 Q31.691 25.239 27.133 19.998 Q22.575 14.758 23.543 7.824 L32.734 -56.837 Q33.379 -62.481 37.724 -66.19 Q42.069 -69.899 47.891 -69.899 H57.083 Q55.954 -71.834 55.47 -73.927 Q54.986 -76.021 54.986 -78.445 Q54.986 -87.65 61.517 -94.254 Q68.047 -100.859 77.4 -100.859 Q86.752 -100.859 93.364 -94.254 Q99.975 -87.65 99.975 -78.445 Q99.975 -75.999 99.411 -73.917 Q98.846 -71.834 97.879 -69.899 Z"/></g><g id="Semibold-L" transform="matrix(1 0 0 1 1970.27 1556)"><path d="M37.088 11.322 H117.804 Q117.804 11.322 117.804 11.322 Q117.804 11.322 117.804 11.322 L108.124 -56.073 Q108.124 -56.073 108.124 -56.073 Q108.124 -56.073 108.124 -56.073 H46.699 Q46.699 -56.073 46.699 -56.073 Q46.699 -56.073 46.699 -56.073 L37.088 11.322 Q37.088 11.322 37.088 11.322 Q37.088 11.322 37.088 11.322 Z M77.4 -68.847 Q81.238 -68.847 83.838 -71.446 Q86.437 -74.046 86.437 -77.884 Q86.437 -81.723 83.839 -84.276 Q81.241 -86.83 77.4 -86.83 Q73.562 -86.83 71.008 -84.245 Q68.454 -81.66 68.454 -77.839 Q68.454 -74.086 71.008 -71.466 Q73.562 -68.847 77.4 -68.847 Z M96.266 -68.847 H108.192 Q113.012 -68.847 116.656 -65.734 Q120.3 -62.622 120.874 -57.819 L130.416 9.576 Q131.243 15.388 127.457 19.788 Q123.67 24.187 117.804 24.187 H37.088 Q31.181 24.187 27.368 19.788 Q23.557 15.388 24.384 9.576 L33.926 -57.819 Q34.5 -62.622 38.144 -65.734 Q41.788 -68.847 46.699 -68.847 H58.625 Q57.426 -70.922 56.872 -73.127 Q56.318 -75.332 56.318 -77.884 Q56.318 -86.592 62.463 -92.779 Q68.608 -98.966 77.4 -98.966 Q86.192 -98.966 92.382 -92.779 Q98.573 -86.592 98.573 -77.884 Q98.573 -75.31 97.974 -73.116 Q97.374 -70.922 96.266 -68.847 Z"/></g><g id="Medium-L" transform="matrix(1 0 0 1 1674.31 1556)"><path d="M35.878 12.374 H118.96 Q118.96 12.374 118.96 12.374 Q118.96 12.374 118.96 12.374 L109.004 -57.072 Q109.004 -57.072 109.004 -57.072 Q109.004 -57.072 109.004 -57.072 H45.805 Q45.805 -57.072 45.805 -57.072 Q45.805 -57.072 45.805 -57.072 L35.878 12.374 Q35.878 12.374 35.878 12.374 Q35.878 12.374 35.878 12.374 Z M77.4 -68.058 Q81.396 -68.058 84.101 -70.763 Q86.805 -73.467 86.805 -77.463 Q86.805 -81.46 84.101 -84.145 Q81.397 -86.83 77.4 -86.83 Q73.404 -86.83 70.719 -84.132 Q68.033 -81.433 68.033 -77.444 Q68.033 -73.484 70.719 -70.771 Q73.404 -68.058 77.4 -68.058 Z M95.057 -68.058 H109.033 Q113.222 -68.058 116.34 -65.392 Q119.458 -62.727 119.98 -58.555 L129.785 10.891 Q130.507 15.862 127.266 19.63 Q124.024 23.398 118.96 23.398 H35.878 Q30.797 23.398 27.545 19.63 Q24.293 15.862 25.015 10.891 L34.82 -58.555 Q35.342 -62.727 38.46 -65.392 Q41.578 -68.058 45.805 -68.058 H59.782 Q58.53 -70.239 57.924 -72.527 Q57.317 -74.814 57.317 -77.463 Q57.317 -85.799 63.173 -91.673 Q69.029 -97.546 77.4 -97.546 Q85.771 -97.546 91.646 -91.673 Q97.521 -85.799 97.521 -77.463 Q97.521 -74.793 96.895 -72.516 Q96.27 -70.239 95.057 -68.058 Z"/></g><g id="Regular-L" transform="matrix(1 0 0 1 1378.56 1556)"><path d="M34.991 13.145 H119.809 Q119.809 13.145 119.809 13.145 Q119.809 13.145 119.809 13.145 L109.65 -57.805 Q109.65 -57.805 109.65 -57.805 Q109.65 -57.805 109.65 -57.805 H45.15 Q45.15 -57.805 45.15 -57.805 Q45.15 -57.805 45.15 -57.805 L34.991 13.145 Q34.991 13.145 34.991 13.145 Q34.991 13.145 34.991 13.145 Z M77.4 -67.48 Q81.512 -67.48 84.293 -70.262 Q87.075 -73.043 87.075 -77.155 Q87.075 -81.267 84.293 -84.048 Q81.512 -86.83 77.4 -86.83 Q73.288 -86.83 70.507 -84.048 Q67.725 -81.267 67.725 -77.155 Q67.725 -73.043 70.507 -70.262 Q73.288 -67.48 77.4 -67.48 Z M94.17 -67.48 H109.65 Q113.376 -67.48 116.109 -65.142 Q118.841 -62.804 119.325 -59.095 L129.322 11.855 Q129.968 16.209 127.125 19.514 Q124.283 22.82 119.809 22.82 H34.991 Q30.517 22.82 27.675 19.514 Q24.832 16.209 25.477 11.855 L35.475 -59.095 Q35.959 -62.804 38.691 -65.142 Q41.424 -67.48 45.15 -67.48 H60.63 Q59.34 -69.737 58.695 -72.086 Q58.05 -74.435 58.05 -77.155 Q58.05 -85.217 63.694 -90.861 Q69.338 -96.505 77.4 -96.505 Q85.463 -96.505 91.106 -90.861 Q96.75 -85.217 96.75 -77.155 Q96.75 -74.414 96.105 -72.076 Q95.46 -69.737 94.17 -67.48 Z"/></g><g id="Light-L" transform="matrix(1 0 0 1 1082.77 1556)"><path d="M38.278 12.277 H116.522 Q117.39 12.277 118.01 11.563 Q118.63 10.85 118.506 9.982 L109.154 -55.262 Q109.092 -56.006 108.503 -56.471 Q107.913 -56.937 107.169 -56.937 H47.631 Q46.887 -56.937 46.297 -56.471 Q45.708 -56.006 45.646 -55.262 L36.294 9.982 Q36.17 10.85 36.79 11.563 Q37.41 12.277 38.278 12.277 Z M77.398 -64.255 Q81.14 -64.255 83.673 -66.786 Q86.207 -69.317 86.207 -73.059 Q86.207 -76.801 83.675 -79.335 Q81.144 -81.868 77.402 -81.868 Q73.66 -81.868 71.127 -79.337 Q68.593 -76.806 68.593 -73.064 Q68.593 -69.322 71.125 -66.788 Q73.656 -64.255 77.398 -64.255 Z M90.945 -64.255 H107.231 Q110.771 -64.255 113.411 -62.01 Q116.05 -59.765 116.472 -56.18 L125.725 9.064 Q126.308 13.252 123.559 16.423 Q120.81 19.595 116.522 19.595 H38.278 Q33.98 19.595 31.236 16.413 Q28.492 13.232 29.075 9.064 L38.328 -56.18 Q38.75 -59.765 41.389 -62.01 Q44.029 -64.255 47.569 -64.255 H63.855 Q62.565 -66.202 61.92 -68.397 Q61.275 -70.592 61.275 -73.062 Q61.275 -79.821 65.958 -84.504 Q70.64 -89.186 77.4 -89.186 Q84.16 -89.186 88.842 -84.504 Q93.525 -79.821 93.525 -73.062 Q93.525 -70.568 92.88 -68.385 Q92.235 -66.202 90.945 -64.255 Z"/></g><g id="Thin-L" transform="matrix(1 0 0 1 787.282 1556)"><path d="M41.565 11.408 H113.235 Q114.971 11.408 116.212 9.982 Q117.452 8.556 117.204 6.819 L108.658 -52.719 Q108.534 -54.208 107.355 -55.138 Q106.177 -56.068 104.688 -56.068 H50.112 Q48.623 -56.068 47.445 -55.138 Q46.266 -54.208 46.142 -52.719 L37.596 6.819 Q37.348 8.556 38.588 9.982 Q39.829 11.408 41.565 11.408 Z M77.396 -61.03 Q80.768 -61.03 83.053 -63.311 Q85.338 -65.592 85.338 -68.964 Q85.338 -72.336 83.057 -74.622 Q80.776 -76.907 77.404 -76.907 Q74.032 -76.907 71.747 -74.626 Q69.462 -72.345 69.462 -68.973 Q69.462 -65.601 71.743 -63.315 Q74.024 -61.03 77.396 -61.03 Z M87.72 -61.03 H104.812 Q108.167 -61.03 110.713 -58.878 Q113.26 -56.726 113.619 -53.265 L122.128 6.273 Q122.649 10.296 119.993 13.333 Q117.337 16.37 113.235 16.37 H41.565 Q37.442 16.37 34.796 13.313 Q32.151 10.255 32.672 6.273 L41.181 -53.265 Q41.54 -56.726 44.087 -58.878 Q46.633 -61.03 49.988 -61.03 H67.08 Q65.79 -62.667 65.145 -64.708 Q64.5 -66.749 64.5 -68.968 Q64.5 -74.426 68.221 -78.147 Q71.942 -81.868 77.4 -81.868 Q82.858 -81.868 86.579 -78.147 Q90.3 -74.426 90.3 -68.968 Q90.3 -66.723 89.655 -64.695 Q89.01 -62.667 87.72 -61.03 Z"/></g><g id="Ultralight-L" transform="matrix(1 0 0 1 491.205 1556)"><path d="M43.538 10.888 H111.263 Q113.52 10.888 115.133 9.033 Q116.745 7.179 116.422 4.921 L108.36 -51.194 Q108.199 -53.129 106.667 -54.338 Q105.135 -55.547 103.2 -55.547 H51.6 Q49.665 -55.547 48.133 -54.338 Q46.601 -53.129 46.44 -51.194 L38.377 4.921 Q38.055 7.179 39.668 9.033 Q41.28 10.888 43.538 10.888 Z M77.394 -59.095 Q80.544 -59.095 82.681 -61.226 Q84.817 -63.357 84.817 -66.507 Q84.817 -69.657 82.687 -71.793 Q80.556 -73.93 77.406 -73.93 Q74.256 -73.93 72.119 -71.799 Q69.983 -69.668 69.983 -66.518 Q69.983 -63.368 72.113 -61.232 Q74.244 -59.095 77.394 -59.095 Z M85.785 -59.095 H103.361 Q106.604 -59.095 109.094 -56.999 Q111.585 -54.902 111.907 -51.516 L119.97 4.599 Q120.454 8.522 117.854 11.478 Q115.253 14.435 111.263 14.435 H43.538 Q39.52 14.435 36.933 11.452 Q34.346 8.469 34.83 4.599 L42.892 -51.516 Q43.215 -54.902 45.706 -56.999 Q48.196 -59.095 51.439 -59.095 H69.015 Q67.725 -60.546 67.08 -62.495 Q66.435 -64.443 66.435 -66.512 Q66.435 -71.189 69.579 -74.333 Q72.724 -77.477 77.4 -77.477 Q82.076 -77.477 85.221 -74.333 Q88.365 -71.189 88.365 -66.512 Q88.365 -64.416 87.72 -62.481 Q87.075 -60.546 85.785 -59.095 Z"/></g><g id="Bold-M" transform="matrix(1 0 0 1 2281.8 1126)"><path d="M33.75 -3.48 H86.25 Q86.25 -3.48 86.25 -3.48 Q86.25 -3.48 86.25 -3.48 L80.018 -46.98 Q80.018 -46.98 80.018 -46.98 Q80.018 -46.98 80.018 -46.98 H40 Q40 -46.98 40 -46.98 Q40 -46.98 40 -46.98 L33.75 -3.48 Q33.75 -3.48 33.75 -3.48 Q33.75 -3.48 33.75 -3.48 Z M60.062 -62.73 Q61.625 -62.73 62.688 -63.855 Q63.75 -64.98 63.75 -66.542 Q63.75 -68.105 62.672 -69.167 Q61.594 -70.23 60 -70.23 Q58.5 -70.23 57.375 -69.152 Q56.25 -68.074 56.25 -66.48 Q56.25 -64.98 57.375 -63.855 Q58.5 -62.73 60.062 -62.73 Z M77.875 -62.73 H80.125 Q86.125 -62.73 90.438 -58.917 Q94.75 -55.105 95.625 -49.23 L101.875 -5.73 Q102.875 1.395 98.188 6.833 Q93.5 12.27 86.25 12.27 H33.75 Q26.5 12.27 21.812 6.833 Q17.125 1.395 18.125 -5.73 L24.375 -49.23 Q25.25 -55.105 29.562 -58.917 Q33.875 -62.73 39.875 -62.73 H42.125 Q41.875 -63.73 41.812 -64.601 Q41.75 -65.472 41.75 -66.48 Q41.75 -73.98 47.125 -79.355 Q52.5 -84.73 60 -84.73 Q67.5 -84.73 72.875 -79.355 Q78.25 -73.98 78.25 -66.48 Q78.25 -65.472 78.188 -64.601 Q78.125 -63.73 77.875 -62.73 Z"/></g><g id="Semibold-M" transform="matrix(1 0 0 1 1985.97 1126)"><path d="M32.12 -2.067 H87.88 Q87.88 -2.067 87.88 -2.067 Q87.88 -2.067 87.88 -2.067 L81.26 -48.393 Q81.26 -48.393 81.26 -48.393 Q81.26 -48.393 81.26 -48.393 H38.75 Q38.75 -48.393 38.75 -48.393 Q38.75 -48.393 38.75 -48.393 L32.12 -2.067 Q32.12 -2.067 32.12 -2.067 Q32.12 -2.067 32.12 -2.067 Z M60.035 -61.643 Q61.842 -61.643 63.068 -62.904 Q64.293 -64.165 64.293 -65.972 Q64.293 -67.779 63.059 -69.004 Q61.825 -70.23 60 -70.23 Q58.228 -70.23 56.967 -68.996 Q55.706 -67.761 55.706 -65.936 Q55.706 -64.165 56.967 -62.904 Q58.228 -61.643 60.035 -61.643 Z M76.245 -61.643 H81.321 Q86.342 -61.643 89.976 -58.401 Q93.609 -55.159 94.375 -50.262 L101.005 -3.937 Q101.843 2.047 97.916 6.615 Q93.989 11.183 87.88 11.183 H32.12 Q26.011 11.183 22.084 6.615 Q18.157 2.047 18.994 -3.937 L25.625 -50.262 Q26.391 -55.159 30.024 -58.401 Q33.658 -61.643 38.679 -61.643 H43.755 Q43.451 -62.752 43.307 -63.76 Q43.163 -64.769 43.163 -65.936 Q43.163 -72.893 48.103 -77.833 Q53.044 -82.774 60 -82.774 Q66.957 -82.774 71.897 -77.833 Q76.837 -72.893 76.837 -65.936 Q76.837 -64.769 76.693 -63.76 Q76.549 -62.752 76.245 -61.643 Z"/></g><g id="Medium-M" transform="matrix(1 0 0 1 1689.91 1126)"><path d="M30.897 -1.007 H89.103 Q89.103 -1.007 89.103 -1.007 Q89.103 -1.007 89.103 -1.007 L82.192 -49.453 Q82.192 -49.453 82.192 -49.453 Q82.192 -49.453 82.192 -49.453 H37.812 Q37.812 -49.453 37.812 -49.453 Q37.812 -49.453 37.812 -49.453 L30.897 -1.007 Q30.897 -1.007 30.897 -1.007 Q30.897 -1.007 30.897 -1.007 Z M60.015 -60.828 Q62.005 -60.828 63.353 -62.191 Q64.701 -63.553 64.701 -65.544 Q64.701 -67.534 63.349 -68.882 Q61.998 -70.23 60 -70.23 Q58.025 -70.23 56.662 -68.878 Q55.299 -67.527 55.299 -65.529 Q55.299 -63.553 56.662 -62.191 Q58.025 -60.828 60.015 -60.828 Z M75.022 -60.828 H82.217 Q86.505 -60.828 89.629 -58.014 Q92.753 -55.2 93.438 -51.037 L100.353 -2.591 Q101.068 2.536 97.712 6.452 Q94.356 10.368 89.103 10.368 H30.897 Q25.644 10.368 22.288 6.452 Q18.932 2.536 19.647 -2.591 L26.562 -51.037 Q27.247 -55.2 30.371 -58.014 Q33.495 -60.828 37.783 -60.828 H44.978 Q44.633 -62.018 44.428 -63.13 Q44.223 -64.242 44.223 -65.529 Q44.223 -72.078 48.837 -76.692 Q53.451 -81.306 60 -81.306 Q66.549 -81.306 71.163 -76.692 Q75.777 -72.078 75.777 -65.529 Q75.777 -64.242 75.572 -63.13 Q75.367 -62.018 75.022 -60.828 Z"/></g><g id="Regular-M" transform="matrix(1 0 0 1 1394.06 1126)"><path d="M30 -0.23 H90 Q90 -0.23 90 -0.23 Q90 -0.23 90 -0.23 L82.875 -50.23 Q82.875 -50.23 82.875 -50.23 Q82.875 -50.23 82.875 -50.23 H37.125 Q37.125 -50.23 37.125 -50.23 Q37.125 -50.23 37.125 -50.23 L30 -0.23 Q30 -0.23 30 -0.23 Q30 -0.23 30 -0.23 Z M60 -60.23 Q62.125 -60.23 63.562 -61.667 Q65 -63.105 65 -65.23 Q65 -67.355 63.562 -68.792 Q62.125 -70.23 60 -70.23 Q57.875 -70.23 56.438 -68.792 Q55 -67.355 55 -65.23 Q55 -63.105 56.438 -61.667 Q57.875 -60.23 60 -60.23 Z M74.125 -60.23 H82.875 Q86.625 -60.23 89.375 -57.73 Q92.125 -55.23 92.75 -51.605 L99.875 -1.605 Q100.5 2.895 97.562 6.333 Q94.625 9.77 90 9.77 H30 Q25.375 9.77 22.438 6.333 Q19.5 2.895 20.125 -1.605 L27.25 -51.605 Q27.875 -55.23 30.625 -57.73 Q33.375 -60.23 37.125 -60.23 H45.875 Q45.5 -61.48 45.25 -62.667 Q45 -63.855 45 -65.23 Q45 -71.48 49.375 -75.855 Q53.75 -80.23 60 -80.23 Q66.25 -80.23 70.625 -75.855 Q75 -71.48 75 -65.23 Q75 -63.855 74.75 -62.667 Q74.5 -61.48 74.125 -60.23 Z"/></g><g id="Light-M" transform="matrix(1 0 0 1 1098.18 1126)"><path d="M31.779 -0.23 H88.221 Q88.894 -0.23 89.375 -0.783 Q89.856 -1.336 89.76 -2.009 L83.067 -48.932 Q82.971 -49.509 82.538 -49.869 Q82.106 -50.23 81.529 -50.23 H38.471 Q37.894 -50.23 37.462 -49.869 Q37.029 -49.509 36.933 -48.932 L30.24 -2.009 Q30.144 -1.336 30.625 -0.783 Q31.106 -0.23 31.779 -0.23 Z M60 -57.73 Q62.125 -57.73 63.562 -59.167 Q65 -60.605 65 -62.73 Q65 -64.855 63.562 -66.292 Q62.125 -67.73 60 -67.73 Q57.875 -67.73 56.438 -66.292 Q55 -64.855 55 -62.73 Q55 -60.605 56.438 -59.167 Q57.875 -57.73 60 -57.73 Z M71.336 -57.73 H81.577 Q84.99 -57.73 87.476 -55.494 Q89.961 -53.259 90.49 -49.922 L97.183 -2.999 Q97.759 1.068 95.086 4.169 Q92.413 7.27 88.221 7.27 H31.779 Q27.587 7.27 24.914 4.169 Q22.241 1.068 22.817 -2.999 L29.51 -49.922 Q30.039 -53.259 32.524 -55.494 Q35.01 -57.73 38.423 -57.73 H48.664 Q48.144 -58.884 47.822 -60.119 Q47.5 -61.355 47.5 -62.73 Q47.5 -67.97 51.13 -71.6 Q54.76 -75.23 60 -75.23 Q65.24 -75.23 68.87 -71.6 Q72.5 -67.97 72.5 -62.73 Q72.5 -61.355 72.178 -60.119 Q71.856 -58.884 71.336 -57.73 Z"/></g><g id="Thin-M" transform="matrix(1 0 0 1 802.565 1126)"><path d="M33.558 -0.23 H86.442 Q87.788 -0.23 88.75 -1.336 Q89.712 -2.441 89.519 -3.788 L83.26 -47.634 Q83.067 -48.788 82.202 -49.509 Q81.337 -50.23 80.183 -50.23 H39.817 Q38.663 -50.23 37.798 -49.509 Q36.933 -48.788 36.74 -47.634 L30.481 -3.788 Q30.288 -2.441 31.25 -1.336 Q32.212 -0.23 33.558 -0.23 Z M60 -55.23 Q62.125 -55.23 63.562 -56.667 Q65 -58.105 65 -60.23 Q65 -62.355 63.562 -63.792 Q62.125 -65.23 60 -65.23 Q57.875 -65.23 56.438 -63.792 Q55 -62.355 55 -60.23 Q55 -58.105 56.438 -56.667 Q57.875 -55.23 60 -55.23 Z M68.548 -55.23 H80.279 Q83.356 -55.23 85.577 -53.259 Q87.798 -51.288 88.231 -48.24 L94.49 -4.393 Q95.019 -0.759 92.611 2.006 Q90.202 4.77 86.442 4.77 H33.558 Q29.798 4.77 27.389 2.006 Q24.981 -0.759 25.51 -4.393 L31.769 -48.24 Q32.202 -51.288 34.423 -53.259 Q36.644 -55.23 39.721 -55.23 H51.452 Q50.788 -56.288 50.394 -57.571 Q50 -58.855 50 -60.23 Q50 -64.461 52.885 -67.345 Q55.769 -70.23 60 -70.23 Q64.231 -70.23 67.115 -67.345 Q70 -64.461 70 -60.23 Q70 -58.855 69.606 -57.571 Q69.212 -56.288 68.548 -55.23 Z"/></g><g id="Ultralight-M" transform="matrix(1 0 0 1 506.415 1126)"><path d="M34.625 -0.23 H85.375 Q87.125 -0.23 88.375 -1.667 Q89.625 -3.105 89.375 -4.855 L83.375 -46.855 Q83.125 -48.355 82 -49.292 Q80.875 -50.23 79.375 -50.23 H40.625 Q39.125 -50.23 38 -49.292 Q36.875 -48.355 36.625 -46.855 L30.625 -4.855 Q30.375 -3.105 31.625 -1.667 Q32.875 -0.23 34.625 -0.23 Z M60 -53.73 Q62.125 -53.73 63.562 -55.167 Q65 -56.605 65 -58.73 Q65 -60.855 63.562 -62.292 Q62.125 -63.73 60 -63.73 Q57.875 -63.73 56.438 -62.292 Q55 -60.855 55 -58.73 Q55 -56.605 56.438 -55.167 Q57.875 -53.73 60 -53.73 Z M66.875 -53.73 H79.5 Q82.375 -53.73 84.438 -51.917 Q86.5 -50.105 86.875 -47.23 L92.875 -5.23 Q93.375 -1.855 91.125 0.708 Q88.875 3.27 85.375 3.27 H34.625 Q31.125 3.27 28.875 0.708 Q26.625 -1.855 27.125 -5.23 L33.125 -47.23 Q33.5 -50.105 35.562 -51.917 Q37.625 -53.73 40.5 -53.73 H53.125 Q52.375 -54.73 51.938 -56.042 Q51.5 -57.355 51.5 -58.73 Q51.5 -62.355 53.938 -64.792 Q56.375 -67.23 60 -67.23 Q63.625 -67.23 66.062 -64.792 Q68.5 -62.355 68.5 -58.73 Q68.5 -57.355 68.062 -56.042 Q67.625 -54.73 66.875 -53.73 Z"/></g><g id="Bold-S" transform="matrix(1 0 0 1 2294.23 696)"><path d="M28.996 -11.757 H65.684 Q65.684 -11.757 65.684 -11.757 Q65.684 -11.757 65.684 -11.757 L61.556 -42.134 Q61.556 -42.134 61.556 -42.134 Q61.556 -42.134 61.556 -42.134 H33.138 Q33.138 -42.134 33.138 -42.134 Q33.138 -42.134 33.138 -42.134 L28.996 -11.757 Q28.996 -11.757 28.996 -11.757 Q28.996 -11.757 28.996 -11.757 Z M47.389 -53.771 Q48.957 -53.771 50.023 -54.886 Q51.088 -56 51.088 -57.569 Q51.088 -59.137 50.01 -60.202 Q48.933 -61.267 47.34 -61.267 Q45.821 -61.267 44.707 -60.19 Q43.592 -59.112 43.592 -57.519 Q43.592 -56 44.707 -54.886 Q45.821 -53.771 47.389 -53.771 Z M61.148 -53.771 H61.641 Q66.095 -53.771 69.292 -51.01 Q72.489 -48.248 73.081 -43.81 L77.223 -13.434 Q78.012 -8.163 74.522 -4.141 Q71.032 -0.119 65.68 -0.119 H29.023 Q23.67 -0.119 20.169 -4.141 Q16.668 -8.163 17.457 -13.434 L21.599 -43.81 Q22.191 -48.248 25.388 -51.01 Q28.585 -53.771 33.039 -53.771 H33.532 Q33.138 -54.659 33.039 -55.593 Q32.941 -56.526 32.941 -57.519 Q32.941 -63.437 37.182 -67.678 Q41.422 -71.918 47.34 -71.918 Q53.258 -71.918 57.498 -67.678 Q61.739 -63.437 61.739 -57.519 Q61.739 -56.526 61.641 -55.593 Q61.542 -54.659 61.148 -53.771 Z"/></g><g id="Semibold-S" transform="matrix(1 0 0 1 1998.1 696)"><path d="M27.709 -10.642 H66.971 Q66.971 -10.642 66.971 -10.642 Q66.971 -10.642 66.971 -10.642 L62.536 -43.249 Q62.536 -43.249 62.536 -43.249 Q62.536 -43.249 62.536 -43.249 H32.152 Q32.152 -43.249 32.152 -43.249 Q32.152 -43.249 32.152 -43.249 L27.709 -10.642 Q27.709 -10.642 27.709 -10.642 Q27.709 -10.642 27.709 -10.642 Z M47.368 -52.914 Q49.129 -52.914 50.323 -54.136 Q51.517 -55.357 51.517 -57.118 Q51.517 -58.879 50.316 -60.073 Q49.115 -61.267 47.34 -61.267 Q45.607 -61.267 44.385 -60.066 Q43.163 -58.865 43.163 -57.09 Q43.163 -55.357 44.385 -54.136 Q45.607 -52.914 47.368 -52.914 Z M59.861 -52.914 H62.584 Q66.266 -52.914 68.928 -50.603 Q71.589 -48.291 72.095 -44.625 L76.537 -12.019 Q77.198 -7.649 74.308 -4.313 Q71.418 -0.977 66.966 -0.977 H27.737 Q23.284 -0.977 20.383 -4.313 Q17.482 -7.649 18.143 -12.019 L22.585 -44.625 Q23.091 -48.291 25.752 -50.603 Q28.414 -52.914 32.096 -52.914 H34.819 Q34.381 -53.887 34.219 -54.93 Q34.056 -55.972 34.056 -57.09 Q34.056 -62.579 37.953 -66.477 Q41.851 -70.375 47.34 -70.375 Q52.829 -70.375 56.727 -66.477 Q60.624 -62.579 60.624 -57.09 Q60.624 -55.972 60.461 -54.93 Q60.299 -53.887 59.861 -52.914 Z"/></g><g id="Medium-S" transform="matrix(1 0 0 1 1701.85 696)"><path d="M26.745 -9.806 H67.935 Q67.935 -9.806 67.935 -9.806 Q67.935 -9.806 67.935 -9.806 L63.271 -44.085 Q63.271 -44.085 63.271 -44.085 Q63.271 -44.085 63.271 -44.085 H31.412 Q31.412 -44.085 31.412 -44.085 Q31.412 -44.085 31.412 -44.085 L26.745 -9.806 Q26.745 -9.806 26.745 -9.806 Q26.745 -9.806 26.745 -9.806 Z M47.352 -52.271 Q49.258 -52.271 50.548 -53.573 Q51.838 -54.875 51.838 -56.781 Q51.838 -58.686 50.545 -59.977 Q49.252 -61.267 47.34 -61.267 Q45.446 -61.267 44.144 -59.974 Q42.842 -58.681 42.842 -56.769 Q42.842 -54.875 44.144 -53.573 Q45.446 -52.271 47.352 -52.271 Z M58.896 -52.271 H63.292 Q66.395 -52.271 68.654 -50.297 Q70.914 -48.324 71.355 -45.236 L76.023 -10.957 Q76.587 -7.263 74.147 -4.442 Q71.708 -1.62 67.931 -1.62 H26.772 Q22.995 -1.62 20.544 -4.442 Q18.093 -7.263 18.657 -10.957 L23.325 -45.236 Q23.766 -48.324 26.026 -50.297 Q28.285 -52.271 31.388 -52.271 H35.784 Q35.314 -53.308 35.103 -54.432 Q34.892 -55.556 34.892 -56.769 Q34.892 -61.936 38.532 -65.577 Q42.173 -69.217 47.34 -69.217 Q52.507 -69.217 56.148 -65.577 Q59.788 -61.936 59.788 -56.769 Q59.788 -55.556 59.577 -54.432 Q59.366 -53.308 58.896 -52.271 Z"/></g><g id="Regular-S" transform="matrix(1 0 0 1 1405.73 696)"><path d="M26.037 -9.193 H68.643 Q68.643 -9.193 68.643 -9.193 Q68.643 -9.193 68.643 -9.193 L63.81 -44.698 Q63.81 -44.698 63.81 -44.698 Q63.81 -44.698 63.81 -44.698 H30.87 Q30.87 -44.698 30.87 -44.698 Q30.87 -44.698 30.87 -44.698 L26.037 -9.193 Q26.037 -9.193 26.037 -9.193 Q26.037 -9.193 26.037 -9.193 Z M47.34 -51.799 Q49.352 -51.799 50.713 -53.16 Q52.074 -54.521 52.074 -56.533 Q52.074 -58.545 50.713 -59.906 Q49.352 -61.267 47.34 -61.267 Q45.328 -61.267 43.967 -59.906 Q42.606 -58.545 42.606 -56.533 Q42.606 -54.521 43.967 -53.16 Q45.328 -51.799 47.34 -51.799 Z M58.189 -51.799 H63.81 Q66.489 -51.799 68.454 -50.073 Q70.418 -48.347 70.813 -45.684 L75.645 -10.179 Q76.139 -6.98 74.029 -4.536 Q71.92 -2.092 68.638 -2.092 H26.064 Q22.782 -2.092 20.662 -4.536 Q18.541 -6.98 19.035 -10.179 L23.867 -45.684 Q24.262 -48.347 26.226 -50.073 Q28.191 -51.799 30.87 -51.799 H36.491 Q35.998 -52.884 35.752 -54.067 Q35.505 -55.251 35.505 -56.533 Q35.505 -61.464 38.957 -64.916 Q42.409 -68.368 47.34 -68.368 Q52.271 -68.368 55.723 -64.916 Q59.175 -61.464 59.175 -56.533 Q59.175 -55.251 58.928 -54.067 Q58.682 -52.884 58.189 -51.799 Z"/></g><g id="Light-S" transform="matrix(1 0 0 1 1109.75 696)"><path d="M27.441 -9.193 H67.239 Q67.77 -9.193 68.15 -9.629 Q68.529 -10.066 68.453 -10.597 L63.962 -43.674 Q63.886 -44.129 63.545 -44.413 Q63.203 -44.698 62.748 -44.698 H31.932 Q31.477 -44.698 31.135 -44.413 Q30.794 -44.129 30.718 -43.674 L26.227 -10.597 Q26.151 -10.066 26.53 -9.629 Q26.91 -9.193 27.441 -9.193 Z M47.34 -49.826 Q49.352 -49.826 50.713 -51.187 Q52.074 -52.548 52.074 -54.56 Q52.074 -56.572 50.713 -57.933 Q49.352 -59.294 47.34 -59.294 Q45.328 -59.294 43.967 -57.933 Q42.606 -56.572 42.606 -54.56 Q42.606 -52.548 43.967 -51.187 Q45.328 -49.826 47.34 -49.826 Z M55.989 -49.826 H62.786 Q65.199 -49.826 66.955 -48.309 Q68.711 -46.792 69.03 -44.356 L73.521 -11.279 Q73.976 -8.421 72.076 -6.243 Q70.175 -4.065 67.235 -4.065 H27.468 Q24.527 -4.065 22.616 -6.243 Q20.704 -8.421 21.159 -11.279 L25.65 -44.356 Q25.969 -46.792 27.725 -48.309 Q29.481 -49.826 31.894 -49.826 H38.691 Q38.085 -50.835 37.781 -52.057 Q37.478 -53.278 37.478 -54.56 Q37.478 -58.695 40.341 -61.559 Q43.205 -64.423 47.34 -64.423 Q51.475 -64.423 54.339 -61.559 Q57.202 -58.695 57.202 -54.56 Q57.202 -53.278 56.899 -52.057 Q56.595 -50.835 55.989 -49.826 Z"/></g><g id="Thin-S" transform="matrix(1 0 0 1 814.015 696)"><path d="M28.844 -9.193 H65.836 Q66.898 -9.193 67.657 -10.065 Q68.415 -10.938 68.264 -12 L64.114 -42.65 Q63.962 -43.56 63.279 -44.129 Q62.596 -44.698 61.686 -44.698 H32.994 Q32.084 -44.698 31.401 -44.129 Q30.718 -43.56 30.566 -42.65 L26.416 -12 Q26.265 -10.938 27.023 -10.065 Q27.782 -9.193 28.844 -9.193 Z M47.34 -47.854 Q49.352 -47.854 50.713 -49.215 Q52.074 -50.576 52.074 -52.588 Q52.074 -54.6 50.713 -55.961 Q49.352 -57.322 47.34 -57.322 Q45.328 -57.322 43.967 -55.961 Q42.606 -54.6 42.606 -52.588 Q42.606 -50.576 43.967 -49.215 Q45.328 -47.854 47.34 -47.854 Z M53.789 -47.854 H61.762 Q63.91 -47.854 65.457 -46.545 Q67.004 -45.237 67.247 -43.029 L71.397 -12.379 Q71.814 -9.863 70.122 -7.95 Q68.43 -6.037 65.831 -6.037 H28.871 Q26.272 -6.037 24.569 -7.95 Q22.866 -9.863 23.283 -12.379 L27.433 -43.029 Q27.676 -45.237 29.223 -46.545 Q30.77 -47.854 32.918 -47.854 H40.891 Q40.171 -48.787 39.81 -50.047 Q39.45 -51.306 39.45 -52.588 Q39.45 -55.926 41.726 -58.202 Q44.002 -60.478 47.34 -60.478 Q50.678 -60.478 52.954 -58.202 Q55.23 -55.926 55.23 -52.588 Q55.23 -51.306 54.87 -50.047 Q54.509 -48.787 53.789 -47.854 Z"/></g><g id="Ultralight-S" transform="matrix(1 0 0 1 517.792 696)"><path d="M29.686 -9.193 H64.994 Q66.375 -9.193 67.361 -10.327 Q68.347 -11.461 68.15 -12.842 L64.205 -42.035 Q64.008 -43.219 63.12 -43.958 Q62.232 -44.698 61.049 -44.698 H33.631 Q32.448 -44.698 31.56 -43.958 Q30.672 -43.219 30.475 -42.035 L26.53 -12.842 Q26.333 -11.461 27.319 -10.327 Q28.305 -9.193 29.686 -9.193 Z M47.34 -46.67 Q49.352 -46.67 50.713 -48.032 Q52.074 -49.393 52.074 -51.404 Q52.074 -53.416 50.713 -54.777 Q49.352 -56.138 47.34 -56.138 Q45.328 -56.138 43.967 -54.777 Q42.606 -53.416 42.606 -51.404 Q42.606 -49.393 43.967 -48.032 Q45.328 -46.67 47.34 -46.67 Z M52.468 -46.67 H61.148 Q63.136 -46.67 64.558 -45.487 Q65.98 -44.303 66.177 -42.232 L70.122 -13.039 Q70.517 -10.728 68.95 -8.974 Q67.383 -7.22 64.989 -7.22 H29.713 Q27.319 -7.22 25.741 -8.974 Q24.163 -10.728 24.558 -13.039 L28.503 -42.232 Q28.7 -44.303 30.122 -45.487 Q31.544 -46.67 33.532 -46.67 H42.212 Q41.422 -47.558 41.028 -48.84 Q40.634 -50.122 40.634 -51.404 Q40.634 -54.265 42.557 -56.188 Q44.48 -58.111 47.34 -58.111 Q50.2 -58.111 52.123 -56.188 Q54.047 -54.265 54.047 -51.404 Q54.047 -50.122 53.652 -48.84 Q53.258 -47.558 52.468 -46.67 Z"/></g></g></svg>